<svg width="400" height="220" viewBox="0 0 400 220" fill="none" xmlns="http://www.w3.org/2000/svg">
<g clip-path="url(#clip0_16_3)">
<rect width="400" height="220" rx="10" fill="#F6F6F6"/>
<rect x="1" y="1" width="398" height="218" stroke="#D3AF37" stroke-width="2"/>
<rect y="90" width="400" height="48" fill="#EE6262"/>
<path d="M130.455 105.88C131.229 105.88 132.129 105.98 133.155 106.18C134.195 106.38 134.955 106.593 135.435 106.82V111.08H133.535C132.509 109.147 131.095 108.18 129.295 108.18C128.562 108.18 127.889 108.413 127.275 108.88C126.662 109.347 126.175 109.987 125.815 110.8C125.469 111.613 125.295 112.527 125.295 113.54C125.295 114.687 125.469 115.74 125.815 116.7C126.175 117.647 126.715 118.407 127.435 118.98C128.155 119.54 129.049 119.82 130.115 119.82C131.329 119.82 133.055 119.153 135.295 117.82L136.095 119.1L132.415 121.96C131.829 122.133 131.262 122.247 130.715 122.3C130.182 122.367 129.609 122.4 128.995 122.4C127.502 122.4 126.175 122.06 125.015 121.38C123.855 120.7 122.955 119.767 122.315 118.58C121.675 117.38 121.355 116.02 121.355 114.5C121.355 112.94 121.835 111.5 122.795 110.18C123.755 108.847 124.949 107.8 126.375 107.04C127.802 106.267 129.162 105.88 130.455 105.88ZM150.514 122H145.974V115.6C145.974 114.973 145.874 114.533 145.674 114.28C145.487 114.013 145.154 113.88 144.674 113.88C143.967 113.88 143.267 114.107 142.574 114.56V120.1L144.374 120.7L143.714 122H137.394V120.88L139.174 119.38V108.44L137.394 107.26V106.14L141.314 104.54H142.574V112.98L144.814 111.18C145.174 111.073 145.58 111.02 146.034 111.02C147.047 111.02 147.854 111.3 148.454 111.86C149.067 112.407 149.374 113.153 149.374 114.1V120.1L151.174 120.7L150.514 122ZM158.969 111.02C159.956 111.02 160.836 111.253 161.609 111.72C162.382 112.173 162.982 112.8 163.409 113.6C163.849 114.4 164.069 115.287 164.069 116.26C164.069 117.313 163.729 118.3 163.049 119.22C162.369 120.127 161.516 120.853 160.489 121.4C159.476 121.933 158.496 122.2 157.549 122.2C156.576 122.2 155.696 121.973 154.909 121.52C154.136 121.053 153.529 120.42 153.089 119.62C152.662 118.82 152.449 117.933 152.449 116.96C152.449 115.907 152.789 114.927 153.469 114.02C154.149 113.1 154.996 112.373 156.009 111.84C157.036 111.293 158.022 111.02 158.969 111.02ZM157.809 113.34C157.249 113.34 156.822 113.567 156.529 114.02C156.249 114.46 156.109 115.12 156.109 116C156.109 117.12 156.336 118.053 156.789 118.8C157.242 119.533 157.882 119.9 158.709 119.9C159.256 119.9 159.669 119.673 159.949 119.22C160.242 118.753 160.389 118.08 160.389 117.2C160.389 116.08 160.162 115.16 159.709 114.44C159.256 113.707 158.622 113.34 157.809 113.34ZM172.895 111.02C173.882 111.02 174.762 111.253 175.535 111.72C176.308 112.173 176.908 112.8 177.335 113.6C177.775 114.4 177.995 115.287 177.995 116.26C177.995 117.313 177.655 118.3 176.975 119.22C176.295 120.127 175.442 120.853 174.415 121.4C173.402 121.933 172.422 122.2 171.475 122.2C170.502 122.2 169.622 121.973 168.835 121.52C168.062 121.053 167.455 120.42 167.015 119.62C166.588 118.82 166.375 117.933 166.375 116.96C166.375 115.907 166.715 114.927 167.395 114.02C168.075 113.1 168.922 112.373 169.935 111.84C170.962 111.293 171.948 111.02 172.895 111.02ZM171.735 113.34C171.175 113.34 170.748 113.567 170.455 114.02C170.175 114.46 170.035 115.12 170.035 116C170.035 117.12 170.262 118.053 170.715 118.8C171.168 119.533 171.808 119.9 172.635 119.9C173.182 119.9 173.595 119.673 173.875 119.22C174.168 118.753 174.315 118.08 174.315 117.2C174.315 116.08 174.088 115.16 173.635 114.44C173.182 113.707 172.548 113.34 171.735 113.34ZM185.801 119.46C185.801 119.207 185.627 118.953 185.281 118.7C184.934 118.433 184.401 118.1 183.681 117.7C182.974 117.3 182.407 116.96 181.981 116.68C181.554 116.387 181.181 116.06 180.861 115.7C180.554 115.327 180.401 114.927 180.401 114.5C180.401 114.02 180.627 113.507 181.081 112.96C181.547 112.413 182.114 111.953 182.781 111.58C183.447 111.207 184.061 111.02 184.621 111.02C185.301 111.02 186.094 111.1 187.001 111.26C187.921 111.407 188.587 111.573 189.001 111.76V115.1H187.741C187.381 114.433 186.947 113.913 186.441 113.54C185.947 113.167 185.434 112.98 184.901 112.98C184.634 112.98 184.421 113.06 184.261 113.22C184.101 113.367 184.021 113.547 184.021 113.76C184.021 114.04 184.194 114.313 184.541 114.58C184.901 114.847 185.467 115.2 186.241 115.64C187.267 116.2 188.054 116.707 188.601 117.16C189.161 117.613 189.441 118.133 189.441 118.72C189.441 119.213 189.201 119.733 188.721 120.28C188.254 120.813 187.674 121.267 186.981 121.64C186.301 122.013 185.674 122.2 185.101 122.2C184.367 122.2 183.494 122.127 182.481 121.98C181.481 121.82 180.767 121.647 180.341 121.46V118H181.601C182.001 118.707 182.494 119.26 183.081 119.66C183.667 120.047 184.247 120.24 184.821 120.24C185.114 120.24 185.347 120.167 185.521 120.02C185.707 119.86 185.801 119.673 185.801 119.46ZM197.993 111.02C199.393 111.02 200.473 111.553 201.233 112.62C202.006 113.687 202.379 115.167 202.353 117.06H195.153C195.286 117.873 195.573 118.527 196.013 119.02C196.453 119.5 197.026 119.74 197.733 119.74C198.666 119.74 200.006 119.273 201.753 118.34L202.353 119.48L199.313 121.9C198.526 122.1 197.613 122.2 196.573 122.2C195.599 122.2 194.719 121.973 193.933 121.52C193.159 121.053 192.553 120.42 192.113 119.62C191.686 118.82 191.473 117.933 191.473 116.96C191.473 115.907 191.813 114.927 192.493 114.02C193.173 113.1 194.019 112.373 195.033 111.84C196.059 111.293 197.046 111.02 197.993 111.02ZM196.893 113.34C196.306 113.34 195.866 113.54 195.573 113.94C195.279 114.327 195.119 114.927 195.093 115.74H198.913C198.806 114.913 198.606 114.307 198.313 113.92C198.033 113.533 197.553 113.34 196.873 113.34H196.893ZM221.521 122H216.961V120.26L214.701 122.04C214.434 122.147 214.101 122.2 213.701 122.2C212.421 122.2 211.494 121.887 210.921 121.26C210.361 120.633 210.081 119.88 210.081 119C210.081 118.48 210.241 117.973 210.561 117.48C210.881 116.973 211.341 116.507 211.941 116.08H216.961V115.74C216.961 115.007 216.761 114.467 216.361 114.12C215.961 113.773 215.428 113.6 214.761 113.6C213.828 113.6 212.608 113.967 211.101 114.7L210.501 113.56L213.281 111.32C213.961 111.12 214.754 111.02 215.661 111.02C217.154 111.02 218.308 111.36 219.121 112.04C219.948 112.72 220.361 113.707 220.361 115V120L222.161 120.7L221.521 122ZM214.721 119.52C215.401 119.52 216.148 119.24 216.961 118.68V117.4H213.741C213.634 117.56 213.554 117.713 213.501 117.86C213.461 117.993 213.441 118.147 213.441 118.32C213.441 118.653 213.554 118.933 213.781 119.16C214.021 119.387 214.334 119.5 214.721 119.5V119.52ZM235.288 111.02C235.914 111.02 236.641 111.1 237.468 111.26C238.294 111.407 238.894 111.573 239.268 111.76V115.48H238.008C237.501 114.8 236.928 114.273 236.288 113.9C235.648 113.527 234.981 113.34 234.288 113.34C233.794 113.34 233.414 113.573 233.148 114.04C232.894 114.493 232.768 115.147 232.768 116C232.768 117.08 232.994 117.973 233.448 118.68C233.914 119.387 234.574 119.74 235.428 119.74C236.294 119.74 237.541 119.32 239.168 118.48L239.768 119.62L236.888 121.9C236.128 122.1 235.254 122.2 234.268 122.2C233.294 122.2 232.414 121.973 231.628 121.52C230.854 121.053 230.248 120.42 229.808 119.62C229.381 118.82 229.168 117.933 229.168 116.96C229.168 115.907 229.481 114.927 230.108 114.02C230.748 113.1 231.548 112.373 232.508 111.84C233.468 111.293 234.394 111.02 235.288 111.02ZM253.162 122H248.602V120.26L246.342 122.04C246.075 122.147 245.742 122.2 245.342 122.2C244.062 122.2 243.135 121.887 242.562 121.26C242.002 120.633 241.722 119.88 241.722 119C241.722 118.48 241.882 117.973 242.202 117.48C242.522 116.973 242.982 116.507 243.582 116.08H248.602V115.74C248.602 115.007 248.402 114.467 248.002 114.12C247.602 113.773 247.068 113.6 246.402 113.6C245.468 113.6 244.248 113.967 242.742 114.7L242.142 113.56L244.922 111.32C245.602 111.12 246.395 111.02 247.302 111.02C248.795 111.02 249.948 111.36 250.762 112.04C251.588 112.72 252.002 113.707 252.002 115V120L253.802 120.7L253.162 122ZM246.362 119.52C247.042 119.52 247.788 119.24 248.602 118.68V117.4H245.382C245.275 117.56 245.195 117.713 245.142 117.86C245.102 117.993 245.082 118.147 245.082 118.32C245.082 118.653 245.195 118.933 245.422 119.16C245.662 119.387 245.975 119.5 246.362 119.5V119.52ZM261.543 113.86C261.063 113.86 260.583 114.073 260.103 114.5V119.9L263.143 120.7L262.503 122H254.923V120.88L256.702 119.38V114.84L254.923 113.72V112.6L259.083 110.84L259.843 113.06L261.663 111.18C261.943 111.073 262.269 111.02 262.643 111.02C263.336 111.02 263.929 111.18 264.423 111.5C264.929 111.82 265.283 112.26 265.483 112.82L263.563 115.22H262.303C262.289 114.74 262.223 114.4 262.103 114.2C261.983 113.987 261.796 113.88 261.543 113.88V113.86ZM278.895 122H274.355V120.52L272.435 122.04C272.009 122.147 271.515 122.2 270.955 122.2C270.075 122.2 269.282 121.973 268.575 121.52C267.882 121.053 267.335 120.42 266.935 119.62C266.549 118.82 266.355 117.933 266.355 116.96C266.355 115.907 266.695 114.927 267.375 114.02C268.055 113.1 268.902 112.373 269.915 111.84C270.942 111.293 271.929 111.02 272.875 111.02C273.409 111.02 273.902 111.153 274.355 111.42V108.44L272.575 107.26V106.14L276.495 104.54H277.755V120.1L279.555 120.7L278.895 122ZM272.175 119.52C272.962 119.52 273.689 119.327 274.355 118.94V115.12C274.275 114.6 274.009 114.173 273.555 113.84C273.102 113.507 272.489 113.34 271.715 113.34C270.542 113.34 269.955 114.233 269.955 116.02C269.955 117.033 270.142 117.873 270.515 118.54C270.902 119.193 271.455 119.52 272.175 119.52Z" fill="white"/>
</g>
<defs>
<clipPath id="clip0_16_3">
<rect width="400" height="220" rx="10" fill="white"/>
</clipPath>
</defs>
</svg>
