<svg width="400" height="220" viewBox="0 0 400 220" fill="none" xmlns="http://www.w3.org/2000/svg">
<rect width="400" height="220" rx="10" fill="url(#paint0_linear_5_3)"/>
<path d="M168.592 93V65H174.072V76.8H174.272L179.272 65H184.912L179.072 78.36L185.192 93H179.112L174.352 80.76H174.072V93H168.592ZM187.108 93V65H192.588V93H187.108ZM208.923 93L201.443 77.52L201.243 77.6L201.483 82.32V93H196.443V65H200.483L207.843 81.08L208.043 81L207.603 76.08V65H212.643V93H208.923ZM229.763 93H221.283C219.363 91.24 217.963 89.1467 217.083 86.72C216.203 84.2933 215.763 81.76 215.763 79.12C215.763 76.4533 216.296 73.8267 217.363 71.24C218.429 68.6533 219.923 66.5733 221.843 65H231.563V69.8H224.123C223.429 70.6 222.829 71.8667 222.323 73.6C221.816 75.3067 221.563 77.1333 221.563 79.08C221.563 81 221.789 82.84 222.243 84.6C222.723 86.3333 223.309 87.5867 224.003 88.36H227.843V77.48H233.123V84.2C233.123 87.88 232.003 90.8133 229.763 93Z" fill="#D3AF37"/>
<path d="M100.719 118.398C100.719 116.576 101.19 115.148 102.133 114.117C103.076 113.081 104.385 112.562 106.062 112.562C107.068 112.562 107.888 112.737 108.523 113.086C109.159 113.43 109.625 113.836 109.922 114.305C110.104 114.596 110.102 114.807 109.914 114.938L109.328 115.344C109.135 115.479 108.943 115.398 108.75 115.102C108.594 114.867 108.299 114.589 107.867 114.266C107.435 113.943 106.859 113.781 106.141 113.781C104.865 113.781 103.909 114.188 103.273 115C102.638 115.807 102.32 116.94 102.32 118.398C102.32 119.857 102.63 120.992 103.25 121.805C103.87 122.612 104.859 123.016 106.219 123.016C106.896 123.016 107.484 122.935 107.984 122.773C108.49 122.607 108.844 122.378 109.047 122.086V120.016H106.727C106.44 120.016 106.297 119.898 106.297 119.664V119.086C106.297 118.852 106.44 118.734 106.727 118.734H110.117C110.404 118.734 110.547 118.852 110.547 119.086V122.773C109.911 123.237 109.276 123.596 108.641 123.852C108.005 124.107 107.172 124.234 106.141 124.234C104.422 124.234 103.089 123.719 102.141 122.688C101.193 121.651 100.719 120.221 100.719 118.398ZM112.578 121.141V116.148C112.578 115.914 112.695 115.797 112.93 115.797H113.602C113.836 115.797 113.953 115.914 113.953 116.148V120.766C113.953 121.786 114.122 122.435 114.461 122.711C114.799 122.982 115.219 123.117 115.719 123.117C116.375 123.117 116.878 122.917 117.227 122.516C117.576 122.109 117.75 121.417 117.75 120.438V116.148C117.75 115.914 117.867 115.797 118.102 115.797H118.773C119.008 115.797 119.125 115.914 119.125 116.148V123.648C119.125 123.883 119.008 124 118.773 124H118.117C117.883 124 117.766 123.883 117.766 123.648V123.023H117.734C117.396 123.398 117.031 123.677 116.641 123.859C116.25 124.042 115.773 124.133 115.211 124.133C114.299 124.133 113.633 123.867 113.211 123.336C112.789 122.799 112.578 122.068 112.578 121.141ZM120.898 119.898C120.898 118.607 121.221 117.578 121.867 116.812C122.513 116.047 123.438 115.664 124.641 115.664C125.641 115.664 126.469 116.016 127.125 116.719C127.786 117.417 128.117 118.534 128.117 120.07C128.117 120.305 128.01 120.422 127.797 120.422H122.352C122.44 121.427 122.711 122.128 123.164 122.523C123.617 122.914 124.13 123.109 124.703 123.109C125.307 123.109 125.771 123.008 126.094 122.805C126.417 122.602 126.654 122.401 126.805 122.203C126.971 121.984 127.133 121.943 127.289 122.078L127.75 122.477C127.87 122.581 127.87 122.724 127.75 122.906C127.651 123.057 127.367 123.299 126.898 123.633C126.435 123.966 125.703 124.133 124.703 124.133C123.401 124.133 122.44 123.75 121.82 122.984C121.206 122.219 120.898 121.19 120.898 119.898ZM122.32 119.406H126.734C126.714 118.677 126.526 118.039 126.172 117.492C125.818 116.94 125.297 116.664 124.609 116.664C124.005 116.664 123.492 116.867 123.07 117.273C122.648 117.674 122.398 118.385 122.32 119.406ZM129.602 123.234C129.44 123.083 129.406 122.943 129.5 122.812L129.852 122.32C129.966 122.164 130.135 122.172 130.359 122.344C130.667 122.578 131.008 122.766 131.383 122.906C131.763 123.047 132.195 123.117 132.68 123.117C132.966 123.117 133.221 123.083 133.445 123.016C133.669 122.943 133.865 122.81 134.031 122.617C134.203 122.424 134.289 122.167 134.289 121.844C134.289 121.656 134.247 121.479 134.164 121.312C134.086 121.146 133.961 121.013 133.789 120.914C133.622 120.81 133.458 120.729 133.297 120.672C133.031 120.573 132.766 120.492 132.5 120.43C132.24 120.362 131.896 120.26 131.469 120.125C131.182 120.036 130.911 119.911 130.656 119.75C130.401 119.583 130.177 119.359 129.984 119.078C129.797 118.797 129.703 118.409 129.703 117.914C129.703 117.409 129.857 116.974 130.164 116.609C130.471 116.245 130.857 115.997 131.32 115.867C131.784 115.732 132.234 115.664 132.672 115.664C133.318 115.664 133.836 115.74 134.227 115.891C134.622 116.036 134.964 116.211 135.25 116.414C135.417 116.534 135.44 116.672 135.32 116.828L134.969 117.297C134.859 117.448 134.69 117.443 134.461 117.281C134.268 117.146 133.995 117.018 133.641 116.898C133.286 116.779 132.977 116.719 132.711 116.719C132.383 116.719 132.102 116.755 131.867 116.828C131.633 116.901 131.443 117.026 131.297 117.203C131.151 117.38 131.078 117.589 131.078 117.828C131.078 118.01 131.107 118.174 131.164 118.32C131.221 118.461 131.328 118.591 131.484 118.711C131.641 118.831 131.859 118.927 132.141 119C132.578 119.115 132.977 119.219 133.336 119.312C133.701 119.406 134.029 119.521 134.32 119.656C134.701 119.833 134.992 120.029 135.195 120.242C135.404 120.456 135.547 120.688 135.625 120.938C135.703 121.182 135.742 121.456 135.742 121.758C135.742 122.315 135.576 122.786 135.242 123.172C134.914 123.557 134.547 123.815 134.141 123.945C133.734 124.07 133.245 124.133 132.672 124.133C131.896 124.133 131.229 124.023 130.672 123.805C130.12 123.581 129.763 123.391 129.602 123.234ZM136.977 123.234C136.815 123.083 136.781 122.943 136.875 122.812L137.227 122.32C137.341 122.164 137.51 122.172 137.734 122.344C138.042 122.578 138.383 122.766 138.758 122.906C139.138 123.047 139.57 123.117 140.055 123.117C140.341 123.117 140.596 123.083 140.82 123.016C141.044 122.943 141.24 122.81 141.406 122.617C141.578 122.424 141.664 122.167 141.664 121.844C141.664 121.656 141.622 121.479 141.539 121.312C141.461 121.146 141.336 121.013 141.164 120.914C140.997 120.81 140.833 120.729 140.672 120.672C140.406 120.573 140.141 120.492 139.875 120.43C139.615 120.362 139.271 120.26 138.844 120.125C138.557 120.036 138.286 119.911 138.031 119.75C137.776 119.583 137.552 119.359 137.359 119.078C137.172 118.797 137.078 118.409 137.078 117.914C137.078 117.409 137.232 116.974 137.539 116.609C137.846 116.245 138.232 115.997 138.695 115.867C139.159 115.732 139.609 115.664 140.047 115.664C140.693 115.664 141.211 115.74 141.602 115.891C141.997 116.036 142.339 116.211 142.625 116.414C142.792 116.534 142.815 116.672 142.695 116.828L142.344 117.297C142.234 117.448 142.065 117.443 141.836 117.281C141.643 117.146 141.37 117.018 141.016 116.898C140.661 116.779 140.352 116.719 140.086 116.719C139.758 116.719 139.477 116.755 139.242 116.828C139.008 116.901 138.818 117.026 138.672 117.203C138.526 117.38 138.453 117.589 138.453 117.828C138.453 118.01 138.482 118.174 138.539 118.32C138.596 118.461 138.703 118.591 138.859 118.711C139.016 118.831 139.234 118.927 139.516 119C139.953 119.115 140.352 119.219 140.711 119.312C141.076 119.406 141.404 119.521 141.695 119.656C142.076 119.833 142.367 120.029 142.57 120.242C142.779 120.456 142.922 120.688 143 120.938C143.078 121.182 143.117 121.456 143.117 121.758C143.117 122.315 142.951 122.786 142.617 123.172C142.289 123.557 141.922 123.815 141.516 123.945C141.109 124.07 140.62 124.133 140.047 124.133C139.271 124.133 138.604 124.023 138.047 123.805C137.495 123.581 137.138 123.391 136.977 123.234ZM149.43 116.18C149.336 115.924 149.406 115.797 149.641 115.797H150.492C150.664 115.797 150.781 115.898 150.844 116.102L152.484 121.258C152.531 121.398 152.602 121.62 152.695 121.922C152.794 122.219 152.865 122.484 152.906 122.719H152.922C152.964 122.484 153.013 122.273 153.07 122.086C153.133 121.893 153.224 121.617 153.344 121.258L155 116.102C155.068 115.898 155.185 115.797 155.352 115.797H156.203C156.438 115.797 156.508 115.924 156.414 116.18L153.781 123.523C153.286 124.904 152.844 125.87 152.453 126.422C152.062 126.979 151.479 127.258 150.703 127.258C150.297 127.258 149.974 127.198 149.734 127.078C149.625 127.026 149.589 126.945 149.625 126.836L149.828 126.203C149.865 126.094 149.935 126.062 150.039 126.109C150.253 126.198 150.458 126.242 150.656 126.242C151.021 126.242 151.318 126.044 151.547 125.648C151.776 125.258 151.958 124.865 152.094 124.469L152.25 124.008L149.43 116.18ZM157.289 119.898C157.289 118.674 157.612 117.664 158.258 116.867C158.909 116.065 159.859 115.664 161.109 115.664C162.359 115.664 163.307 116.065 163.953 116.867C164.604 117.664 164.93 118.674 164.93 119.898C164.93 121.122 164.604 122.135 163.953 122.938C163.307 123.734 162.359 124.133 161.109 124.133C159.859 124.133 158.909 123.734 158.258 122.938C157.612 122.135 157.289 121.122 157.289 119.898ZM158.742 119.898C158.742 120.992 158.958 121.802 159.391 122.328C159.823 122.854 160.396 123.117 161.109 123.117C161.823 123.117 162.396 122.854 162.828 122.328C163.26 121.802 163.477 120.992 163.477 119.898C163.477 118.805 163.26 117.995 162.828 117.469C162.396 116.943 161.823 116.68 161.109 116.68C160.396 116.68 159.823 116.943 159.391 117.469C158.958 117.995 158.742 118.805 158.742 119.898ZM166.688 121.141V116.148C166.688 115.914 166.805 115.797 167.039 115.797H167.711C167.945 115.797 168.062 115.914 168.062 116.148V120.766C168.062 121.786 168.232 122.435 168.57 122.711C168.909 122.982 169.328 123.117 169.828 123.117C170.484 123.117 170.987 122.917 171.336 122.516C171.685 122.109 171.859 121.417 171.859 120.438V116.148C171.859 115.914 171.977 115.797 172.211 115.797H172.883C173.117 115.797 173.234 115.914 173.234 116.148V123.648C173.234 123.883 173.117 124 172.883 124H172.227C171.992 124 171.875 123.883 171.875 123.648V123.023H171.844C171.505 123.398 171.141 123.677 170.75 123.859C170.359 124.042 169.883 124.133 169.32 124.133C168.409 124.133 167.742 123.867 167.32 123.336C166.898 122.799 166.688 122.068 166.688 121.141ZM175.852 114.18C175.617 114.18 175.5 114.062 175.5 113.828V112.875C175.5 112.641 175.617 112.523 175.852 112.523H176.758C176.992 112.523 177.109 112.641 177.109 112.875V113.828C177.109 114.375 177.049 114.854 176.93 115.266C176.815 115.672 176.586 116.029 176.242 116.336C176.128 116.435 176.031 116.448 175.953 116.375L175.602 116.047C175.523 115.974 175.542 115.885 175.656 115.781C175.833 115.625 175.977 115.401 176.086 115.109C176.201 114.812 176.258 114.503 176.258 114.18H175.852ZM179.695 124C179.461 124 179.344 123.883 179.344 123.648V116.148C179.344 115.914 179.461 115.797 179.695 115.797H180.352C180.586 115.797 180.703 115.914 180.703 116.148V117.086H180.734C180.984 116.617 181.279 116.263 181.617 116.023C181.956 115.784 182.378 115.664 182.883 115.664C183.216 115.664 183.451 115.693 183.586 115.75C183.706 115.797 183.75 115.875 183.719 115.984L183.539 116.625C183.513 116.719 183.445 116.755 183.336 116.734C183.154 116.698 182.982 116.68 182.82 116.68C182.211 116.68 181.708 116.956 181.312 117.508C180.917 118.055 180.719 118.802 180.719 119.75V123.648C180.719 123.883 180.602 124 180.367 124H179.695ZM184.539 119.898C184.539 118.607 184.862 117.578 185.508 116.812C186.154 116.047 187.078 115.664 188.281 115.664C189.281 115.664 190.109 116.016 190.766 116.719C191.427 117.417 191.758 118.534 191.758 120.07C191.758 120.305 191.651 120.422 191.438 120.422H185.992C186.081 121.427 186.352 122.128 186.805 122.523C187.258 122.914 187.771 123.109 188.344 123.109C188.948 123.109 189.411 123.008 189.734 122.805C190.057 122.602 190.294 122.401 190.445 122.203C190.612 121.984 190.773 121.943 190.93 122.078L191.391 122.477C191.51 122.581 191.51 122.724 191.391 122.906C191.292 123.057 191.008 123.299 190.539 123.633C190.076 123.966 189.344 124.133 188.344 124.133C187.042 124.133 186.081 123.75 185.461 122.984C184.846 122.219 184.539 121.19 184.539 119.898ZM185.961 119.406H190.375C190.354 118.677 190.167 118.039 189.812 117.492C189.458 116.94 188.938 116.664 188.25 116.664C187.646 116.664 187.133 116.867 186.711 117.273C186.289 117.674 186.039 118.385 185.961 119.406ZM198.445 121.812C198.445 120.885 198.878 120.206 199.742 119.773C200.612 119.341 201.909 119.089 203.633 119.016V118.484C203.633 117.995 203.521 117.573 203.297 117.219C203.078 116.859 202.641 116.68 201.984 116.68C201.568 116.68 201.234 116.721 200.984 116.805C200.734 116.883 200.505 116.99 200.297 117.125C200.094 117.255 199.898 117.424 199.711 117.633C199.57 117.789 199.438 117.797 199.312 117.656L198.906 117.188C198.792 117.057 198.831 116.901 199.023 116.719C199.299 116.458 199.568 116.263 199.828 116.133C200.089 116.003 200.411 115.893 200.797 115.805C201.188 115.711 201.583 115.664 201.984 115.664C203.073 115.664 203.849 115.945 204.312 116.508C204.776 117.065 205.008 117.831 205.008 118.805V123.648C205.008 123.883 204.891 124 204.656 124H203.953C203.75 124 203.648 123.883 203.648 123.648V123.266H203.633C203.221 123.589 202.818 123.815 202.422 123.945C202.031 124.07 201.594 124.133 201.109 124.133C200.255 124.133 199.596 123.93 199.133 123.523C198.674 123.112 198.445 122.542 198.445 121.812ZM199.867 121.844C199.867 122.167 199.935 122.427 200.07 122.625C200.206 122.818 200.393 122.943 200.633 123C200.872 123.052 201.122 123.078 201.383 123.078C201.784 123.078 202.164 123.039 202.523 122.961C202.883 122.883 203.253 122.677 203.633 122.344V120.039C202.581 120.117 201.831 120.214 201.383 120.328C200.935 120.438 200.57 120.63 200.289 120.906C200.008 121.177 199.867 121.49 199.867 121.844ZM212.914 124C212.68 124 212.562 123.883 212.562 123.648V113.898C212.562 113.794 212.589 113.695 212.641 113.602L213.188 112.609C213.286 112.427 213.367 112.336 213.43 112.336H213.703C213.859 112.336 213.938 112.427 213.938 112.609V123.648C213.938 123.883 213.82 124 213.586 124H212.914ZM216.141 121.141V116.148C216.141 115.914 216.258 115.797 216.492 115.797H217.164C217.398 115.797 217.516 115.914 217.516 116.148V120.766C217.516 121.786 217.685 122.435 218.023 122.711C218.362 122.982 218.781 123.117 219.281 123.117C219.938 123.117 220.44 122.917 220.789 122.516C221.138 122.109 221.312 121.417 221.312 120.438V116.148C221.312 115.914 221.43 115.797 221.664 115.797H222.336C222.57 115.797 222.688 115.914 222.688 116.148V123.648C222.688 123.883 222.57 124 222.336 124H221.68C221.445 124 221.328 123.883 221.328 123.648V123.023H221.297C220.958 123.398 220.594 123.677 220.203 123.859C219.812 124.042 219.336 124.133 218.773 124.133C217.862 124.133 217.195 123.867 216.773 123.336C216.352 122.799 216.141 122.068 216.141 121.141ZM224.461 119.898C224.461 118.674 224.763 117.664 225.367 116.867C225.977 116.065 226.906 115.664 228.156 115.664C229 115.664 229.643 115.815 230.086 116.117C230.534 116.414 230.857 116.719 231.055 117.031C231.164 117.203 231.141 117.341 230.984 117.445L230.492 117.766C230.336 117.875 230.18 117.805 230.023 117.555C229.872 117.315 229.659 117.109 229.383 116.938C229.112 116.766 228.703 116.68 228.156 116.68C227.443 116.68 226.891 116.943 226.5 117.469C226.109 117.995 225.914 118.805 225.914 119.898C225.914 120.992 226.109 121.802 226.5 122.328C226.891 122.854 227.443 123.117 228.156 123.117C228.734 123.117 229.177 123.008 229.484 122.789C229.792 122.565 230.016 122.323 230.156 122.062C230.292 121.818 230.445 121.747 230.617 121.852L231.141 122.164C231.297 122.258 231.32 122.398 231.211 122.586C231.081 122.81 230.784 123.125 230.32 123.531C229.862 123.932 229.141 124.133 228.156 124.133C226.906 124.133 225.977 123.734 225.367 122.938C224.763 122.135 224.461 121.122 224.461 119.898ZM233.273 124C233.039 124 232.922 123.883 232.922 123.648V112.82C232.922 112.586 233.039 112.469 233.273 112.469H233.945C234.18 112.469 234.297 112.586 234.297 112.82V119.32C234.297 119.477 234.292 119.633 234.281 119.789H234.297L237.461 116C237.576 115.865 237.714 115.797 237.875 115.797H238.586C238.982 115.797 239.049 115.951 238.789 116.258L236.336 119.18L239.141 123.539C239.339 123.846 239.271 124 238.938 124H238.172C238 124 237.852 123.904 237.727 123.711L235.477 120.203L234.297 121.609V123.648C234.297 123.883 234.18 124 233.945 124H233.273ZM240.195 116.18C240.102 115.924 240.172 115.797 240.406 115.797H241.258C241.43 115.797 241.547 115.898 241.609 116.102L243.25 121.258C243.297 121.398 243.367 121.62 243.461 121.922C243.56 122.219 243.63 122.484 243.672 122.719H243.688C243.729 122.484 243.779 122.273 243.836 122.086C243.898 121.893 243.99 121.617 244.109 121.258L245.766 116.102C245.833 115.898 245.951 115.797 246.117 115.797H246.969C247.203 115.797 247.273 115.924 247.18 116.18L244.547 123.523C244.052 124.904 243.609 125.87 243.219 126.422C242.828 126.979 242.245 127.258 241.469 127.258C241.062 127.258 240.74 127.198 240.5 127.078C240.391 127.026 240.354 126.945 240.391 126.836L240.594 126.203C240.63 126.094 240.701 126.062 240.805 126.109C241.018 126.198 241.224 126.242 241.422 126.242C241.786 126.242 242.083 126.044 242.312 125.648C242.542 125.258 242.724 124.865 242.859 124.469L243.016 124.008L240.195 116.18ZM254.18 127.125C253.945 127.125 253.828 127.008 253.828 126.773V116.148C253.828 115.914 253.945 115.797 254.18 115.797H254.836C255.023 115.797 255.125 115.914 255.141 116.148L255.188 116.773H255.203C255.49 116.43 255.812 116.159 256.172 115.961C256.531 115.763 257.01 115.664 257.609 115.664C258.651 115.664 259.443 116.091 259.984 116.945C260.526 117.794 260.797 118.779 260.797 119.898C260.797 121.018 260.526 122.005 259.984 122.859C259.443 123.708 258.651 124.133 257.609 124.133C257.01 124.133 256.531 124.034 256.172 123.836C255.812 123.638 255.49 123.367 255.203 123.023H255.188C255.198 123.18 255.203 123.339 255.203 123.5V126.773C255.203 127.008 255.086 127.125 254.852 127.125H254.18ZM255.203 120.797C255.203 121.578 255.388 122.161 255.758 122.547C256.133 122.927 256.602 123.117 257.164 123.117C257.956 123.117 258.516 122.82 258.844 122.227C259.177 121.633 259.344 120.857 259.344 119.898C259.344 118.94 259.177 118.164 258.844 117.57C258.516 116.977 257.956 116.68 257.164 116.68C256.602 116.68 256.133 116.872 255.758 117.258C255.388 117.638 255.203 118.219 255.203 119V120.797ZM262.133 119.898C262.133 118.607 262.456 117.578 263.102 116.812C263.747 116.047 264.672 115.664 265.875 115.664C266.875 115.664 267.703 116.016 268.359 116.719C269.021 117.417 269.352 118.534 269.352 120.07C269.352 120.305 269.245 120.422 269.031 120.422H263.586C263.674 121.427 263.945 122.128 264.398 122.523C264.852 122.914 265.365 123.109 265.938 123.109C266.542 123.109 267.005 123.008 267.328 122.805C267.651 122.602 267.888 122.401 268.039 122.203C268.206 121.984 268.367 121.943 268.523 122.078L268.984 122.477C269.104 122.581 269.104 122.724 268.984 122.906C268.885 123.057 268.602 123.299 268.133 123.633C267.669 123.966 266.938 124.133 265.938 124.133C264.635 124.133 263.674 123.75 263.055 122.984C262.44 122.219 262.133 121.19 262.133 119.898ZM263.555 119.406H267.969C267.948 118.677 267.76 118.039 267.406 117.492C267.052 116.94 266.531 116.664 265.844 116.664C265.24 116.664 264.727 116.867 264.305 117.273C263.883 117.674 263.633 118.385 263.555 119.406ZM271.508 124C271.273 124 271.156 123.883 271.156 123.648V116.148C271.156 115.914 271.273 115.797 271.508 115.797H272.164C272.398 115.797 272.516 115.914 272.516 116.148V117.086H272.547C272.797 116.617 273.091 116.263 273.43 116.023C273.768 115.784 274.19 115.664 274.695 115.664C275.029 115.664 275.263 115.693 275.398 115.75C275.518 115.797 275.562 115.875 275.531 115.984L275.352 116.625C275.326 116.719 275.258 116.755 275.148 116.734C274.966 116.698 274.794 116.68 274.633 116.68C274.023 116.68 273.521 116.956 273.125 117.508C272.729 118.055 272.531 118.802 272.531 119.75V123.648C272.531 123.883 272.414 124 272.18 124H271.508ZM276.477 123.234C276.315 123.083 276.281 122.943 276.375 122.812L276.727 122.32C276.841 122.164 277.01 122.172 277.234 122.344C277.542 122.578 277.883 122.766 278.258 122.906C278.638 123.047 279.07 123.117 279.555 123.117C279.841 123.117 280.096 123.083 280.32 123.016C280.544 122.943 280.74 122.81 280.906 122.617C281.078 122.424 281.164 122.167 281.164 121.844C281.164 121.656 281.122 121.479 281.039 121.312C280.961 121.146 280.836 121.013 280.664 120.914C280.497 120.81 280.333 120.729 280.172 120.672C279.906 120.573 279.641 120.492 279.375 120.43C279.115 120.362 278.771 120.26 278.344 120.125C278.057 120.036 277.786 119.911 277.531 119.75C277.276 119.583 277.052 119.359 276.859 119.078C276.672 118.797 276.578 118.409 276.578 117.914C276.578 117.409 276.732 116.974 277.039 116.609C277.346 116.245 277.732 115.997 278.195 115.867C278.659 115.732 279.109 115.664 279.547 115.664C280.193 115.664 280.711 115.74 281.102 115.891C281.497 116.036 281.839 116.211 282.125 116.414C282.292 116.534 282.315 116.672 282.195 116.828L281.844 117.297C281.734 117.448 281.565 117.443 281.336 117.281C281.143 117.146 280.87 117.018 280.516 116.898C280.161 116.779 279.852 116.719 279.586 116.719C279.258 116.719 278.977 116.755 278.742 116.828C278.508 116.901 278.318 117.026 278.172 117.203C278.026 117.38 277.953 117.589 277.953 117.828C277.953 118.01 277.982 118.174 278.039 118.32C278.096 118.461 278.203 118.591 278.359 118.711C278.516 118.831 278.734 118.927 279.016 119C279.453 119.115 279.852 119.219 280.211 119.312C280.576 119.406 280.904 119.521 281.195 119.656C281.576 119.833 281.867 120.029 282.07 120.242C282.279 120.456 282.422 120.688 282.5 120.938C282.578 121.182 282.617 121.456 282.617 121.758C282.617 122.315 282.451 122.786 282.117 123.172C281.789 123.557 281.422 123.815 281.016 123.945C280.609 124.07 280.12 124.133 279.547 124.133C278.771 124.133 278.104 124.023 277.547 123.805C276.995 123.581 276.638 123.391 276.477 123.234ZM283.727 119.898C283.727 118.674 284.049 117.664 284.695 116.867C285.346 116.065 286.297 115.664 287.547 115.664C288.797 115.664 289.745 116.065 290.391 116.867C291.042 117.664 291.367 118.674 291.367 119.898C291.367 121.122 291.042 122.135 290.391 122.938C289.745 123.734 288.797 124.133 287.547 124.133C286.297 124.133 285.346 123.734 284.695 122.938C284.049 122.135 283.727 121.122 283.727 119.898ZM285.18 119.898C285.18 120.992 285.396 121.802 285.828 122.328C286.26 122.854 286.833 123.117 287.547 123.117C288.26 123.117 288.833 122.854 289.266 122.328C289.698 121.802 289.914 120.992 289.914 119.898C289.914 118.805 289.698 117.995 289.266 117.469C288.833 116.943 288.26 116.68 287.547 116.68C286.833 116.68 286.26 116.943 285.828 117.469C285.396 117.995 285.18 118.805 285.18 119.898ZM293.492 124C293.258 124 293.141 123.883 293.141 123.648V116.148C293.141 115.914 293.258 115.797 293.492 115.797H294.148C294.383 115.797 294.5 115.914 294.5 116.148V116.773H294.531C294.87 116.398 295.234 116.12 295.625 115.938C296.016 115.755 296.503 115.664 297.086 115.664C298.034 115.664 298.714 115.932 299.125 116.469C299.542 117 299.75 117.729 299.75 118.656V123.648C299.75 123.883 299.633 124 299.398 124H298.727C298.492 124 298.375 123.883 298.375 123.648V119.031C298.375 118.01 298.206 117.365 297.867 117.094C297.529 116.818 297.099 116.68 296.578 116.68C295.901 116.68 295.388 116.883 295.039 117.289C294.69 117.69 294.516 118.38 294.516 119.359V123.648C294.516 123.883 294.398 124 294.164 124H293.492Z" fill="white"/>
<path d="M154.471 168V144.8H151.271V140H160.071V168H154.471ZM175.957 168H168.317C166.531 166.213 165.237 164.107 164.437 161.68C163.664 159.253 163.277 156.827 163.277 154.4C163.277 148.187 164.957 143.387 168.317 140H175.957C177.717 141.787 178.997 143.893 179.797 146.32C180.597 148.72 180.997 151.12 180.997 153.52C180.997 159.813 179.317 164.64 175.957 168ZM173.877 144.8H170.437C169.264 147.2 168.677 150.253 168.677 153.96C168.677 157.667 169.251 160.8 170.397 163.36H173.917C175.064 160.427 175.637 157.2 175.637 153.68C175.637 150.16 175.051 147.2 173.877 144.8ZM183.604 168V162.08H189.364V164.44C189.364 166.44 189.137 168.053 188.684 169.28C188.231 170.507 187.324 172.067 185.964 173.96L183.644 172.84C184.924 170.867 185.697 169.253 185.964 168H183.604ZM204.629 168H196.989C195.203 166.213 193.909 164.107 193.109 161.68C192.336 159.253 191.949 156.827 191.949 154.4C191.949 148.187 193.629 143.387 196.989 140H204.629C206.389 141.787 207.669 143.893 208.469 146.32C209.269 148.72 209.669 151.12 209.669 153.52C209.669 159.813 207.989 164.64 204.629 168ZM202.549 144.8H199.109C197.936 147.2 197.349 150.253 197.349 153.96C197.349 157.667 197.923 160.8 199.069 163.36H202.589C203.736 160.427 204.309 157.2 204.309 153.68C204.309 150.16 203.723 147.2 202.549 144.8ZM224.356 168H216.716C214.929 166.213 213.636 164.107 212.836 161.68C212.062 159.253 211.676 156.827 211.676 154.4C211.676 148.187 213.356 143.387 216.716 140H224.356C226.116 141.787 227.396 143.893 228.196 146.32C228.996 148.72 229.396 151.12 229.396 153.52C229.396 159.813 227.716 164.64 224.356 168ZM222.276 144.8H218.836C217.662 147.2 217.076 150.253 217.076 153.96C217.076 157.667 217.649 160.8 218.796 163.36H222.316C223.462 160.427 224.036 157.2 224.036 153.68C224.036 150.16 223.449 147.2 222.276 144.8ZM244.082 168H236.442C234.656 166.213 233.362 164.107 232.562 161.68C231.789 159.253 231.402 156.827 231.402 154.4C231.402 148.187 233.082 143.387 236.442 140H244.082C245.842 141.787 247.122 143.893 247.922 146.32C248.722 148.72 249.122 151.12 249.122 153.52C249.122 159.813 247.442 164.64 244.082 168ZM242.002 144.8H238.562C237.389 147.2 236.802 150.253 236.802 153.96C236.802 157.667 237.376 160.8 238.522 163.36H242.042C243.189 160.427 243.762 157.2 243.762 153.68C243.762 150.16 243.176 147.2 242.002 144.8Z" fill="#D3AF37"/>
<rect x="26" y="26" width="348" height="168" stroke="#D3AF37" stroke-width="2"/>
<path d="M170 50L171.123 53.4549H174.755L171.816 55.5902L172.939 59.0451L170 56.9098L167.061 59.0451L168.184 55.5902L165.245 53.4549H168.877L170 50Z" fill="#D9D9D9"/>
<path d="M184 50L185.123 53.4549H188.755L185.816 55.5902L186.939 59.0451L184 56.9098L181.061 59.0451L182.184 55.5902L179.245 53.4549H182.877L184 50Z" fill="#D9D9D9"/>
<path d="M198 50L199.123 53.4549H202.755L199.816 55.5902L200.939 59.0451L198 56.9098L195.061 59.0451L196.184 55.5902L193.245 53.4549H196.877L198 50Z" fill="#D9D9D9"/>
<path d="M212 50L213.123 53.4549H216.755L213.816 55.5902L214.939 59.0451L212 56.9098L209.061 59.0451L210.184 55.5902L207.245 53.4549H210.877L212 50Z" fill="#D9D9D9"/>
<path d="M226 50L227.123 53.4549H230.755L227.816 55.5902L228.939 59.0451L226 56.9098L223.061 59.0451L224.184 55.5902L221.245 53.4549H224.877L226 50Z" fill="#D9D9D9"/>
<rect x="1" y="1" width="398" height="213" stroke="#D3AF37" stroke-width="2"/>
<defs>
<linearGradient id="paint0_linear_5_3" x1="-4.17278e-06" y1="50.7132" x2="417.609" y2="273.005" gradientUnits="userSpaceOnUse">
<stop stop-color="#1E1E1E"/>
<stop offset="0.8093" stop-color="#3E2E25"/>
</linearGradient>
</defs>
</svg>
