<svg width="400" height="220" viewBox="0 0 400 220" fill="none" xmlns="http://www.w3.org/2000/svg">
<g clip-path="url(#clip0_11_55)">
<rect width="400" height="220" rx="10" fill="url(#paint0_linear_11_55)"/>
<path d="M153.675 80.2H153.515H153.675L155.795 71.44L157.515 65H162.515L164.315 93H159.075L158.315 77.72H158.115L155.235 89H151.955L149.075 77.72H148.875L148.115 93H142.875L144.675 65H149.675L151.395 71.44L153.515 80.2H153.675ZM167.337 93V72.56H172.617V93H167.337ZM167.337 65H172.617V70.4H167.337V65ZM184.928 72.56H189.168C190.341 74.0533 191.141 75.5467 191.568 77.04C191.995 78.5333 192.208 80.4 192.208 82.64V93H186.888V82.24C186.888 79.7067 186.541 77.88 185.848 76.76H181.368V93H176.048V72.56H180.208L180.928 74C181.515 73.4667 182.061 73.0933 182.568 72.88C183.101 72.6667 183.888 72.56 184.928 72.56ZM195.501 93V72.56H200.781V93H195.501ZM195.501 65H200.781V70.4H195.501V65ZM206.212 72.56H215.052V76.76H208.812L212.612 82.4C214.319 84.8267 215.266 86.4933 215.452 87.4C215.559 87.8267 215.612 88.2667 215.612 88.72C215.612 90.6133 214.906 92.04 213.492 93H203.292V88.8H210.612L206.332 82.52C206.146 82.2267 205.852 81.8133 205.452 81.28C205.079 80.7467 204.786 80.32 204.572 80C204.359 79.6533 204.212 79.4 204.132 79.24C204.052 79.08 203.946 78.88 203.812 78.64C203.679 78.3733 203.586 78.1467 203.532 77.96C203.426 77.4533 203.372 77.04 203.372 76.72C203.372 74.7733 204.319 73.3867 206.212 72.56ZM219.397 84.08V76.76H216.637V72.56H219.397V67H224.717V72.56H227.997V76.76H224.717V85.36C224.717 86.9867 224.997 88.1333 225.557 88.8H227.997V93H222.317C220.903 91.6933 220.05 90.28 219.757 88.76C219.517 87.48 219.397 85.92 219.397 84.08ZM239.507 76.76H236.507C236.107 77.24 235.774 77.9067 235.507 78.76C235.267 79.6133 235.147 80.44 235.147 81.24H240.867C240.92 80.44 240.814 79.6133 240.547 78.76C240.28 77.88 239.934 77.2133 239.507 76.76ZM244.947 88.8V93H234.787C232.92 91.7467 231.6 90.2 230.827 88.36C230.08 86.4933 229.707 84.6133 229.707 82.72C229.707 78.3467 231.36 74.96 234.667 72.56H241.147C242.934 73.8667 244.147 75.2533 244.787 76.72C245.427 78.1867 245.747 79.6667 245.747 81.16C245.747 82.6533 245.627 83.9333 245.387 85H235.427C235.507 85.6133 235.734 86.32 236.107 87.12C236.507 87.8933 236.934 88.4533 237.387 88.8H244.947ZM248.471 93V72.56H252.271L253.271 74.72C254.338 73.28 255.684 72.56 257.311 72.56H258.871V77.92H253.791V93H248.471Z" fill="#333333"/>
<path d="M35.7188 116.398C35.7188 114.576 36.1693 113.148 37.0703 112.117C37.9766 111.081 39.276 110.562 40.9688 110.562C41.9583 110.562 42.776 110.732 43.4219 111.07C44.0677 111.404 44.5312 111.862 44.8125 112.445C44.9583 112.747 44.9349 112.956 44.7422 113.07L44.125 113.43C43.9167 113.549 43.7318 113.451 43.5703 113.133C43.3984 112.805 43.1172 112.497 42.7266 112.211C42.3359 111.924 41.776 111.781 41.0469 111.781C39.7448 111.781 38.7969 112.188 38.2031 113C37.6146 113.807 37.3203 114.94 37.3203 116.398C37.3203 117.857 37.6146 118.992 38.2031 119.805C38.7969 120.612 39.7448 121.016 41.0469 121.016C41.7969 121.016 42.3958 120.844 42.8438 120.5C43.2969 120.156 43.625 119.797 43.8281 119.422C43.9896 119.12 44.1771 119.029 44.3906 119.148L45.0391 119.516C45.2266 119.625 45.2422 119.833 45.0859 120.141C44.7786 120.74 44.2786 121.24 43.5859 121.641C42.8932 122.036 42.0208 122.234 40.9688 122.234C39.276 122.234 37.9766 121.719 37.0703 120.688C36.1693 119.651 35.7188 118.221 35.7188 116.398ZM47.0469 119.141V114.148C47.0469 113.914 47.1641 113.797 47.3984 113.797H48.0703C48.3047 113.797 48.4219 113.914 48.4219 114.148V118.766C48.4219 119.786 48.5911 120.435 48.9297 120.711C49.2682 120.982 49.6875 121.117 50.1875 121.117C50.8438 121.117 51.3464 120.917 51.6953 120.516C52.0443 120.109 52.2188 119.417 52.2188 118.438V114.148C52.2188 113.914 52.3359 113.797 52.5703 113.797H53.2422C53.4766 113.797 53.5938 113.914 53.5938 114.148V121.648C53.5938 121.883 53.4766 122 53.2422 122H52.5859C52.3516 122 52.2344 121.883 52.2344 121.648V121.023H52.2031C51.8646 121.398 51.5 121.677 51.1094 121.859C50.7188 122.042 50.2422 122.133 49.6797 122.133C48.7682 122.133 48.1016 121.867 47.6797 121.336C47.2578 120.799 47.0469 120.068 47.0469 119.141ZM56.1641 122C55.9297 122 55.8125 121.883 55.8125 121.648V114.148C55.8125 113.914 55.9297 113.797 56.1641 113.797H56.8203C57.0547 113.797 57.1719 113.914 57.1719 114.148V114.773H57.2031C57.5417 114.398 57.9062 114.12 58.2969 113.938C58.6875 113.755 59.1745 113.664 59.7578 113.664C60.7057 113.664 61.3854 113.932 61.7969 114.469C62.2135 115 62.4219 115.729 62.4219 116.656V121.648C62.4219 121.883 62.3047 122 62.0703 122H61.3984C61.1641 122 61.0469 121.883 61.0469 121.648V117.031C61.0469 116.01 60.8776 115.365 60.5391 115.094C60.2005 114.818 59.7708 114.68 59.25 114.68C58.5729 114.68 58.0599 114.883 57.7109 115.289C57.362 115.69 57.1875 116.38 57.1875 117.359V121.648C57.1875 121.883 57.0703 122 56.8359 122H56.1641ZM64.9766 122C64.7422 122 64.625 121.883 64.625 121.648V114.148C64.625 113.914 64.7422 113.797 64.9766 113.797H65.6328C65.8672 113.797 65.9844 113.914 65.9844 114.148V114.773H66.0156C66.3542 114.398 66.7188 114.12 67.1094 113.938C67.5 113.755 67.987 113.664 68.5703 113.664C69.5182 113.664 70.1979 113.932 70.6094 114.469C71.026 115 71.2344 115.729 71.2344 116.656V121.648C71.2344 121.883 71.1172 122 70.8828 122H70.2109C69.9766 122 69.8594 121.883 69.8594 121.648V117.031C69.8594 116.01 69.6901 115.365 69.3516 115.094C69.013 114.818 68.5833 114.68 68.0625 114.68C67.3854 114.68 66.8724 114.883 66.5234 115.289C66.1745 115.69 66 116.38 66 117.359V121.648C66 121.883 65.8828 122 65.6484 122H64.9766ZM73.7891 122C73.5547 122 73.4375 121.883 73.4375 121.648V114.148C73.4375 113.914 73.5547 113.797 73.7891 113.797H74.4609C74.6953 113.797 74.8125 113.914 74.8125 114.148V121.648C74.8125 121.883 74.6953 122 74.4609 122H73.7891ZM73.7891 112.312C73.5547 112.312 73.4375 112.195 73.4375 111.961V111.289C73.4375 111.055 73.5547 110.938 73.7891 110.938H74.4609C74.6953 110.938 74.8125 111.055 74.8125 111.289V111.961C74.8125 112.195 74.6953 112.312 74.4609 112.312H73.7891ZM77.3828 122C77.1484 122 77.0312 121.883 77.0312 121.648V114.148C77.0312 113.914 77.1484 113.797 77.3828 113.797H78.0391C78.2734 113.797 78.3906 113.914 78.3906 114.148V114.773H78.4219C78.7604 114.398 79.125 114.12 79.5156 113.938C79.9062 113.755 80.3932 113.664 80.9766 113.664C81.9245 113.664 82.6042 113.932 83.0156 114.469C83.4323 115 83.6406 115.729 83.6406 116.656V121.648C83.6406 121.883 83.5234 122 83.2891 122H82.6172C82.3828 122 82.2656 121.883 82.2656 121.648V117.031C82.2656 116.01 82.0964 115.365 81.7578 115.094C81.4193 114.818 80.9896 114.68 80.4688 114.68C79.7917 114.68 79.2786 114.883 78.9297 115.289C78.5807 115.69 78.4062 116.38 78.4062 117.359V121.648C78.4062 121.883 78.2891 122 78.0547 122H77.3828ZM85.3984 117.898C85.3984 116.779 85.6693 115.794 86.2109 114.945C86.7526 114.091 87.5443 113.664 88.5859 113.664C89.1849 113.664 89.6641 113.763 90.0234 113.961C90.3828 114.159 90.7057 114.43 90.9922 114.773H91.0078L91.0547 114.148C91.0703 113.914 91.1719 113.797 91.3594 113.797H92.0156C92.25 113.797 92.3672 113.914 92.3672 114.148V122.062C92.3672 123.062 92.1354 123.844 91.6719 124.406C91.2135 124.974 90.3047 125.258 88.9453 125.258C88.0339 125.258 87.3516 125.154 86.8984 124.945C86.4453 124.742 86.1224 124.526 85.9297 124.297C85.7891 124.125 85.7812 123.979 85.9062 123.859L86.3359 123.438C86.4557 123.323 86.6224 123.359 86.8359 123.547C87.112 123.797 87.3776 123.974 87.6328 124.078C87.888 124.188 88.3281 124.242 88.9531 124.242C89.6615 124.242 90.1771 124.091 90.5 123.789C90.8281 123.487 90.9922 122.862 90.9922 121.914V121.445C90.9922 121.284 90.9974 121.125 91.0078 120.969H90.9922C90.7214 121.328 90.401 121.612 90.0312 121.82C89.6667 122.029 89.1849 122.133 88.5859 122.133C87.5443 122.133 86.7526 121.708 86.2109 120.859C85.6693 120.005 85.3984 119.018 85.3984 117.898ZM86.8516 117.898C86.8516 118.857 87.0156 119.633 87.3438 120.227C87.6771 120.82 88.2396 121.117 89.0312 121.117C89.5938 121.117 90.0599 120.927 90.4297 120.547C90.8047 120.161 90.9922 119.578 90.9922 118.797V117C90.9922 116.219 90.8047 115.638 90.4297 115.258C90.0599 114.872 89.5938 114.68 89.0312 114.68C88.2396 114.68 87.6771 114.977 87.3438 115.57C87.0156 116.164 86.8516 116.94 86.8516 117.898ZM100.273 122C100.039 122 99.9219 121.883 99.9219 121.648V114.148C99.9219 113.914 100.039 113.797 100.273 113.797H100.93C101.164 113.797 101.281 113.914 101.281 114.148V114.773H101.312C101.651 114.398 102.018 114.12 102.414 113.938C102.81 113.755 103.19 113.664 103.555 113.664C104.227 113.664 104.742 113.833 105.102 114.172C105.466 114.505 105.701 114.841 105.805 115.18H105.836C106.122 114.753 106.484 114.393 106.922 114.102C107.359 113.81 107.826 113.664 108.32 113.664C109.148 113.664 109.773 113.932 110.195 114.469C110.617 115 110.828 115.729 110.828 116.656V121.648C110.828 121.883 110.711 122 110.477 122H109.805C109.57 122 109.453 121.883 109.453 121.648V117.109C109.453 116.089 109.326 115.43 109.07 115.133C108.815 114.831 108.422 114.68 107.891 114.68C107.37 114.68 106.935 114.904 106.586 115.352C106.237 115.794 106.062 116.464 106.062 117.359V121.648C106.062 121.883 105.945 122 105.711 122H105.039C104.805 122 104.688 121.883 104.688 121.648V117.109C104.688 116.089 104.56 115.43 104.305 115.133C104.049 114.831 103.656 114.68 103.125 114.68C102.604 114.68 102.169 114.883 101.82 115.289C101.471 115.69 101.297 116.38 101.297 117.359V121.648C101.297 121.883 101.18 122 100.945 122H100.273ZM113.383 122C113.148 122 113.031 121.883 113.031 121.648V114.148C113.031 113.914 113.148 113.797 113.383 113.797H114.055C114.289 113.797 114.406 113.914 114.406 114.148V121.648C114.406 121.883 114.289 122 114.055 122H113.383ZM113.383 112.312C113.148 112.312 113.031 112.195 113.031 111.961V111.289C113.031 111.055 113.148 110.938 113.383 110.938H114.055C114.289 110.938 114.406 111.055 114.406 111.289V111.961C114.406 112.195 114.289 112.312 114.055 112.312H113.383ZM116.977 122C116.742 122 116.625 121.883 116.625 121.648V114.148C116.625 113.914 116.742 113.797 116.977 113.797H117.633C117.867 113.797 117.984 113.914 117.984 114.148V114.773H118.016C118.354 114.398 118.719 114.12 119.109 113.938C119.5 113.755 119.987 113.664 120.57 113.664C121.518 113.664 122.198 113.932 122.609 114.469C123.026 115 123.234 115.729 123.234 116.656V121.648C123.234 121.883 123.117 122 122.883 122H122.211C121.977 122 121.859 121.883 121.859 121.648V117.031C121.859 116.01 121.69 115.365 121.352 115.094C121.013 114.818 120.583 114.68 120.062 114.68C119.385 114.68 118.872 114.883 118.523 115.289C118.174 115.69 118 116.38 118 117.359V121.648C118 121.883 117.883 122 117.648 122H116.977ZM125.789 122C125.555 122 125.438 121.883 125.438 121.648V114.148C125.438 113.914 125.555 113.797 125.789 113.797H126.461C126.695 113.797 126.812 113.914 126.812 114.148V121.648C126.812 121.883 126.695 122 126.461 122H125.789ZM125.789 112.312C125.555 112.312 125.438 112.195 125.438 111.961V111.289C125.438 111.055 125.555 110.938 125.789 110.938H126.461C126.695 110.938 126.812 111.055 126.812 111.289V111.961C126.812 112.195 126.695 112.312 126.461 112.312H125.789ZM128.711 121.234C128.549 121.083 128.516 120.943 128.609 120.812L128.961 120.32C129.076 120.164 129.245 120.172 129.469 120.344C129.776 120.578 130.117 120.766 130.492 120.906C130.872 121.047 131.305 121.117 131.789 121.117C132.076 121.117 132.331 121.083 132.555 121.016C132.779 120.943 132.974 120.81 133.141 120.617C133.312 120.424 133.398 120.167 133.398 119.844C133.398 119.656 133.357 119.479 133.273 119.312C133.195 119.146 133.07 119.013 132.898 118.914C132.732 118.81 132.568 118.729 132.406 118.672C132.141 118.573 131.875 118.492 131.609 118.43C131.349 118.362 131.005 118.26 130.578 118.125C130.292 118.036 130.021 117.911 129.766 117.75C129.51 117.583 129.286 117.359 129.094 117.078C128.906 116.797 128.812 116.409 128.812 115.914C128.812 115.409 128.966 114.974 129.273 114.609C129.581 114.245 129.966 113.997 130.43 113.867C130.893 113.732 131.344 113.664 131.781 113.664C132.427 113.664 132.945 113.74 133.336 113.891C133.732 114.036 134.073 114.211 134.359 114.414C134.526 114.534 134.549 114.672 134.43 114.828L134.078 115.297C133.969 115.448 133.799 115.443 133.57 115.281C133.378 115.146 133.104 115.018 132.75 114.898C132.396 114.779 132.086 114.719 131.82 114.719C131.492 114.719 131.211 114.755 130.977 114.828C130.742 114.901 130.552 115.026 130.406 115.203C130.26 115.38 130.188 115.589 130.188 115.828C130.188 116.01 130.216 116.174 130.273 116.32C130.331 116.461 130.438 116.591 130.594 116.711C130.75 116.831 130.969 116.927 131.25 117C131.688 117.115 132.086 117.219 132.445 117.312C132.81 117.406 133.138 117.521 133.43 117.656C133.81 117.833 134.102 118.029 134.305 118.242C134.513 118.456 134.656 118.688 134.734 118.938C134.812 119.182 134.852 119.456 134.852 119.758C134.852 120.315 134.685 120.786 134.352 121.172C134.023 121.557 133.656 121.815 133.25 121.945C132.844 122.07 132.354 122.133 131.781 122.133C131.005 122.133 130.339 122.023 129.781 121.805C129.229 121.581 128.872 121.391 128.711 121.234ZM136.008 114.828C135.773 114.828 135.656 114.737 135.656 114.555V114.07C135.656 113.888 135.773 113.797 136.008 113.797H136.93V113.094C136.93 112.99 136.956 112.891 137.008 112.797L137.555 111.805C137.654 111.622 137.734 111.531 137.797 111.531H138.07C138.227 111.531 138.305 111.622 138.305 111.805V113.797H139.969C140.203 113.797 140.32 113.888 140.32 114.07V114.555C140.32 114.737 140.203 114.828 139.969 114.828H138.305V119.805C138.305 120.352 138.385 120.708 138.547 120.875C138.714 121.036 138.911 121.117 139.141 121.117C139.318 121.117 139.529 121.065 139.773 120.961C140.023 120.857 140.195 120.768 140.289 120.695C140.383 120.622 140.456 120.646 140.508 120.766L140.766 121.367C140.807 121.471 140.776 121.555 140.672 121.617C140.469 121.737 140.172 121.854 139.781 121.969C139.391 122.078 139 122.133 138.609 122.133C138.068 122.133 137.651 121.938 137.359 121.547C137.073 121.156 136.93 120.604 136.93 119.891V114.828H136.008ZM141.883 117.898C141.883 116.607 142.206 115.578 142.852 114.812C143.497 114.047 144.422 113.664 145.625 113.664C146.625 113.664 147.453 114.016 148.109 114.719C148.771 115.417 149.102 116.534 149.102 118.07C149.102 118.305 148.995 118.422 148.781 118.422H143.336C143.424 119.427 143.695 120.128 144.148 120.523C144.602 120.914 145.115 121.109 145.688 121.109C146.292 121.109 146.755 121.008 147.078 120.805C147.401 120.602 147.638 120.401 147.789 120.203C147.956 119.984 148.117 119.943 148.273 120.078L148.734 120.477C148.854 120.581 148.854 120.724 148.734 120.906C148.635 121.057 148.352 121.299 147.883 121.633C147.419 121.966 146.688 122.133 145.688 122.133C144.385 122.133 143.424 121.75 142.805 120.984C142.19 120.219 141.883 119.19 141.883 117.898ZM143.305 117.406H147.719C147.698 116.677 147.51 116.039 147.156 115.492C146.802 114.94 146.281 114.664 145.594 114.664C144.99 114.664 144.477 114.867 144.055 115.273C143.633 115.674 143.383 116.385 143.305 117.406ZM151.258 122C151.023 122 150.906 121.883 150.906 121.648V114.148C150.906 113.914 151.023 113.797 151.258 113.797H151.914C152.148 113.797 152.266 113.914 152.266 114.148V115.086H152.297C152.547 114.617 152.841 114.263 153.18 114.023C153.518 113.784 153.94 113.664 154.445 113.664C154.779 113.664 155.013 113.693 155.148 113.75C155.268 113.797 155.312 113.875 155.281 113.984L155.102 114.625C155.076 114.719 155.008 114.755 154.898 114.734C154.716 114.698 154.544 114.68 154.383 114.68C153.773 114.68 153.271 114.956 152.875 115.508C152.479 116.055 152.281 116.802 152.281 117.75V121.648C152.281 121.883 152.164 122 151.93 122H151.258ZM161.219 114.18C161.151 113.924 161.221 113.797 161.43 113.797H162.25C162.438 113.797 162.555 113.898 162.602 114.102L163.75 119.258C163.786 119.409 163.841 119.646 163.914 119.969C163.992 120.292 164.047 120.529 164.078 120.68H164.109C164.135 120.534 164.18 120.315 164.242 120.023C164.31 119.732 164.372 119.477 164.43 119.258L165.805 114.102C165.857 113.898 165.974 113.797 166.156 113.797H166.859C167.042 113.797 167.159 113.898 167.211 114.102L168.586 119.258C168.643 119.477 168.703 119.732 168.766 120.023C168.833 120.315 168.88 120.534 168.906 120.68H168.938C168.969 120.529 169.021 120.292 169.094 119.969C169.172 119.646 169.229 119.409 169.266 119.258L170.414 114.102C170.461 113.898 170.578 113.797 170.766 113.797H171.586C171.794 113.797 171.865 113.924 171.797 114.18L169.859 121.523C169.776 121.841 169.635 122 169.438 122H168.5C168.302 122 168.161 121.841 168.078 121.523L166.75 116.359C166.656 115.995 166.596 115.74 166.57 115.594C166.549 115.448 166.531 115.31 166.516 115.18H166.5C166.484 115.31 166.464 115.448 166.438 115.594C166.417 115.74 166.359 115.995 166.266 116.359L164.938 121.523C164.854 121.841 164.714 122 164.516 122H163.578C163.38 122 163.24 121.841 163.156 121.523L161.219 114.18ZM173.508 122C173.273 122 173.156 121.883 173.156 121.648V114.148C173.156 113.914 173.273 113.797 173.508 113.797H174.18C174.414 113.797 174.531 113.914 174.531 114.148V121.648C174.531 121.883 174.414 122 174.18 122H173.508ZM173.508 112.312C173.273 112.312 173.156 112.195 173.156 111.961V111.289C173.156 111.055 173.273 110.938 173.508 110.938H174.18C174.414 110.938 174.531 111.055 174.531 111.289V111.961C174.531 112.195 174.414 112.312 174.18 112.312H173.508ZM176.305 117.898C176.305 116.607 176.628 115.578 177.273 114.812C177.919 114.047 178.844 113.664 180.047 113.664C181.047 113.664 181.875 114.016 182.531 114.719C183.193 115.417 183.523 116.534 183.523 118.07C183.523 118.305 183.417 118.422 183.203 118.422H177.758C177.846 119.427 178.117 120.128 178.57 120.523C179.023 120.914 179.536 121.109 180.109 121.109C180.714 121.109 181.177 121.008 181.5 120.805C181.823 120.602 182.06 120.401 182.211 120.203C182.378 119.984 182.539 119.943 182.695 120.078L183.156 120.477C183.276 120.581 183.276 120.724 183.156 120.906C183.057 121.057 182.773 121.299 182.305 121.633C181.841 121.966 181.109 122.133 180.109 122.133C178.807 122.133 177.846 121.75 177.227 120.984C176.612 120.219 176.305 119.19 176.305 117.898ZM177.727 117.406H182.141C182.12 116.677 181.932 116.039 181.578 115.492C181.224 114.94 180.703 114.664 180.016 114.664C179.411 114.664 178.898 114.867 178.477 115.273C178.055 115.674 177.805 116.385 177.727 117.406ZM185.68 122C185.445 122 185.328 121.883 185.328 121.648V111.898C185.328 111.794 185.354 111.695 185.406 111.602L185.953 110.609C186.052 110.427 186.133 110.336 186.195 110.336H186.469C186.625 110.336 186.703 110.427 186.703 110.609V121.648C186.703 121.883 186.586 122 186.352 122H185.68ZM188.477 117.898C188.477 116.779 188.747 115.794 189.289 114.945C189.831 114.091 190.622 113.664 191.664 113.664C192.263 113.664 192.742 113.763 193.102 113.961C193.461 114.159 193.784 114.43 194.07 114.773H194.086C194.076 114.617 194.07 114.458 194.07 114.297V110.82C194.07 110.586 194.188 110.469 194.422 110.469H195.094C195.328 110.469 195.445 110.586 195.445 110.82V121.648C195.445 121.883 195.328 122 195.094 122H194.438C194.25 122 194.148 121.883 194.133 121.648L194.086 121.023H194.07C193.784 121.367 193.461 121.638 193.102 121.836C192.742 122.034 192.263 122.133 191.664 122.133C190.622 122.133 189.831 121.708 189.289 120.859C188.747 120.005 188.477 119.018 188.477 117.898ZM189.93 117.898C189.93 118.857 190.094 119.633 190.422 120.227C190.755 120.82 191.318 121.117 192.109 121.117C192.672 121.117 193.138 120.927 193.508 120.547C193.883 120.161 194.07 119.578 194.07 118.797V117C194.07 116.219 193.883 115.638 193.508 115.258C193.138 114.872 192.672 114.68 192.109 114.68C191.318 114.68 190.755 114.977 190.422 115.57C190.094 116.164 189.93 116.94 189.93 117.898ZM197.352 121.234C197.19 121.083 197.156 120.943 197.25 120.812L197.602 120.32C197.716 120.164 197.885 120.172 198.109 120.344C198.417 120.578 198.758 120.766 199.133 120.906C199.513 121.047 199.945 121.117 200.43 121.117C200.716 121.117 200.971 121.083 201.195 121.016C201.419 120.943 201.615 120.81 201.781 120.617C201.953 120.424 202.039 120.167 202.039 119.844C202.039 119.656 201.997 119.479 201.914 119.312C201.836 119.146 201.711 119.013 201.539 118.914C201.372 118.81 201.208 118.729 201.047 118.672C200.781 118.573 200.516 118.492 200.25 118.43C199.99 118.362 199.646 118.26 199.219 118.125C198.932 118.036 198.661 117.911 198.406 117.75C198.151 117.583 197.927 117.359 197.734 117.078C197.547 116.797 197.453 116.409 197.453 115.914C197.453 115.409 197.607 114.974 197.914 114.609C198.221 114.245 198.607 113.997 199.07 113.867C199.534 113.732 199.984 113.664 200.422 113.664C201.068 113.664 201.586 113.74 201.977 113.891C202.372 114.036 202.714 114.211 203 114.414C203.167 114.534 203.19 114.672 203.07 114.828L202.719 115.297C202.609 115.448 202.44 115.443 202.211 115.281C202.018 115.146 201.745 115.018 201.391 114.898C201.036 114.779 200.727 114.719 200.461 114.719C200.133 114.719 199.852 114.755 199.617 114.828C199.383 114.901 199.193 115.026 199.047 115.203C198.901 115.38 198.828 115.589 198.828 115.828C198.828 116.01 198.857 116.174 198.914 116.32C198.971 116.461 199.078 116.591 199.234 116.711C199.391 116.831 199.609 116.927 199.891 117C200.328 117.115 200.727 117.219 201.086 117.312C201.451 117.406 201.779 117.521 202.07 117.656C202.451 117.833 202.742 118.029 202.945 118.242C203.154 118.456 203.297 118.688 203.375 118.938C203.453 119.182 203.492 119.456 203.492 119.758C203.492 120.315 203.326 120.786 202.992 121.172C202.664 121.557 202.297 121.815 201.891 121.945C201.484 122.07 200.995 122.133 200.422 122.133C199.646 122.133 198.979 122.023 198.422 121.805C197.87 121.581 197.513 121.391 197.352 121.234ZM210.727 125.125C210.492 125.125 210.375 125.008 210.375 124.773V114.148C210.375 113.914 210.492 113.797 210.727 113.797H211.383C211.57 113.797 211.672 113.914 211.688 114.148L211.734 114.773H211.75C212.036 114.43 212.359 114.159 212.719 113.961C213.078 113.763 213.557 113.664 214.156 113.664C215.198 113.664 215.99 114.091 216.531 114.945C217.073 115.794 217.344 116.779 217.344 117.898C217.344 119.018 217.073 120.005 216.531 120.859C215.99 121.708 215.198 122.133 214.156 122.133C213.557 122.133 213.078 122.034 212.719 121.836C212.359 121.638 212.036 121.367 211.75 121.023H211.734C211.745 121.18 211.75 121.339 211.75 121.5V124.773C211.75 125.008 211.633 125.125 211.398 125.125H210.727ZM211.75 118.797C211.75 119.578 211.935 120.161 212.305 120.547C212.68 120.927 213.148 121.117 213.711 121.117C214.503 121.117 215.062 120.82 215.391 120.227C215.724 119.633 215.891 118.857 215.891 117.898C215.891 116.94 215.724 116.164 215.391 115.57C215.062 114.977 214.503 114.68 213.711 114.68C213.148 114.68 212.68 114.872 212.305 115.258C211.935 115.638 211.75 116.219 211.75 117V118.797ZM218.68 117.898C218.68 116.674 219.003 115.664 219.648 114.867C220.299 114.065 221.25 113.664 222.5 113.664C223.75 113.664 224.698 114.065 225.344 114.867C225.995 115.664 226.32 116.674 226.32 117.898C226.32 119.122 225.995 120.135 225.344 120.938C224.698 121.734 223.75 122.133 222.5 122.133C221.25 122.133 220.299 121.734 219.648 120.938C219.003 120.135 218.68 119.122 218.68 117.898ZM220.133 117.898C220.133 118.992 220.349 119.802 220.781 120.328C221.214 120.854 221.786 121.117 222.5 121.117C223.214 121.117 223.786 120.854 224.219 120.328C224.651 119.802 224.867 118.992 224.867 117.898C224.867 116.805 224.651 115.995 224.219 115.469C223.786 114.943 223.214 114.68 222.5 114.68C221.786 114.68 221.214 114.943 220.781 115.469C220.349 115.995 220.133 116.805 220.133 117.898ZM227.438 114.18C227.37 113.924 227.44 113.797 227.648 113.797H228.469C228.656 113.797 228.773 113.898 228.82 114.102L229.969 119.258C230.005 119.409 230.06 119.646 230.133 119.969C230.211 120.292 230.266 120.529 230.297 120.68H230.328C230.354 120.534 230.398 120.315 230.461 120.023C230.529 119.732 230.591 119.477 230.648 119.258L232.023 114.102C232.076 113.898 232.193 113.797 232.375 113.797H233.078C233.26 113.797 233.378 113.898 233.43 114.102L234.805 119.258C234.862 119.477 234.922 119.732 234.984 120.023C235.052 120.315 235.099 120.534 235.125 120.68H235.156C235.188 120.529 235.24 120.292 235.312 119.969C235.391 119.646 235.448 119.409 235.484 119.258L236.633 114.102C236.68 113.898 236.797 113.797 236.984 113.797H237.805C238.013 113.797 238.083 113.924 238.016 114.18L236.078 121.523C235.995 121.841 235.854 122 235.656 122H234.719C234.521 122 234.38 121.841 234.297 121.523L232.969 116.359C232.875 115.995 232.815 115.74 232.789 115.594C232.768 115.448 232.75 115.31 232.734 115.18H232.719C232.703 115.31 232.682 115.448 232.656 115.594C232.635 115.74 232.578 115.995 232.484 116.359L231.156 121.523C231.073 121.841 230.932 122 230.734 122H229.797C229.599 122 229.458 121.841 229.375 121.523L227.438 114.18ZM238.93 117.898C238.93 116.607 239.253 115.578 239.898 114.812C240.544 114.047 241.469 113.664 242.672 113.664C243.672 113.664 244.5 114.016 245.156 114.719C245.818 115.417 246.148 116.534 246.148 118.07C246.148 118.305 246.042 118.422 245.828 118.422H240.383C240.471 119.427 240.742 120.128 241.195 120.523C241.648 120.914 242.161 121.109 242.734 121.109C243.339 121.109 243.802 121.008 244.125 120.805C244.448 120.602 244.685 120.401 244.836 120.203C245.003 119.984 245.164 119.943 245.32 120.078L245.781 120.477C245.901 120.581 245.901 120.724 245.781 120.906C245.682 121.057 245.398 121.299 244.93 121.633C244.466 121.966 243.734 122.133 242.734 122.133C241.432 122.133 240.471 121.75 239.852 120.984C239.237 120.219 238.93 119.19 238.93 117.898ZM240.352 117.406H244.766C244.745 116.677 244.557 116.039 244.203 115.492C243.849 114.94 243.328 114.664 242.641 114.664C242.036 114.664 241.523 114.867 241.102 115.273C240.68 115.674 240.43 116.385 240.352 117.406ZM248.305 122C248.07 122 247.953 121.883 247.953 121.648V114.148C247.953 113.914 248.07 113.797 248.305 113.797H248.961C249.195 113.797 249.312 113.914 249.312 114.148V115.086H249.344C249.594 114.617 249.888 114.263 250.227 114.023C250.565 113.784 250.987 113.664 251.492 113.664C251.826 113.664 252.06 113.693 252.195 113.75C252.315 113.797 252.359 113.875 252.328 113.984L252.148 114.625C252.122 114.719 252.055 114.755 251.945 114.734C251.763 114.698 251.591 114.68 251.43 114.68C250.82 114.68 250.318 114.956 249.922 115.508C249.526 116.055 249.328 116.802 249.328 117.75V121.648C249.328 121.883 249.211 122 248.977 122H248.305ZM252.281 122C252.047 122 251.93 121.883 251.93 121.648V120.695C251.93 120.461 252.047 120.344 252.281 120.344H253.188C253.422 120.344 253.539 120.461 253.539 120.695V121.648C253.539 122.195 253.479 122.672 253.359 123.078C253.245 123.49 253.016 123.849 252.672 124.156C252.557 124.255 252.461 124.268 252.383 124.195L252.031 123.867C251.953 123.794 251.971 123.706 252.086 123.602C252.263 123.445 252.406 123.219 252.516 122.922C252.63 122.63 252.688 122.323 252.688 122H252.281ZM261.484 119.141V114.148C261.484 113.914 261.602 113.797 261.836 113.797H262.508C262.742 113.797 262.859 113.914 262.859 114.148V118.766C262.859 119.786 263.029 120.435 263.367 120.711C263.706 120.982 264.125 121.117 264.625 121.117C265.281 121.117 265.784 120.917 266.133 120.516C266.482 120.109 266.656 119.417 266.656 118.438V114.148C266.656 113.914 266.773 113.797 267.008 113.797H267.68C267.914 113.797 268.031 113.914 268.031 114.148V121.648C268.031 121.883 267.914 122 267.68 122H267.023C266.789 122 266.672 121.883 266.672 121.648V121.023H266.641C266.302 121.398 265.938 121.677 265.547 121.859C265.156 122.042 264.68 122.133 264.117 122.133C263.206 122.133 262.539 121.867 262.117 121.336C261.695 120.799 261.484 120.068 261.484 119.141ZM270.602 122C270.367 122 270.25 121.883 270.25 121.648V114.148C270.25 113.914 270.367 113.797 270.602 113.797H271.258C271.492 113.797 271.609 113.914 271.609 114.148V114.773H271.641C271.979 114.398 272.344 114.12 272.734 113.938C273.125 113.755 273.612 113.664 274.195 113.664C275.143 113.664 275.823 113.932 276.234 114.469C276.651 115 276.859 115.729 276.859 116.656V121.648C276.859 121.883 276.742 122 276.508 122H275.836C275.602 122 275.484 121.883 275.484 121.648V117.031C275.484 116.01 275.315 115.365 274.977 115.094C274.638 114.818 274.208 114.68 273.688 114.68C273.01 114.68 272.497 114.883 272.148 115.289C271.799 115.69 271.625 116.38 271.625 117.359V121.648C271.625 121.883 271.508 122 271.273 122H270.602ZM278.742 121.234C278.581 121.083 278.547 120.943 278.641 120.812L278.992 120.32C279.107 120.164 279.276 120.172 279.5 120.344C279.807 120.578 280.148 120.766 280.523 120.906C280.904 121.047 281.336 121.117 281.82 121.117C282.107 121.117 282.362 121.083 282.586 121.016C282.81 120.943 283.005 120.81 283.172 120.617C283.344 120.424 283.43 120.167 283.43 119.844C283.43 119.656 283.388 119.479 283.305 119.312C283.227 119.146 283.102 119.013 282.93 118.914C282.763 118.81 282.599 118.729 282.438 118.672C282.172 118.573 281.906 118.492 281.641 118.43C281.38 118.362 281.036 118.26 280.609 118.125C280.323 118.036 280.052 117.911 279.797 117.75C279.542 117.583 279.318 117.359 279.125 117.078C278.938 116.797 278.844 116.409 278.844 115.914C278.844 115.409 278.997 114.974 279.305 114.609C279.612 114.245 279.997 113.997 280.461 113.867C280.924 113.732 281.375 113.664 281.812 113.664C282.458 113.664 282.977 113.74 283.367 113.891C283.763 114.036 284.104 114.211 284.391 114.414C284.557 114.534 284.581 114.672 284.461 114.828L284.109 115.297C284 115.448 283.831 115.443 283.602 115.281C283.409 115.146 283.135 115.018 282.781 114.898C282.427 114.779 282.117 114.719 281.852 114.719C281.523 114.719 281.242 114.755 281.008 114.828C280.773 114.901 280.583 115.026 280.438 115.203C280.292 115.38 280.219 115.589 280.219 115.828C280.219 116.01 280.247 116.174 280.305 116.32C280.362 116.461 280.469 116.591 280.625 116.711C280.781 116.831 281 116.927 281.281 117C281.719 117.115 282.117 117.219 282.477 117.312C282.841 117.406 283.169 117.521 283.461 117.656C283.841 117.833 284.133 118.029 284.336 118.242C284.544 118.456 284.688 118.688 284.766 118.938C284.844 119.182 284.883 119.456 284.883 119.758C284.883 120.315 284.716 120.786 284.383 121.172C284.055 121.557 283.688 121.815 283.281 121.945C282.875 122.07 282.385 122.133 281.812 122.133C281.036 122.133 280.37 122.023 279.812 121.805C279.26 121.581 278.904 121.391 278.742 121.234ZM285.992 117.898C285.992 116.607 286.315 115.578 286.961 114.812C287.607 114.047 288.531 113.664 289.734 113.664C290.734 113.664 291.562 114.016 292.219 114.719C292.88 115.417 293.211 116.534 293.211 118.07C293.211 118.305 293.104 118.422 292.891 118.422H287.445C287.534 119.427 287.805 120.128 288.258 120.523C288.711 120.914 289.224 121.109 289.797 121.109C290.401 121.109 290.865 121.008 291.188 120.805C291.51 120.602 291.747 120.401 291.898 120.203C292.065 119.984 292.227 119.943 292.383 120.078L292.844 120.477C292.964 120.581 292.964 120.724 292.844 120.906C292.745 121.057 292.461 121.299 291.992 121.633C291.529 121.966 290.797 122.133 289.797 122.133C288.495 122.133 287.534 121.75 286.914 120.984C286.299 120.219 285.992 119.19 285.992 117.898ZM287.414 117.406H291.828C291.807 116.677 291.62 116.039 291.266 115.492C290.911 114.94 290.391 114.664 289.703 114.664C289.099 114.664 288.586 114.867 288.164 115.273C287.742 115.674 287.492 116.385 287.414 117.406ZM294.57 117.898C294.57 116.607 294.893 115.578 295.539 114.812C296.185 114.047 297.109 113.664 298.312 113.664C299.312 113.664 300.141 114.016 300.797 114.719C301.458 115.417 301.789 116.534 301.789 118.07C301.789 118.305 301.682 118.422 301.469 118.422H296.023C296.112 119.427 296.383 120.128 296.836 120.523C297.289 120.914 297.802 121.109 298.375 121.109C298.979 121.109 299.443 121.008 299.766 120.805C300.089 120.602 300.326 120.401 300.477 120.203C300.643 119.984 300.805 119.943 300.961 120.078L301.422 120.477C301.542 120.581 301.542 120.724 301.422 120.906C301.323 121.057 301.039 121.299 300.57 121.633C300.107 121.966 299.375 122.133 298.375 122.133C297.073 122.133 296.112 121.75 295.492 120.984C294.878 120.219 294.57 119.19 294.57 117.898ZM295.992 117.406H300.406C300.385 116.677 300.198 116.039 299.844 115.492C299.49 114.94 298.969 114.664 298.281 114.664C297.677 114.664 297.164 114.867 296.742 115.273C296.32 115.674 296.07 116.385 295.992 117.406ZM303.945 122C303.711 122 303.594 121.883 303.594 121.648V114.148C303.594 113.914 303.711 113.797 303.945 113.797H304.602C304.836 113.797 304.953 113.914 304.953 114.148V114.773H304.984C305.323 114.398 305.688 114.12 306.078 113.938C306.469 113.755 306.956 113.664 307.539 113.664C308.487 113.664 309.167 113.932 309.578 114.469C309.995 115 310.203 115.729 310.203 116.656V121.648C310.203 121.883 310.086 122 309.852 122H309.18C308.945 122 308.828 121.883 308.828 121.648V117.031C308.828 116.01 308.659 115.365 308.32 115.094C307.982 114.818 307.552 114.68 307.031 114.68C306.354 114.68 305.841 114.883 305.492 115.289C305.143 115.69 304.969 116.38 304.969 117.359V121.648C304.969 121.883 304.852 122 304.617 122H303.945ZM318.086 122C317.852 122 317.734 121.883 317.734 121.648V110.82C317.734 110.586 317.852 110.469 318.086 110.469H318.758C318.992 110.469 319.109 110.586 319.109 110.82V114.305C319.109 114.461 319.104 114.617 319.094 114.773H319.125C319.464 114.398 319.828 114.12 320.219 113.938C320.609 113.755 321.096 113.664 321.68 113.664C322.628 113.664 323.307 113.932 323.719 114.469C324.135 115 324.344 115.729 324.344 116.656V121.648C324.344 121.883 324.227 122 323.992 122H323.32C323.086 122 322.969 121.883 322.969 121.648V117.031C322.969 116.01 322.799 115.365 322.461 115.094C322.122 114.818 321.693 114.68 321.172 114.68C320.495 114.68 319.982 114.883 319.633 115.289C319.284 115.69 319.109 116.38 319.109 117.359V121.648C319.109 121.883 318.992 122 318.758 122H318.086ZM326.102 119.812C326.102 118.885 326.534 118.206 327.398 117.773C328.268 117.341 329.565 117.089 331.289 117.016V116.484C331.289 115.995 331.177 115.573 330.953 115.219C330.734 114.859 330.297 114.68 329.641 114.68C329.224 114.68 328.891 114.721 328.641 114.805C328.391 114.883 328.161 114.99 327.953 115.125C327.75 115.255 327.555 115.424 327.367 115.633C327.227 115.789 327.094 115.797 326.969 115.656L326.562 115.188C326.448 115.057 326.487 114.901 326.68 114.719C326.956 114.458 327.224 114.263 327.484 114.133C327.745 114.003 328.068 113.893 328.453 113.805C328.844 113.711 329.24 113.664 329.641 113.664C330.729 113.664 331.505 113.945 331.969 114.508C332.432 115.065 332.664 115.831 332.664 116.805V121.648C332.664 121.883 332.547 122 332.312 122H331.609C331.406 122 331.305 121.883 331.305 121.648V121.266H331.289C330.878 121.589 330.474 121.815 330.078 121.945C329.688 122.07 329.25 122.133 328.766 122.133C327.911 122.133 327.253 121.93 326.789 121.523C326.331 121.112 326.102 120.542 326.102 119.812ZM327.523 119.844C327.523 120.167 327.591 120.427 327.727 120.625C327.862 120.818 328.049 120.943 328.289 121C328.529 121.052 328.779 121.078 329.039 121.078C329.44 121.078 329.82 121.039 330.18 120.961C330.539 120.883 330.909 120.677 331.289 120.344V118.039C330.237 118.117 329.487 118.214 329.039 118.328C328.591 118.438 328.227 118.63 327.945 118.906C327.664 119.177 327.523 119.49 327.523 119.844ZM335.242 122C335.008 122 334.891 121.883 334.891 121.648V114.148C334.891 113.914 335.008 113.797 335.242 113.797H335.898C336.133 113.797 336.25 113.914 336.25 114.148V114.773H336.281C336.62 114.398 336.984 114.12 337.375 113.938C337.766 113.755 338.253 113.664 338.836 113.664C339.784 113.664 340.464 113.932 340.875 114.469C341.292 115 341.5 115.729 341.5 116.656V121.648C341.5 121.883 341.383 122 341.148 122H340.477C340.242 122 340.125 121.883 340.125 121.648V117.031C340.125 116.01 339.956 115.365 339.617 115.094C339.279 114.818 338.849 114.68 338.328 114.68C337.651 114.68 337.138 114.883 336.789 115.289C336.44 115.69 336.266 116.38 336.266 117.359V121.648C336.266 121.883 336.148 122 335.914 122H335.242ZM343.258 117.898C343.258 116.779 343.529 115.794 344.07 114.945C344.612 114.091 345.404 113.664 346.445 113.664C347.044 113.664 347.523 113.763 347.883 113.961C348.242 114.159 348.565 114.43 348.852 114.773H348.867C348.857 114.617 348.852 114.458 348.852 114.297V110.82C348.852 110.586 348.969 110.469 349.203 110.469H349.875C350.109 110.469 350.227 110.586 350.227 110.82V121.648C350.227 121.883 350.109 122 349.875 122H349.219C349.031 122 348.93 121.883 348.914 121.648L348.867 121.023H348.852C348.565 121.367 348.242 121.638 347.883 121.836C347.523 122.034 347.044 122.133 346.445 122.133C345.404 122.133 344.612 121.708 344.07 120.859C343.529 120.005 343.258 119.018 343.258 117.898ZM344.711 117.898C344.711 118.857 344.875 119.633 345.203 120.227C345.536 120.82 346.099 121.117 346.891 121.117C347.453 121.117 347.919 120.927 348.289 120.547C348.664 120.161 348.852 119.578 348.852 118.797V117C348.852 116.219 348.664 115.638 348.289 115.258C347.919 114.872 347.453 114.68 346.891 114.68C346.099 114.68 345.536 114.977 345.203 115.57C344.875 116.164 344.711 116.94 344.711 117.898ZM352.133 121.234C351.971 121.083 351.938 120.943 352.031 120.812L352.383 120.32C352.497 120.164 352.667 120.172 352.891 120.344C353.198 120.578 353.539 120.766 353.914 120.906C354.294 121.047 354.727 121.117 355.211 121.117C355.497 121.117 355.753 121.083 355.977 121.016C356.201 120.943 356.396 120.81 356.562 120.617C356.734 120.424 356.82 120.167 356.82 119.844C356.82 119.656 356.779 119.479 356.695 119.312C356.617 119.146 356.492 119.013 356.32 118.914C356.154 118.81 355.99 118.729 355.828 118.672C355.562 118.573 355.297 118.492 355.031 118.43C354.771 118.362 354.427 118.26 354 118.125C353.714 118.036 353.443 117.911 353.188 117.75C352.932 117.583 352.708 117.359 352.516 117.078C352.328 116.797 352.234 116.409 352.234 115.914C352.234 115.409 352.388 114.974 352.695 114.609C353.003 114.245 353.388 113.997 353.852 113.867C354.315 113.732 354.766 113.664 355.203 113.664C355.849 113.664 356.367 113.74 356.758 113.891C357.154 114.036 357.495 114.211 357.781 114.414C357.948 114.534 357.971 114.672 357.852 114.828L357.5 115.297C357.391 115.448 357.221 115.443 356.992 115.281C356.799 115.146 356.526 115.018 356.172 114.898C355.818 114.779 355.508 114.719 355.242 114.719C354.914 114.719 354.633 114.755 354.398 114.828C354.164 114.901 353.974 115.026 353.828 115.203C353.682 115.38 353.609 115.589 353.609 115.828C353.609 116.01 353.638 116.174 353.695 116.32C353.753 116.461 353.859 116.591 354.016 116.711C354.172 116.831 354.391 116.927 354.672 117C355.109 117.115 355.508 117.219 355.867 117.312C356.232 117.406 356.56 117.521 356.852 117.656C357.232 117.833 357.523 118.029 357.727 118.242C357.935 118.456 358.078 118.688 358.156 118.938C358.234 119.182 358.273 119.456 358.273 119.758C358.273 120.315 358.107 120.786 357.773 121.172C357.445 121.557 357.078 121.815 356.672 121.945C356.266 122.07 355.776 122.133 355.203 122.133C354.427 122.133 353.76 122.023 353.203 121.805C352.651 121.581 352.294 121.391 352.133 121.234ZM360.625 122C360.391 122 360.273 121.883 360.273 121.648V120.695C360.273 120.461 360.391 120.344 360.625 120.344H361.5C361.734 120.344 361.852 120.461 361.852 120.695V121.648C361.852 121.883 361.734 122 361.5 122H360.625Z" fill="white"/>
<path d="M159.894 164L167.854 145.08L167.734 144.8H160.734V140H169.374C171.694 140.987 172.854 142.56 172.854 144.72C172.854 145.893 172.56 147.227 171.974 148.72C171.814 149.173 171.68 149.547 171.574 149.84C171.467 150.133 171.294 150.56 171.054 151.12C170.814 151.653 170.64 152.053 170.534 152.32C170.08 153.36 169.654 154.32 169.254 155.2L165.654 163.36H172.654V168H159.894V164ZM175.381 168V162.08H181.141V164.44C181.141 166.44 180.915 168.053 180.461 169.28C180.008 170.507 179.101 172.067 177.741 173.96L175.421 172.84C176.701 170.867 177.475 169.253 177.741 168H175.381ZM196.407 168H188.767C186.98 166.213 185.687 164.107 184.887 161.68C184.113 159.253 183.727 156.827 183.727 154.4C183.727 148.187 185.407 143.387 188.767 140H196.407C198.167 141.787 199.447 143.893 200.247 146.32C201.047 148.72 201.447 151.12 201.447 153.52C201.447 159.813 199.767 164.64 196.407 168ZM194.327 144.8H190.887C189.713 147.2 189.127 150.253 189.127 153.96C189.127 157.667 189.7 160.8 190.847 163.36H194.367C195.513 160.427 196.087 157.2 196.087 153.68C196.087 150.16 195.5 147.2 194.327 144.8ZM216.133 168H208.493C206.706 166.213 205.413 164.107 204.613 161.68C203.84 159.253 203.453 156.827 203.453 154.4C203.453 148.187 205.133 143.387 208.493 140H216.133C217.893 141.787 219.173 143.893 219.973 146.32C220.773 148.72 221.173 151.12 221.173 153.52C221.173 159.813 219.493 164.64 216.133 168ZM214.053 144.8H210.613C209.44 147.2 208.853 150.253 208.853 153.96C208.853 157.667 209.426 160.8 210.573 163.36H214.093C215.24 160.427 215.813 157.2 215.813 153.68C215.813 150.16 215.226 147.2 214.053 144.8ZM235.86 168H228.22C226.433 166.213 225.14 164.107 224.34 161.68C223.566 159.253 223.18 156.827 223.18 154.4C223.18 148.187 224.86 143.387 228.22 140H235.86C237.62 141.787 238.9 143.893 239.7 146.32C240.5 148.72 240.9 151.12 240.9 153.52C240.9 159.813 239.22 164.64 235.86 168ZM233.78 144.8H230.34C229.166 147.2 228.58 150.253 228.58 153.96C228.58 157.667 229.153 160.8 230.3 163.36H233.82C234.966 160.427 235.54 157.2 235.54 153.68C235.54 150.16 234.953 147.2 233.78 144.8Z" fill="#333333"/>
<rect x="26" y="26" width="348" height="168" stroke="#333333" stroke-width="2"/>
<rect x="1" y="1" width="398" height="218" stroke="#333333" stroke-width="2"/>
<path opacity="0.3" d="M6 7C6 5.89543 6.89543 5 8 5H22C23.1046 5 24 5.89543 24 7V21C24 22.1046 23.1046 23 22 23H8C6.89543 23 6 22.1046 6 21V7Z" stroke="#D9D9D9" stroke-width="2"/>
<path d="M13.6905 17.975H15.5205V20H13.6905V17.975ZM13.6905 16.385V15.71C13.6905 14.85 13.9105 13.87 14.3505 12.77C14.5005 12.39 14.5955 12.14 14.6355 12.02C14.6855 11.9 14.7105 11.77 14.7105 11.63C14.7105 11.45 14.6155 11.36 14.4255 11.36H13.1355V9.5H15.6405C16.1005 9.69 16.4255 9.97 16.6155 10.34C16.8055 10.71 16.9005 11.04 16.9005 11.33C16.9005 11.61 16.8655 11.865 16.7955 12.095C16.7355 12.315 16.6755 12.49 16.6155 12.62L15.9555 13.82C15.6655 14.4 15.5205 15.05 15.5205 15.77V16.385H13.6905Z" fill="white"/>
<path opacity="0.3" d="M376 7C376 5.89543 376.895 5 378 5H392C393.105 5 394 5.89543 394 7V21C394 22.1046 393.105 23 392 23H378C376.895 23 376 22.1046 376 21V7Z" stroke="#D9D9D9" stroke-width="2"/>
<path d="M383.691 17.975H385.521V20H383.691V17.975ZM383.691 16.385V15.71C383.691 14.85 383.911 13.87 384.351 12.77C384.501 12.39 384.596 12.14 384.636 12.02C384.686 11.9 384.711 11.77 384.711 11.63C384.711 11.45 384.616 11.36 384.426 11.36H383.136V9.5H385.641C386.101 9.69 386.426 9.97 386.616 10.34C386.806 10.71 386.901 11.04 386.901 11.33C386.901 11.61 386.866 11.865 386.796 12.095C386.736 12.315 386.676 12.49 386.616 12.62L385.956 13.82C385.666 14.4 385.521 15.05 385.521 15.77V16.385H383.691Z" fill="white"/>
<path opacity="0.3" d="M6 198C6 196.895 6.89543 196 8 196H22C23.1046 196 24 196.895 24 198V212C24 213.105 23.1046 214 22 214H8C6.89543 214 6 213.105 6 212V198Z" stroke="#D9D9D9" stroke-width="2"/>
<path d="M13.6905 208.975H15.5205V211H13.6905V208.975ZM13.6905 207.385V206.71C13.6905 205.85 13.9105 204.87 14.3505 203.77C14.5005 203.39 14.5955 203.14 14.6355 203.02C14.6855 202.9 14.7105 202.77 14.7105 202.63C14.7105 202.45 14.6155 202.36 14.4255 202.36H13.1355V200.5H15.6405C16.1005 200.69 16.4255 200.97 16.6155 201.34C16.8055 201.71 16.9005 202.04 16.9005 202.33C16.9005 202.61 16.8655 202.865 16.7955 203.095C16.7355 203.315 16.6755 203.49 16.6155 203.62L15.9555 204.82C15.6655 205.4 15.5205 206.05 15.5205 206.77V207.385H13.6905Z" fill="white"/>
<path opacity="0.3" d="M376 198C376 196.895 376.895 196 378 196H392C393.105 196 394 196.895 394 198V212C394 213.105 393.105 214 392 214H378C376.895 214 376 213.105 376 212V198Z" stroke="#D9D9D9" stroke-width="2"/>
<path d="M383.691 208.975H385.521V211H383.691V208.975ZM383.691 207.385V206.71C383.691 205.85 383.911 204.87 384.351 203.77C384.501 203.39 384.596 203.14 384.636 203.02C384.686 202.9 384.711 202.77 384.711 202.63C384.711 202.45 384.616 202.36 384.426 202.36H383.136V200.5H385.641C386.101 200.69 386.426 200.97 386.616 201.34C386.806 201.71 386.901 202.04 386.901 202.33C386.901 202.61 386.866 202.865 386.796 203.095C386.736 203.315 386.676 203.49 386.616 203.62L385.956 204.82C385.666 205.4 385.521 206.05 385.521 206.77V207.385H383.691Z" fill="white"/>
<path d="M72.3285 71.2096L74.0689 70.6441L74.6947 72.57L72.9542 73.1355L72.3285 71.2096ZM71.8371 69.6974L71.6286 69.0555C71.3628 68.2376 71.2692 67.2375 71.3477 66.0554C71.373 65.6477 71.3861 65.3805 71.387 65.2541C71.3975 65.1245 71.3811 64.9931 71.3378 64.86C71.2822 64.6888 71.1641 64.6325 70.9834 64.6912L69.7565 65.0899L69.1817 63.3209L71.5641 62.5468C72.0603 62.5854 72.4559 62.7512 72.751 63.0444C73.046 63.3376 73.2383 63.6221 73.3279 63.8979C73.4145 64.1642 73.46 64.4175 73.4645 64.6579C73.4754 64.8857 73.4724 65.0707 73.4555 65.2128L73.1987 66.5581C73.1021 67.1993 73.165 67.8623 73.3875 68.547L73.5776 69.1319L71.8371 69.6974Z" fill="white"/>
<path d="M37.9153 172.252L39.4325 173.275L38.3001 174.954L36.783 173.93L37.9153 172.252ZM38.8044 170.933L39.1819 170.374C39.6628 169.661 40.3932 168.971 41.3731 168.305C41.7099 168.074 41.9285 167.92 42.0288 167.843C42.1373 167.772 42.2307 167.678 42.309 167.562C42.4097 167.412 42.3813 167.285 42.2237 167.178L41.1543 166.457L42.1944 164.915L44.2711 166.316C44.5462 166.731 44.6591 167.144 44.6097 167.557C44.5603 167.97 44.4545 168.297 44.2924 168.538C44.1358 168.77 43.9642 168.962 43.7775 169.113C43.6048 169.262 43.4572 169.373 43.3347 169.448L42.1165 170.073C41.5518 170.392 41.0681 170.85 40.6655 171.447L40.3216 171.957L38.8044 170.933Z" fill="white"/>
<path d="M306.028 72.2971L307.43 71.1208L308.732 72.672L307.33 73.8483L306.028 72.2971ZM305.006 71.0791L304.573 70.562C304.02 69.9032 303.558 69.011 303.188 67.8856C303.059 67.4981 302.971 67.2455 302.925 67.1278C302.886 67.0038 302.821 66.8881 302.731 66.7809C302.616 66.643 302.485 66.6351 302.339 66.7572L301.351 67.5864L300.156 66.1616L302.075 64.5514C302.549 64.4013 302.978 64.4069 303.361 64.5682C303.745 64.7295 304.03 64.9212 304.216 65.1434C304.396 65.3579 304.533 65.5757 304.627 65.7969C304.723 66.004 304.789 66.1766 304.827 66.3148L305.093 67.6582C305.243 68.289 305.55 68.8801 306.013 69.4316L306.408 69.9028L305.006 71.0791Z" fill="white"/>
<path d="M345.428 171.471L346.829 172.647L345.528 174.198L344.126 173.022L345.428 171.471ZM346.45 170.253L346.884 169.736C347.436 169.077 348.235 168.468 349.279 167.908C349.638 167.713 349.872 167.583 349.979 167.516C350.095 167.457 350.197 167.373 350.287 167.266C350.403 167.128 350.388 166.998 350.243 166.876L349.254 166.047L350.45 164.622L352.369 166.232C352.599 166.673 352.668 167.097 352.576 167.502C352.484 167.908 352.344 168.222 352.158 168.444C351.978 168.658 351.787 168.831 351.586 168.962C351.398 169.092 351.24 169.188 351.11 169.249L349.833 169.744C349.238 170.002 348.71 170.406 348.247 170.958L347.851 171.429L346.45 170.253Z" fill="white"/>
</g>
<defs>
<linearGradient id="paint0_linear_11_55" x1="-59" y1="-40" x2="521.268" y2="277.144" gradientUnits="userSpaceOnUse">
<stop offset="0.209692" stop-color="#50C878"/>
<stop offset="1" stop-color="#D4AF37"/>
</linearGradient>
<clipPath id="clip0_11_55">
<rect width="400" height="220" rx="10" fill="white"/>
</clipPath>
</defs>
</svg>
