<svg width="400" height="220" viewBox="0 0 400 220" fill="none" xmlns="http://www.w3.org/2000/svg">
<g clip-path="url(#clip0_12_86)">
<rect width="400" height="220" rx="10" fill="#0000FF"/>
<path d="M163.679 69.8V79.8H167.239C168.706 78.6 169.439 76.84 169.439 74.52C169.439 73.5333 169.239 72.6 168.839 71.72C168.466 70.84 168.013 70.2 167.479 69.8H163.679ZM158.279 93V65H169.119C170.933 65.8 172.359 67.0267 173.399 68.68C174.466 70.3333 174.999 72.2667 174.999 74.48C174.999 76.6667 174.453 78.6933 173.359 80.56C172.266 82.4267 170.653 83.7467 168.519 84.52H163.679V93H158.279ZM189.107 93H180.387C177.72 90.52 176.387 87.1333 176.387 82.84C176.387 80.68 176.68 78.8 177.267 77.2C177.88 75.6 178.84 74.0533 180.147 72.56H189.507C190.893 74.16 191.84 75.72 192.347 77.24C192.853 78.7333 193.107 80.6 193.107 82.84C193.107 87.1333 191.773 90.52 189.107 93ZM183.227 88.8H186.267C187.227 86.9333 187.707 84.8133 187.707 82.44C187.707 80.0667 187.213 78.1733 186.227 76.76H183.227C182.267 78.12 181.787 80.0533 181.787 82.56C181.787 85.04 182.267 87.12 183.227 88.8ZM201.25 65V93H195.97V65H201.25ZM204.681 93V72.56H209.961V93H204.681ZM204.681 65H209.961V70.4H204.681V65ZM218.352 82.6C218.352 83.72 218.525 84.8667 218.872 86.04C219.219 87.1867 219.699 88.1067 220.312 88.8H226.312V93H217.552C214.405 90.4933 212.832 87.0267 212.832 82.6C212.832 78.1733 214.512 74.8267 217.872 72.56H226.312V76.76H220.312C219.005 78.12 218.352 80.0667 218.352 82.6ZM237.437 76.76H234.437C234.037 77.24 233.703 77.9067 233.437 78.76C233.197 79.6133 233.077 80.44 233.077 81.24H238.797C238.85 80.44 238.743 79.6133 238.477 78.76C238.21 77.88 237.863 77.2133 237.437 76.76ZM242.877 88.8V93H232.717C230.85 91.7467 229.53 90.2 228.757 88.36C228.01 86.4933 227.637 84.6133 227.637 82.72C227.637 78.3467 229.29 74.96 232.597 72.56H239.077C240.863 73.8667 242.077 75.2533 242.717 76.72C243.357 78.1867 243.677 79.6667 243.677 81.16C243.677 82.6533 243.557 83.9333 243.317 85H233.357C233.437 85.6133 233.663 86.32 234.037 87.12C234.437 87.8933 234.863 88.4533 235.317 88.8H242.877Z" fill="#FF0000"/>
<path d="M85.7578 111.312C85.5339 110.969 85.6042 110.797 85.9688 110.797H86.8438C87.0729 110.797 87.2604 110.924 87.4062 111.18L89.3906 114.594C89.6094 114.969 89.7969 115.297 89.9531 115.578C90.1094 115.854 90.2604 116.148 90.4062 116.461H90.4375C90.5833 116.148 90.7344 115.854 90.8906 115.578C91.0469 115.297 91.2344 114.969 91.4531 114.594L93.4375 111.18C93.5833 110.924 93.7708 110.797 94 110.797H94.875C95.2396 110.797 95.3099 110.969 95.0859 111.312L91.1719 117.391V121.57C91.1719 121.857 91.0417 122 90.7812 122H90.0625C89.8021 122 89.6719 121.857 89.6719 121.57V117.391L85.7578 111.312ZM94.3828 117.898C94.3828 116.674 94.7057 115.664 95.3516 114.867C96.0026 114.065 96.9531 113.664 98.2031 113.664C99.4531 113.664 100.401 114.065 101.047 114.867C101.698 115.664 102.023 116.674 102.023 117.898C102.023 119.122 101.698 120.135 101.047 120.938C100.401 121.734 99.4531 122.133 98.2031 122.133C96.9531 122.133 96.0026 121.734 95.3516 120.938C94.7057 120.135 94.3828 119.122 94.3828 117.898ZM95.8359 117.898C95.8359 118.992 96.0521 119.802 96.4844 120.328C96.9167 120.854 97.4896 121.117 98.2031 121.117C98.9167 121.117 99.4896 120.854 99.9219 120.328C100.354 119.802 100.57 118.992 100.57 117.898C100.57 116.805 100.354 115.995 99.9219 115.469C99.4896 114.943 98.9167 114.68 98.2031 114.68C97.4896 114.68 96.9167 114.943 96.4844 115.469C96.0521 115.995 95.8359 116.805 95.8359 117.898ZM103.781 119.141V114.148C103.781 113.914 103.898 113.797 104.133 113.797H104.805C105.039 113.797 105.156 113.914 105.156 114.148V118.766C105.156 119.786 105.326 120.435 105.664 120.711C106.003 120.982 106.422 121.117 106.922 121.117C107.578 121.117 108.081 120.917 108.43 120.516C108.779 120.109 108.953 119.417 108.953 118.438V114.148C108.953 113.914 109.07 113.797 109.305 113.797H109.977C110.211 113.797 110.328 113.914 110.328 114.148V121.648C110.328 121.883 110.211 122 109.977 122H109.32C109.086 122 108.969 121.883 108.969 121.648V121.023H108.938C108.599 121.398 108.234 121.677 107.844 121.859C107.453 122.042 106.977 122.133 106.414 122.133C105.503 122.133 104.836 121.867 104.414 121.336C103.992 120.799 103.781 120.068 103.781 119.141ZM117.43 119.812C117.43 118.885 117.862 118.206 118.727 117.773C119.596 117.341 120.893 117.089 122.617 117.016V116.484C122.617 115.995 122.505 115.573 122.281 115.219C122.062 114.859 121.625 114.68 120.969 114.68C120.552 114.68 120.219 114.721 119.969 114.805C119.719 114.883 119.49 114.99 119.281 115.125C119.078 115.255 118.883 115.424 118.695 115.633C118.555 115.789 118.422 115.797 118.297 115.656L117.891 115.188C117.776 115.057 117.815 114.901 118.008 114.719C118.284 114.458 118.552 114.263 118.812 114.133C119.073 114.003 119.396 113.893 119.781 113.805C120.172 113.711 120.568 113.664 120.969 113.664C122.057 113.664 122.833 113.945 123.297 114.508C123.76 115.065 123.992 115.831 123.992 116.805V121.648C123.992 121.883 123.875 122 123.641 122H122.938C122.734 122 122.633 121.883 122.633 121.648V121.266H122.617C122.206 121.589 121.802 121.815 121.406 121.945C121.016 122.07 120.578 122.133 120.094 122.133C119.24 122.133 118.581 121.93 118.117 121.523C117.659 121.112 117.43 120.542 117.43 119.812ZM118.852 119.844C118.852 120.167 118.919 120.427 119.055 120.625C119.19 120.818 119.378 120.943 119.617 121C119.857 121.052 120.107 121.078 120.367 121.078C120.768 121.078 121.148 121.039 121.508 120.961C121.867 120.883 122.237 120.677 122.617 120.344V118.039C121.565 118.117 120.815 118.214 120.367 118.328C119.919 118.438 119.555 118.63 119.273 118.906C118.992 119.177 118.852 119.49 118.852 119.844ZM126.57 122C126.336 122 126.219 121.883 126.219 121.648V114.148C126.219 113.914 126.336 113.797 126.57 113.797H127.227C127.461 113.797 127.578 113.914 127.578 114.148V115.086H127.609C127.859 114.617 128.154 114.263 128.492 114.023C128.831 113.784 129.253 113.664 129.758 113.664C130.091 113.664 130.326 113.693 130.461 113.75C130.581 113.797 130.625 113.875 130.594 113.984L130.414 114.625C130.388 114.719 130.32 114.755 130.211 114.734C130.029 114.698 129.857 114.68 129.695 114.68C129.086 114.68 128.583 114.956 128.188 115.508C127.792 116.055 127.594 116.802 127.594 117.75V121.648C127.594 121.883 127.477 122 127.242 122H126.57ZM131.414 117.898C131.414 116.607 131.737 115.578 132.383 114.812C133.029 114.047 133.953 113.664 135.156 113.664C136.156 113.664 136.984 114.016 137.641 114.719C138.302 115.417 138.633 116.534 138.633 118.07C138.633 118.305 138.526 118.422 138.312 118.422H132.867C132.956 119.427 133.227 120.128 133.68 120.523C134.133 120.914 134.646 121.109 135.219 121.109C135.823 121.109 136.286 121.008 136.609 120.805C136.932 120.602 137.169 120.401 137.32 120.203C137.487 119.984 137.648 119.943 137.805 120.078L138.266 120.477C138.385 120.581 138.385 120.724 138.266 120.906C138.167 121.057 137.883 121.299 137.414 121.633C136.951 121.966 136.219 122.133 135.219 122.133C133.917 122.133 132.956 121.75 132.336 120.984C131.721 120.219 131.414 119.19 131.414 117.898ZM132.836 117.406H137.25C137.229 116.677 137.042 116.039 136.688 115.492C136.333 114.94 135.812 114.664 135.125 114.664C134.521 114.664 134.008 114.867 133.586 115.273C133.164 115.674 132.914 116.385 132.836 117.406ZM145.367 114.828C145.133 114.828 145.016 114.737 145.016 114.555V114.07C145.016 113.888 145.133 113.797 145.367 113.797H146.289V113.094C146.289 112.99 146.315 112.891 146.367 112.797L146.914 111.805C147.013 111.622 147.094 111.531 147.156 111.531H147.43C147.586 111.531 147.664 111.622 147.664 111.805V113.797H149.328C149.562 113.797 149.68 113.888 149.68 114.07V114.555C149.68 114.737 149.562 114.828 149.328 114.828H147.664V119.805C147.664 120.352 147.745 120.708 147.906 120.875C148.073 121.036 148.271 121.117 148.5 121.117C148.677 121.117 148.888 121.065 149.133 120.961C149.383 120.857 149.555 120.768 149.648 120.695C149.742 120.622 149.815 120.646 149.867 120.766L150.125 121.367C150.167 121.471 150.135 121.555 150.031 121.617C149.828 121.737 149.531 121.854 149.141 121.969C148.75 122.078 148.359 122.133 147.969 122.133C147.427 122.133 147.01 121.938 146.719 121.547C146.432 121.156 146.289 120.604 146.289 119.891V114.828H145.367ZM152.039 122C151.805 122 151.688 121.883 151.688 121.648V110.82C151.688 110.586 151.805 110.469 152.039 110.469H152.711C152.945 110.469 153.062 110.586 153.062 110.82V114.305C153.062 114.461 153.057 114.617 153.047 114.773H153.078C153.417 114.398 153.781 114.12 154.172 113.938C154.562 113.755 155.049 113.664 155.633 113.664C156.581 113.664 157.26 113.932 157.672 114.469C158.089 115 158.297 115.729 158.297 116.656V121.648C158.297 121.883 158.18 122 157.945 122H157.273C157.039 122 156.922 121.883 156.922 121.648V117.031C156.922 116.01 156.753 115.365 156.414 115.094C156.076 114.818 155.646 114.68 155.125 114.68C154.448 114.68 153.935 114.883 153.586 115.289C153.237 115.69 153.062 116.38 153.062 117.359V121.648C153.062 121.883 152.945 122 152.711 122H152.039ZM160.055 117.898C160.055 116.607 160.378 115.578 161.023 114.812C161.669 114.047 162.594 113.664 163.797 113.664C164.797 113.664 165.625 114.016 166.281 114.719C166.943 115.417 167.273 116.534 167.273 118.07C167.273 118.305 167.167 118.422 166.953 118.422H161.508C161.596 119.427 161.867 120.128 162.32 120.523C162.773 120.914 163.286 121.109 163.859 121.109C164.464 121.109 164.927 121.008 165.25 120.805C165.573 120.602 165.81 120.401 165.961 120.203C166.128 119.984 166.289 119.943 166.445 120.078L166.906 120.477C167.026 120.581 167.026 120.724 166.906 120.906C166.807 121.057 166.523 121.299 166.055 121.633C165.591 121.966 164.859 122.133 163.859 122.133C162.557 122.133 161.596 121.75 160.977 120.984C160.362 120.219 160.055 119.19 160.055 117.898ZM161.477 117.406H165.891C165.87 116.677 165.682 116.039 165.328 115.492C164.974 114.94 164.453 114.664 163.766 114.664C163.161 114.664 162.648 114.867 162.227 115.273C161.805 115.674 161.555 116.385 161.477 117.406ZM174.086 121.234C173.924 121.083 173.891 120.943 173.984 120.812L174.336 120.32C174.451 120.164 174.62 120.172 174.844 120.344C175.151 120.578 175.492 120.766 175.867 120.906C176.247 121.047 176.68 121.117 177.164 121.117C177.451 121.117 177.706 121.083 177.93 121.016C178.154 120.943 178.349 120.81 178.516 120.617C178.688 120.424 178.773 120.167 178.773 119.844C178.773 119.656 178.732 119.479 178.648 119.312C178.57 119.146 178.445 119.013 178.273 118.914C178.107 118.81 177.943 118.729 177.781 118.672C177.516 118.573 177.25 118.492 176.984 118.43C176.724 118.362 176.38 118.26 175.953 118.125C175.667 118.036 175.396 117.911 175.141 117.75C174.885 117.583 174.661 117.359 174.469 117.078C174.281 116.797 174.188 116.409 174.188 115.914C174.188 115.409 174.341 114.974 174.648 114.609C174.956 114.245 175.341 113.997 175.805 113.867C176.268 113.732 176.719 113.664 177.156 113.664C177.802 113.664 178.32 113.74 178.711 113.891C179.107 114.036 179.448 114.211 179.734 114.414C179.901 114.534 179.924 114.672 179.805 114.828L179.453 115.297C179.344 115.448 179.174 115.443 178.945 115.281C178.753 115.146 178.479 115.018 178.125 114.898C177.771 114.779 177.461 114.719 177.195 114.719C176.867 114.719 176.586 114.755 176.352 114.828C176.117 114.901 175.927 115.026 175.781 115.203C175.635 115.38 175.562 115.589 175.562 115.828C175.562 116.01 175.591 116.174 175.648 116.32C175.706 116.461 175.812 116.591 175.969 116.711C176.125 116.831 176.344 116.927 176.625 117C177.062 117.115 177.461 117.219 177.82 117.312C178.185 117.406 178.513 117.521 178.805 117.656C179.185 117.833 179.477 118.029 179.68 118.242C179.888 118.456 180.031 118.688 180.109 118.938C180.188 119.182 180.227 119.456 180.227 119.758C180.227 120.315 180.06 120.786 179.727 121.172C179.398 121.557 179.031 121.815 178.625 121.945C178.219 122.07 177.729 122.133 177.156 122.133C176.38 122.133 175.714 122.023 175.156 121.805C174.604 121.581 174.247 121.391 174.086 121.234ZM181.336 119.812C181.336 118.885 181.768 118.206 182.633 117.773C183.503 117.341 184.799 117.089 186.523 117.016V116.484C186.523 115.995 186.411 115.573 186.188 115.219C185.969 114.859 185.531 114.68 184.875 114.68C184.458 114.68 184.125 114.721 183.875 114.805C183.625 114.883 183.396 114.99 183.188 115.125C182.984 115.255 182.789 115.424 182.602 115.633C182.461 115.789 182.328 115.797 182.203 115.656L181.797 115.188C181.682 115.057 181.721 114.901 181.914 114.719C182.19 114.458 182.458 114.263 182.719 114.133C182.979 114.003 183.302 113.893 183.688 113.805C184.078 113.711 184.474 113.664 184.875 113.664C185.964 113.664 186.74 113.945 187.203 114.508C187.667 115.065 187.898 115.831 187.898 116.805V121.648C187.898 121.883 187.781 122 187.547 122H186.844C186.641 122 186.539 121.883 186.539 121.648V121.266H186.523C186.112 121.589 185.708 121.815 185.312 121.945C184.922 122.07 184.484 122.133 184 122.133C183.146 122.133 182.487 121.93 182.023 121.523C181.565 121.112 181.336 120.542 181.336 119.812ZM182.758 119.844C182.758 120.167 182.826 120.427 182.961 120.625C183.096 120.818 183.284 120.943 183.523 121C183.763 121.052 184.013 121.078 184.273 121.078C184.674 121.078 185.055 121.039 185.414 120.961C185.773 120.883 186.143 120.677 186.523 120.344V118.039C185.471 118.117 184.721 118.214 184.273 118.328C183.826 118.438 183.461 118.63 183.18 118.906C182.898 119.177 182.758 119.49 182.758 119.844ZM189.5 114.18C189.411 113.924 189.482 113.797 189.711 113.797H190.562C190.729 113.797 190.846 113.898 190.914 114.102L192.57 119.258C192.706 119.68 192.797 119.971 192.844 120.133C192.896 120.289 192.943 120.484 192.984 120.719H193.016C193.057 120.484 193.102 120.289 193.148 120.133C193.201 119.971 193.294 119.68 193.43 119.258L195.086 114.102C195.154 113.898 195.271 113.797 195.438 113.797H196.289C196.518 113.797 196.589 113.924 196.5 114.18L193.938 121.523C193.828 121.841 193.688 122 193.516 122H192.484C192.312 122 192.172 121.841 192.062 121.523L189.5 114.18ZM198.18 122C197.945 122 197.828 121.883 197.828 121.648V114.148C197.828 113.914 197.945 113.797 198.18 113.797H198.852C199.086 113.797 199.203 113.914 199.203 114.148V121.648C199.203 121.883 199.086 122 198.852 122H198.18ZM198.18 112.312C197.945 112.312 197.828 112.195 197.828 111.961V111.289C197.828 111.055 197.945 110.938 198.18 110.938H198.852C199.086 110.938 199.203 111.055 199.203 111.289V111.961C199.203 112.195 199.086 112.312 198.852 112.312H198.18ZM200.977 117.898C200.977 116.674 201.299 115.664 201.945 114.867C202.596 114.065 203.547 113.664 204.797 113.664C206.047 113.664 206.995 114.065 207.641 114.867C208.292 115.664 208.617 116.674 208.617 117.898C208.617 119.122 208.292 120.135 207.641 120.938C206.995 121.734 206.047 122.133 204.797 122.133C203.547 122.133 202.596 121.734 201.945 120.938C201.299 120.135 200.977 119.122 200.977 117.898ZM202.43 117.898C202.43 118.992 202.646 119.802 203.078 120.328C203.51 120.854 204.083 121.117 204.797 121.117C205.51 121.117 206.083 120.854 206.516 120.328C206.948 119.802 207.164 118.992 207.164 117.898C207.164 116.805 206.948 115.995 206.516 115.469C206.083 114.943 205.51 114.68 204.797 114.68C204.083 114.68 203.51 114.943 203.078 115.469C202.646 115.995 202.43 116.805 202.43 117.898ZM210.742 122C210.508 122 210.391 121.883 210.391 121.648V114.148C210.391 113.914 210.508 113.797 210.742 113.797H211.398C211.633 113.797 211.75 113.914 211.75 114.148V115.086H211.781C212.031 114.617 212.326 114.263 212.664 114.023C213.003 113.784 213.424 113.664 213.93 113.664C214.263 113.664 214.497 113.693 214.633 113.75C214.753 113.797 214.797 113.875 214.766 113.984L214.586 114.625C214.56 114.719 214.492 114.755 214.383 114.734C214.201 114.698 214.029 114.68 213.867 114.68C213.258 114.68 212.755 114.956 212.359 115.508C211.964 116.055 211.766 116.802 211.766 117.75V121.648C211.766 121.883 211.648 122 211.414 122H210.742ZM220.914 117.898C220.914 116.674 221.237 115.664 221.883 114.867C222.534 114.065 223.484 113.664 224.734 113.664C225.984 113.664 226.932 114.065 227.578 114.867C228.229 115.664 228.555 116.674 228.555 117.898C228.555 119.122 228.229 120.135 227.578 120.938C226.932 121.734 225.984 122.133 224.734 122.133C223.484 122.133 222.534 121.734 221.883 120.938C221.237 120.135 220.914 119.122 220.914 117.898ZM222.367 117.898C222.367 118.992 222.583 119.802 223.016 120.328C223.448 120.854 224.021 121.117 224.734 121.117C225.448 121.117 226.021 120.854 226.453 120.328C226.885 119.802 227.102 118.992 227.102 117.898C227.102 116.805 226.885 115.995 226.453 115.469C226.021 114.943 225.448 114.68 224.734 114.68C224.021 114.68 223.448 114.943 223.016 115.469C222.583 115.995 222.367 116.805 222.367 117.898ZM229.922 114.828C229.688 114.828 229.57 114.737 229.57 114.555V114.07C229.57 113.888 229.688 113.797 229.922 113.797H230.758V112.633C230.758 111.763 230.992 111.164 231.461 110.836C231.93 110.503 232.466 110.336 233.07 110.336C233.43 110.336 233.719 110.354 233.938 110.391C234.161 110.427 234.424 110.508 234.727 110.633C234.841 110.68 234.875 110.763 234.828 110.883L234.586 111.5C234.544 111.604 234.453 111.625 234.312 111.562C234.198 111.51 234.057 111.464 233.891 111.422C233.724 111.375 233.544 111.352 233.352 111.352C232.919 111.352 232.607 111.456 232.414 111.664C232.227 111.872 232.133 112.271 232.133 112.859V113.797H233.562C233.797 113.797 233.914 113.888 233.914 114.07V114.555C233.914 114.737 233.797 114.828 233.562 114.828H232.133V121.648C232.133 121.883 232.016 122 231.781 122H231.109C230.875 122 230.758 121.883 230.758 121.648V114.828H229.922ZM240.352 114.828C240.117 114.828 240 114.737 240 114.555V114.07C240 113.888 240.117 113.797 240.352 113.797H241.273V113.094C241.273 112.99 241.299 112.891 241.352 112.797L241.898 111.805C241.997 111.622 242.078 111.531 242.141 111.531H242.414C242.57 111.531 242.648 111.622 242.648 111.805V113.797H244.312C244.547 113.797 244.664 113.888 244.664 114.07V114.555C244.664 114.737 244.547 114.828 244.312 114.828H242.648V119.805C242.648 120.352 242.729 120.708 242.891 120.875C243.057 121.036 243.255 121.117 243.484 121.117C243.661 121.117 243.872 121.065 244.117 120.961C244.367 120.857 244.539 120.768 244.633 120.695C244.727 120.622 244.799 120.646 244.852 120.766L245.109 121.367C245.151 121.471 245.12 121.555 245.016 121.617C244.812 121.737 244.516 121.854 244.125 121.969C243.734 122.078 243.344 122.133 242.953 122.133C242.411 122.133 241.995 121.938 241.703 121.547C241.417 121.156 241.273 120.604 241.273 119.891V114.828H240.352ZM247.023 122C246.789 122 246.672 121.883 246.672 121.648V110.82C246.672 110.586 246.789 110.469 247.023 110.469H247.695C247.93 110.469 248.047 110.586 248.047 110.82V114.305C248.047 114.461 248.042 114.617 248.031 114.773H248.062C248.401 114.398 248.766 114.12 249.156 113.938C249.547 113.755 250.034 113.664 250.617 113.664C251.565 113.664 252.245 113.932 252.656 114.469C253.073 115 253.281 115.729 253.281 116.656V121.648C253.281 121.883 253.164 122 252.93 122H252.258C252.023 122 251.906 121.883 251.906 121.648V117.031C251.906 116.01 251.737 115.365 251.398 115.094C251.06 114.818 250.63 114.68 250.109 114.68C249.432 114.68 248.919 114.883 248.57 115.289C248.221 115.69 248.047 116.38 248.047 117.359V121.648C248.047 121.883 247.93 122 247.695 122H247.023ZM255.039 117.898C255.039 116.607 255.362 115.578 256.008 114.812C256.654 114.047 257.578 113.664 258.781 113.664C259.781 113.664 260.609 114.016 261.266 114.719C261.927 115.417 262.258 116.534 262.258 118.07C262.258 118.305 262.151 118.422 261.938 118.422H256.492C256.581 119.427 256.852 120.128 257.305 120.523C257.758 120.914 258.271 121.109 258.844 121.109C259.448 121.109 259.911 121.008 260.234 120.805C260.557 120.602 260.794 120.401 260.945 120.203C261.112 119.984 261.273 119.943 261.43 120.078L261.891 120.477C262.01 120.581 262.01 120.724 261.891 120.906C261.792 121.057 261.508 121.299 261.039 121.633C260.576 121.966 259.844 122.133 258.844 122.133C257.542 122.133 256.581 121.75 255.961 120.984C255.346 120.219 255.039 119.19 255.039 117.898ZM256.461 117.406H260.875C260.854 116.677 260.667 116.039 260.312 115.492C259.958 114.94 259.438 114.664 258.75 114.664C258.146 114.664 257.633 114.867 257.211 115.273C256.789 115.674 256.539 116.385 256.461 117.406ZM269.742 125.125C269.508 125.125 269.391 125.008 269.391 124.773V114.148C269.391 113.914 269.508 113.797 269.742 113.797H270.398C270.586 113.797 270.688 113.914 270.703 114.148L270.75 114.773H270.766C271.052 114.43 271.375 114.159 271.734 113.961C272.094 113.763 272.573 113.664 273.172 113.664C274.214 113.664 275.005 114.091 275.547 114.945C276.089 115.794 276.359 116.779 276.359 117.898C276.359 119.018 276.089 120.005 275.547 120.859C275.005 121.708 274.214 122.133 273.172 122.133C272.573 122.133 272.094 122.034 271.734 121.836C271.375 121.638 271.052 121.367 270.766 121.023H270.75C270.76 121.18 270.766 121.339 270.766 121.5V124.773C270.766 125.008 270.648 125.125 270.414 125.125H269.742ZM270.766 118.797C270.766 119.578 270.951 120.161 271.32 120.547C271.695 120.927 272.164 121.117 272.727 121.117C273.518 121.117 274.078 120.82 274.406 120.227C274.74 119.633 274.906 118.857 274.906 117.898C274.906 116.94 274.74 116.164 274.406 115.57C274.078 114.977 273.518 114.68 272.727 114.68C272.164 114.68 271.695 114.872 271.32 115.258C270.951 115.638 270.766 116.219 270.766 117V118.797ZM277.695 117.898C277.695 116.607 278.018 115.578 278.664 114.812C279.31 114.047 280.234 113.664 281.438 113.664C282.438 113.664 283.266 114.016 283.922 114.719C284.583 115.417 284.914 116.534 284.914 118.07C284.914 118.305 284.807 118.422 284.594 118.422H279.148C279.237 119.427 279.508 120.128 279.961 120.523C280.414 120.914 280.927 121.109 281.5 121.109C282.104 121.109 282.568 121.008 282.891 120.805C283.214 120.602 283.451 120.401 283.602 120.203C283.768 119.984 283.93 119.943 284.086 120.078L284.547 120.477C284.667 120.581 284.667 120.724 284.547 120.906C284.448 121.057 284.164 121.299 283.695 121.633C283.232 121.966 282.5 122.133 281.5 122.133C280.198 122.133 279.237 121.75 278.617 120.984C278.003 120.219 277.695 119.19 277.695 117.898ZM279.117 117.406H283.531C283.51 116.677 283.323 116.039 282.969 115.492C282.615 114.94 282.094 114.664 281.406 114.664C280.802 114.664 280.289 114.867 279.867 115.273C279.445 115.674 279.195 116.385 279.117 117.406ZM286.273 117.898C286.273 116.674 286.596 115.664 287.242 114.867C287.893 114.065 288.844 113.664 290.094 113.664C291.344 113.664 292.292 114.065 292.938 114.867C293.589 115.664 293.914 116.674 293.914 117.898C293.914 119.122 293.589 120.135 292.938 120.938C292.292 121.734 291.344 122.133 290.094 122.133C288.844 122.133 287.893 121.734 287.242 120.938C286.596 120.135 286.273 119.122 286.273 117.898ZM287.727 117.898C287.727 118.992 287.943 119.802 288.375 120.328C288.807 120.854 289.38 121.117 290.094 121.117C290.807 121.117 291.38 120.854 291.812 120.328C292.245 119.802 292.461 118.992 292.461 117.898C292.461 116.805 292.245 115.995 291.812 115.469C291.38 114.943 290.807 114.68 290.094 114.68C289.38 114.68 288.807 114.943 288.375 115.469C287.943 115.995 287.727 116.805 287.727 117.898ZM296.039 125.125C295.805 125.125 295.688 125.008 295.688 124.773V114.148C295.688 113.914 295.805 113.797 296.039 113.797H296.695C296.883 113.797 296.984 113.914 297 114.148L297.047 114.773H297.062C297.349 114.43 297.672 114.159 298.031 113.961C298.391 113.763 298.87 113.664 299.469 113.664C300.51 113.664 301.302 114.091 301.844 114.945C302.385 115.794 302.656 116.779 302.656 117.898C302.656 119.018 302.385 120.005 301.844 120.859C301.302 121.708 300.51 122.133 299.469 122.133C298.87 122.133 298.391 122.034 298.031 121.836C297.672 121.638 297.349 121.367 297.062 121.023H297.047C297.057 121.18 297.062 121.339 297.062 121.5V124.773C297.062 125.008 296.945 125.125 296.711 125.125H296.039ZM297.062 118.797C297.062 119.578 297.247 120.161 297.617 120.547C297.992 120.927 298.461 121.117 299.023 121.117C299.815 121.117 300.375 120.82 300.703 120.227C301.036 119.633 301.203 118.857 301.203 117.898C301.203 116.94 301.036 116.164 300.703 115.57C300.375 114.977 299.815 114.68 299.023 114.68C298.461 114.68 297.992 114.872 297.617 115.258C297.247 115.638 297.062 116.219 297.062 117V118.797ZM304.789 122C304.555 122 304.438 121.883 304.438 121.648V111.898C304.438 111.794 304.464 111.695 304.516 111.602L305.062 110.609C305.161 110.427 305.242 110.336 305.305 110.336H305.578C305.734 110.336 305.812 110.427 305.812 110.609V121.648C305.812 121.883 305.695 122 305.461 122H304.789ZM307.586 117.898C307.586 116.607 307.909 115.578 308.555 114.812C309.201 114.047 310.125 113.664 311.328 113.664C312.328 113.664 313.156 114.016 313.812 114.719C314.474 115.417 314.805 116.534 314.805 118.07C314.805 118.305 314.698 118.422 314.484 118.422H309.039C309.128 119.427 309.398 120.128 309.852 120.523C310.305 120.914 310.818 121.109 311.391 121.109C311.995 121.109 312.458 121.008 312.781 120.805C313.104 120.602 313.341 120.401 313.492 120.203C313.659 119.984 313.82 119.943 313.977 120.078L314.438 120.477C314.557 120.581 314.557 120.724 314.438 120.906C314.339 121.057 314.055 121.299 313.586 121.633C313.122 121.966 312.391 122.133 311.391 122.133C310.089 122.133 309.128 121.75 308.508 120.984C307.893 120.219 307.586 119.19 307.586 117.898ZM309.008 117.406H313.422C313.401 116.677 313.214 116.039 312.859 115.492C312.505 114.94 311.984 114.664 311.297 114.664C310.693 114.664 310.18 114.867 309.758 115.273C309.336 115.674 309.086 116.385 309.008 117.406Z" fill="white"/>
<path d="M181.986 149.96H185.026C187.026 151.32 188.026 153.053 188.026 155.16C188.026 156.44 187.573 157.867 186.666 159.44C186.4 159.92 185.933 160.667 185.266 161.68L181.146 168H174.946L183.066 155.16L182.946 154.8H173.706V140H186.826V144.8H179.026V150.48C179.826 150.133 180.813 149.96 181.986 149.96ZM203.321 168H195.681C193.894 166.213 192.601 164.107 191.801 161.68C191.027 159.253 190.641 156.827 190.641 154.4C190.641 148.187 192.321 143.387 195.681 140H203.321C205.081 141.787 206.361 143.893 207.161 146.32C207.961 148.72 208.361 151.12 208.361 153.52C208.361 159.813 206.681 164.64 203.321 168ZM201.241 144.8H197.801C196.627 147.2 196.041 150.253 196.041 153.96C196.041 157.667 196.614 160.8 197.761 163.36H201.281C202.427 160.427 203.001 157.2 203.001 153.68C203.001 150.16 202.414 147.2 201.241 144.8ZM223.047 168H215.407C213.621 166.213 212.327 164.107 211.527 161.68C210.754 159.253 210.367 156.827 210.367 154.4C210.367 148.187 212.047 143.387 215.407 140H223.047C224.807 141.787 226.087 143.893 226.887 146.32C227.687 148.72 228.087 151.12 228.087 153.52C228.087 159.813 226.407 164.64 223.047 168ZM220.967 144.8H217.527C216.354 147.2 215.767 150.253 215.767 153.96C215.767 157.667 216.341 160.8 217.487 163.36H221.007C222.154 160.427 222.727 157.2 222.727 153.68C222.727 150.16 222.141 147.2 220.967 144.8Z" fill="#FF0000"/>
<rect x="26" y="26" width="348" height="168" stroke="#FF0000" stroke-width="2"/>
<rect x="1" y="1" width="398" height="218" stroke="#FF0000" stroke-width="2"/>
</g>
<defs>
<clipPath id="clip0_12_86">
<rect width="400" height="220" rx="10" fill="white"/>
</clipPath>
</defs>
</svg>
