<svg width="400" height="220" viewBox="0 0 400 220" fill="none" xmlns="http://www.w3.org/2000/svg">
<g clip-path="url(#clip0_9_2)">
<rect width="400" height="220" rx="10" fill="url(#paint0_linear_9_2)"/>
<path d="M167.198 65C169.065 66.52 170.452 68.56 171.358 71.12C172.265 73.68 172.718 76.32 172.718 79.04C172.718 81.7333 172.278 84.2933 171.398 86.72C170.518 89.1467 169.118 91.24 167.198 93H165.878L167.118 97.52H161.998L160.758 93H158.958C157.038 91.24 155.638 89.1467 154.758 86.72C153.878 84.2933 153.438 81.7333 153.438 79.04C153.438 76.32 153.892 73.68 154.798 71.12C155.705 68.56 157.092 66.52 158.958 65H167.198ZM161.638 88.36H164.518C165.185 87.5867 165.745 86.3333 166.198 84.6C166.678 82.84 166.918 80.9867 166.918 79.04C166.918 77.0933 166.692 75.2667 166.238 73.56C165.785 71.8267 165.225 70.5733 164.558 69.8H161.638C160.972 70.5733 160.398 71.8267 159.918 73.56C159.465 75.2667 159.238 77.0933 159.238 79.04C159.238 80.9867 159.465 82.84 159.918 84.6C160.398 86.3333 160.972 87.5867 161.638 88.36ZM182.718 93H178.518C177.345 91.5067 176.545 90.0133 176.118 88.52C175.691 87.0267 175.478 85.16 175.478 82.92V72.56H180.798V83.32C180.798 85.7467 181.278 87.5733 182.238 88.8H185.958V72.56H191.278V93H187.078L186.358 91.56C185.345 92.52 184.131 93 182.718 93ZM203.94 76.76H200.94C200.54 77.24 200.207 77.9067 199.94 78.76C199.7 79.6133 199.58 80.44 199.58 81.24H205.3C205.354 80.44 205.247 79.6133 204.98 78.76C204.714 77.88 204.367 77.2133 203.94 76.76ZM209.38 88.8V93H199.22C197.354 91.7467 196.034 90.2 195.26 88.36C194.514 86.4933 194.14 84.6133 194.14 82.72C194.14 78.3467 195.794 74.96 199.1 72.56H205.58C207.367 73.8667 208.58 75.2533 209.22 76.72C209.86 78.1867 210.18 79.6667 210.18 81.16C210.18 82.6533 210.06 83.9333 209.82 85H199.86C199.94 85.6133 200.167 86.32 200.54 87.12C200.94 87.8933 201.367 88.4533 201.82 88.8H209.38ZM222.105 76.76H219.105C218.705 77.24 218.371 77.9067 218.105 78.76C217.865 79.6133 217.745 80.44 217.745 81.24H223.465C223.518 80.44 223.411 79.6133 223.145 78.76C222.878 77.88 222.531 77.2133 222.105 76.76ZM227.545 88.8V93H217.385C215.518 91.7467 214.198 90.2 213.425 88.36C212.678 86.4933 212.305 84.6133 212.305 82.72C212.305 78.3467 213.958 74.96 217.265 72.56H223.745C225.531 73.8667 226.745 75.2533 227.385 76.72C228.025 78.1867 228.345 79.6667 228.345 81.16C228.345 82.6533 228.225 83.9333 227.985 85H218.025C218.105 85.6133 218.331 86.32 218.705 87.12C219.105 87.8933 219.531 88.4533 219.985 88.8H227.545ZM239.909 72.56H244.149C245.322 74.0533 246.122 75.5467 246.549 77.04C246.975 78.5333 247.189 80.4 247.189 82.64V93H241.869V82.24C241.869 79.7067 241.522 77.88 240.829 76.76H236.349V93H231.029V72.56H235.189L235.909 74C236.495 73.4667 237.042 73.0933 237.549 72.88C238.082 72.6667 238.869 72.56 239.909 72.56Z" fill="#D3AF37"/>
<path d="M85.7188 124C85.4583 124 85.3281 123.857 85.3281 123.57V113.227C85.3281 112.94 85.4583 112.797 85.7188 112.797H87.3828C87.5807 112.797 87.7292 112.953 87.8281 113.266L90.0625 120.273C90.2917 120.992 90.4271 121.427 90.4688 121.578C90.5104 121.724 90.5703 121.995 90.6484 122.391H90.6953C90.7734 121.995 90.8333 121.724 90.875 121.578C90.9167 121.427 91.0521 120.992 91.2812 120.273L93.5156 113.266C93.6146 112.953 93.763 112.797 93.9609 112.797H95.625C95.8854 112.797 96.0156 112.94 96.0156 113.227V123.57C96.0156 123.857 95.8854 124 95.625 124H94.9062C94.6458 124 94.5156 123.857 94.5156 123.57V115.375C94.5156 115.167 94.5208 114.958 94.5312 114.75H94.5L91.6172 123.523C91.513 123.841 91.3411 124 91.1016 124H90.2422C90.0026 124 89.8307 123.841 89.7266 123.523L86.8438 114.75H86.8125C86.8229 114.958 86.8281 115.167 86.8281 115.375V123.57C86.8281 123.857 86.6979 124 86.4375 124H85.7188ZM98.0078 121.812C98.0078 120.885 98.4401 120.206 99.3047 119.773C100.174 119.341 101.471 119.089 103.195 119.016V118.484C103.195 117.995 103.083 117.573 102.859 117.219C102.641 116.859 102.203 116.68 101.547 116.68C101.13 116.68 100.797 116.721 100.547 116.805C100.297 116.883 100.068 116.99 99.8594 117.125C99.6562 117.255 99.4609 117.424 99.2734 117.633C99.1328 117.789 99 117.797 98.875 117.656L98.4688 117.188C98.3542 117.057 98.3932 116.901 98.5859 116.719C98.862 116.458 99.1302 116.263 99.3906 116.133C99.651 116.003 99.974 115.893 100.359 115.805C100.75 115.711 101.146 115.664 101.547 115.664C102.635 115.664 103.411 115.945 103.875 116.508C104.339 117.065 104.57 117.831 104.57 118.805V123.648C104.57 123.883 104.453 124 104.219 124H103.516C103.312 124 103.211 123.883 103.211 123.648V123.266H103.195C102.784 123.589 102.38 123.815 101.984 123.945C101.594 124.07 101.156 124.133 100.672 124.133C99.8177 124.133 99.1589 123.93 98.6953 123.523C98.237 123.112 98.0078 122.542 98.0078 121.812ZM99.4297 121.844C99.4297 122.167 99.4974 122.427 99.6328 122.625C99.7682 122.818 99.9557 122.943 100.195 123C100.435 123.052 100.685 123.078 100.945 123.078C101.346 123.078 101.727 123.039 102.086 122.961C102.445 122.883 102.815 122.677 103.195 122.344V120.039C102.143 120.117 101.393 120.214 100.945 120.328C100.497 120.438 100.133 120.63 99.8516 120.906C99.5703 121.177 99.4297 121.49 99.4297 121.844ZM105.062 127.102C104.948 127.049 104.901 126.966 104.922 126.852L105.055 126.219C105.081 126.094 105.146 126.055 105.25 126.102C105.453 126.195 105.703 126.242 106 126.242C106.307 126.242 106.529 126.091 106.664 125.789C106.805 125.487 106.875 124.875 106.875 123.953V116.148C106.875 115.914 106.992 115.797 107.227 115.797H107.898C108.133 115.797 108.25 115.914 108.25 116.148V124.727C108.25 125.737 108.057 126.411 107.672 126.75C107.292 127.089 106.818 127.258 106.25 127.258C105.698 127.258 105.302 127.206 105.062 127.102ZM107.227 114.312C106.992 114.312 106.875 114.195 106.875 113.961V113.289C106.875 113.055 106.992 112.938 107.227 112.938H107.898C108.133 112.938 108.25 113.055 108.25 113.289V113.961C108.25 114.195 108.133 114.312 107.898 114.312H107.227ZM109.992 119.898C109.992 118.607 110.315 117.578 110.961 116.812C111.607 116.047 112.531 115.664 113.734 115.664C114.734 115.664 115.562 116.016 116.219 116.719C116.88 117.417 117.211 118.534 117.211 120.07C117.211 120.305 117.104 120.422 116.891 120.422H111.445C111.534 121.427 111.805 122.128 112.258 122.523C112.711 122.914 113.224 123.109 113.797 123.109C114.401 123.109 114.865 123.008 115.188 122.805C115.51 122.602 115.747 122.401 115.898 122.203C116.065 121.984 116.227 121.943 116.383 122.078L116.844 122.477C116.964 122.581 116.964 122.724 116.844 122.906C116.745 123.057 116.461 123.299 115.992 123.633C115.529 123.966 114.797 124.133 113.797 124.133C112.495 124.133 111.534 123.75 110.914 122.984C110.299 122.219 109.992 121.19 109.992 119.898ZM111.414 119.406H115.828C115.807 118.677 115.62 118.039 115.266 117.492C114.911 116.94 114.391 116.664 113.703 116.664C113.099 116.664 112.586 116.867 112.164 117.273C111.742 117.674 111.492 118.385 111.414 119.406ZM118.695 123.234C118.534 123.083 118.5 122.943 118.594 122.812L118.945 122.32C119.06 122.164 119.229 122.172 119.453 122.344C119.76 122.578 120.102 122.766 120.477 122.906C120.857 123.047 121.289 123.117 121.773 123.117C122.06 123.117 122.315 123.083 122.539 123.016C122.763 122.943 122.958 122.81 123.125 122.617C123.297 122.424 123.383 122.167 123.383 121.844C123.383 121.656 123.341 121.479 123.258 121.312C123.18 121.146 123.055 121.013 122.883 120.914C122.716 120.81 122.552 120.729 122.391 120.672C122.125 120.573 121.859 120.492 121.594 120.43C121.333 120.362 120.99 120.26 120.562 120.125C120.276 120.036 120.005 119.911 119.75 119.75C119.495 119.583 119.271 119.359 119.078 119.078C118.891 118.797 118.797 118.409 118.797 117.914C118.797 117.409 118.951 116.974 119.258 116.609C119.565 116.245 119.951 115.997 120.414 115.867C120.878 115.732 121.328 115.664 121.766 115.664C122.411 115.664 122.93 115.74 123.32 115.891C123.716 116.036 124.057 116.211 124.344 116.414C124.51 116.534 124.534 116.672 124.414 116.828L124.062 117.297C123.953 117.448 123.784 117.443 123.555 117.281C123.362 117.146 123.089 117.018 122.734 116.898C122.38 116.779 122.07 116.719 121.805 116.719C121.477 116.719 121.195 116.755 120.961 116.828C120.727 116.901 120.536 117.026 120.391 117.203C120.245 117.38 120.172 117.589 120.172 117.828C120.172 118.01 120.201 118.174 120.258 118.32C120.315 118.461 120.422 118.591 120.578 118.711C120.734 118.831 120.953 118.927 121.234 119C121.672 119.115 122.07 119.219 122.43 119.312C122.794 119.406 123.122 119.521 123.414 119.656C123.794 119.833 124.086 120.029 124.289 120.242C124.497 120.456 124.641 120.688 124.719 120.938C124.797 121.182 124.836 121.456 124.836 121.758C124.836 122.315 124.669 122.786 124.336 123.172C124.008 123.557 123.641 123.815 123.234 123.945C122.828 124.07 122.339 124.133 121.766 124.133C120.99 124.133 120.323 124.023 119.766 123.805C119.214 123.581 118.857 123.391 118.695 123.234ZM125.992 116.828C125.758 116.828 125.641 116.737 125.641 116.555V116.07C125.641 115.888 125.758 115.797 125.992 115.797H126.914V115.094C126.914 114.99 126.94 114.891 126.992 114.797L127.539 113.805C127.638 113.622 127.719 113.531 127.781 113.531H128.055C128.211 113.531 128.289 113.622 128.289 113.805V115.797H129.953C130.188 115.797 130.305 115.888 130.305 116.07V116.555C130.305 116.737 130.188 116.828 129.953 116.828H128.289V121.805C128.289 122.352 128.37 122.708 128.531 122.875C128.698 123.036 128.896 123.117 129.125 123.117C129.302 123.117 129.513 123.065 129.758 122.961C130.008 122.857 130.18 122.768 130.273 122.695C130.367 122.622 130.44 122.646 130.492 122.766L130.75 123.367C130.792 123.471 130.76 123.555 130.656 123.617C130.453 123.737 130.156 123.854 129.766 123.969C129.375 124.078 128.984 124.133 128.594 124.133C128.052 124.133 127.635 123.938 127.344 123.547C127.057 123.156 126.914 122.604 126.914 121.891V116.828H125.992ZM131.742 116.18C131.648 115.924 131.719 115.797 131.953 115.797H132.805C132.977 115.797 133.094 115.898 133.156 116.102L134.797 121.258C134.844 121.398 134.914 121.62 135.008 121.922C135.107 122.219 135.177 122.484 135.219 122.719H135.234C135.276 122.484 135.326 122.273 135.383 122.086C135.445 121.893 135.536 121.617 135.656 121.258L137.312 116.102C137.38 115.898 137.497 115.797 137.664 115.797H138.516C138.75 115.797 138.82 115.924 138.727 116.18L136.094 123.523C135.599 124.904 135.156 125.87 134.766 126.422C134.375 126.979 133.792 127.258 133.016 127.258C132.609 127.258 132.286 127.198 132.047 127.078C131.938 127.026 131.901 126.945 131.938 126.836L132.141 126.203C132.177 126.094 132.247 126.062 132.352 126.109C132.565 126.198 132.771 126.242 132.969 126.242C133.333 126.242 133.63 126.044 133.859 125.648C134.089 125.258 134.271 124.865 134.406 124.469L134.562 124.008L131.742 116.18ZM144.93 119.898C144.93 118.674 145.232 117.664 145.836 116.867C146.445 116.065 147.375 115.664 148.625 115.664C149.469 115.664 150.112 115.815 150.555 116.117C151.003 116.414 151.326 116.719 151.523 117.031C151.633 117.203 151.609 117.341 151.453 117.445L150.961 117.766C150.805 117.875 150.648 117.805 150.492 117.555C150.341 117.315 150.128 117.109 149.852 116.938C149.581 116.766 149.172 116.68 148.625 116.68C147.911 116.68 147.359 116.943 146.969 117.469C146.578 117.995 146.383 118.805 146.383 119.898C146.383 120.992 146.578 121.802 146.969 122.328C147.359 122.854 147.911 123.117 148.625 123.117C149.203 123.117 149.646 123.008 149.953 122.789C150.26 122.565 150.484 122.323 150.625 122.062C150.76 121.818 150.914 121.747 151.086 121.852L151.609 122.164C151.766 122.258 151.789 122.398 151.68 122.586C151.549 122.81 151.253 123.125 150.789 123.531C150.331 123.932 149.609 124.133 148.625 124.133C147.375 124.133 146.445 123.734 145.836 122.938C145.232 122.135 144.93 121.122 144.93 119.898ZM152.945 119.898C152.945 118.674 153.268 117.664 153.914 116.867C154.565 116.065 155.516 115.664 156.766 115.664C158.016 115.664 158.964 116.065 159.609 116.867C160.26 117.664 160.586 118.674 160.586 119.898C160.586 121.122 160.26 122.135 159.609 122.938C158.964 123.734 158.016 124.133 156.766 124.133C155.516 124.133 154.565 123.734 153.914 122.938C153.268 122.135 152.945 121.122 152.945 119.898ZM154.398 119.898C154.398 120.992 154.615 121.802 155.047 122.328C155.479 122.854 156.052 123.117 156.766 123.117C157.479 123.117 158.052 122.854 158.484 122.328C158.917 121.802 159.133 120.992 159.133 119.898C159.133 118.805 158.917 117.995 158.484 117.469C158.052 116.943 157.479 116.68 156.766 116.68C156.052 116.68 155.479 116.943 155.047 117.469C154.615 117.995 154.398 118.805 154.398 119.898ZM162.711 124C162.477 124 162.359 123.883 162.359 123.648V116.148C162.359 115.914 162.477 115.797 162.711 115.797H163.367C163.602 115.797 163.719 115.914 163.719 116.148V116.773H163.75C164.089 116.398 164.456 116.12 164.852 115.938C165.247 115.755 165.628 115.664 165.992 115.664C166.664 115.664 167.18 115.833 167.539 116.172C167.904 116.505 168.138 116.841 168.242 117.18H168.273C168.56 116.753 168.922 116.393 169.359 116.102C169.797 115.81 170.263 115.664 170.758 115.664C171.586 115.664 172.211 115.932 172.633 116.469C173.055 117 173.266 117.729 173.266 118.656V123.648C173.266 123.883 173.148 124 172.914 124H172.242C172.008 124 171.891 123.883 171.891 123.648V119.109C171.891 118.089 171.763 117.43 171.508 117.133C171.253 116.831 170.859 116.68 170.328 116.68C169.807 116.68 169.372 116.904 169.023 117.352C168.674 117.794 168.5 118.464 168.5 119.359V123.648C168.5 123.883 168.383 124 168.148 124H167.477C167.242 124 167.125 123.883 167.125 123.648V119.109C167.125 118.089 166.997 117.43 166.742 117.133C166.487 116.831 166.094 116.68 165.562 116.68C165.042 116.68 164.607 116.883 164.258 117.289C163.909 117.69 163.734 118.38 163.734 119.359V123.648C163.734 123.883 163.617 124 163.383 124H162.711ZM175.82 124C175.586 124 175.469 123.883 175.469 123.648V116.148C175.469 115.914 175.586 115.797 175.82 115.797H176.477C176.711 115.797 176.828 115.914 176.828 116.148V116.773H176.859C177.198 116.398 177.565 116.12 177.961 115.938C178.357 115.755 178.737 115.664 179.102 115.664C179.773 115.664 180.289 115.833 180.648 116.172C181.013 116.505 181.247 116.841 181.352 117.18H181.383C181.669 116.753 182.031 116.393 182.469 116.102C182.906 115.81 183.372 115.664 183.867 115.664C184.695 115.664 185.32 115.932 185.742 116.469C186.164 117 186.375 117.729 186.375 118.656V123.648C186.375 123.883 186.258 124 186.023 124H185.352C185.117 124 185 123.883 185 123.648V119.109C185 118.089 184.872 117.43 184.617 117.133C184.362 116.831 183.969 116.68 183.438 116.68C182.917 116.68 182.482 116.904 182.133 117.352C181.784 117.794 181.609 118.464 181.609 119.359V123.648C181.609 123.883 181.492 124 181.258 124H180.586C180.352 124 180.234 123.883 180.234 123.648V119.109C180.234 118.089 180.107 117.43 179.852 117.133C179.596 116.831 179.203 116.68 178.672 116.68C178.151 116.68 177.716 116.883 177.367 117.289C177.018 117.69 176.844 118.38 176.844 119.359V123.648C176.844 123.883 176.727 124 176.492 124H175.82ZM188.133 121.812C188.133 120.885 188.565 120.206 189.43 119.773C190.299 119.341 191.596 119.089 193.32 119.016V118.484C193.32 117.995 193.208 117.573 192.984 117.219C192.766 116.859 192.328 116.68 191.672 116.68C191.255 116.68 190.922 116.721 190.672 116.805C190.422 116.883 190.193 116.99 189.984 117.125C189.781 117.255 189.586 117.424 189.398 117.633C189.258 117.789 189.125 117.797 189 117.656L188.594 117.188C188.479 117.057 188.518 116.901 188.711 116.719C188.987 116.458 189.255 116.263 189.516 116.133C189.776 116.003 190.099 115.893 190.484 115.805C190.875 115.711 191.271 115.664 191.672 115.664C192.76 115.664 193.536 115.945 194 116.508C194.464 117.065 194.695 117.831 194.695 118.805V123.648C194.695 123.883 194.578 124 194.344 124H193.641C193.438 124 193.336 123.883 193.336 123.648V123.266H193.32C192.909 123.589 192.505 123.815 192.109 123.945C191.719 124.07 191.281 124.133 190.797 124.133C189.943 124.133 189.284 123.93 188.82 123.523C188.362 123.112 188.133 122.542 188.133 121.812ZM189.555 121.844C189.555 122.167 189.622 122.427 189.758 122.625C189.893 122.818 190.081 122.943 190.32 123C190.56 123.052 190.81 123.078 191.07 123.078C191.471 123.078 191.852 123.039 192.211 122.961C192.57 122.883 192.94 122.677 193.32 122.344V120.039C192.268 120.117 191.518 120.214 191.07 120.328C190.622 120.438 190.258 120.63 189.977 120.906C189.695 121.177 189.555 121.49 189.555 121.844ZM197.273 124C197.039 124 196.922 123.883 196.922 123.648V116.148C196.922 115.914 197.039 115.797 197.273 115.797H197.93C198.164 115.797 198.281 115.914 198.281 116.148V116.773H198.312C198.651 116.398 199.016 116.12 199.406 115.938C199.797 115.755 200.284 115.664 200.867 115.664C201.815 115.664 202.495 115.932 202.906 116.469C203.323 117 203.531 117.729 203.531 118.656V123.648C203.531 123.883 203.414 124 203.18 124H202.508C202.273 124 202.156 123.883 202.156 123.648V119.031C202.156 118.01 201.987 117.365 201.648 117.094C201.31 116.818 200.88 116.68 200.359 116.68C199.682 116.68 199.169 116.883 198.82 117.289C198.471 117.69 198.297 118.38 198.297 119.359V123.648C198.297 123.883 198.18 124 197.945 124H197.273ZM205.289 119.898C205.289 118.779 205.56 117.794 206.102 116.945C206.643 116.091 207.435 115.664 208.477 115.664C209.076 115.664 209.555 115.763 209.914 115.961C210.273 116.159 210.596 116.43 210.883 116.773H210.898C210.888 116.617 210.883 116.458 210.883 116.297V112.82C210.883 112.586 211 112.469 211.234 112.469H211.906C212.141 112.469 212.258 112.586 212.258 112.82V123.648C212.258 123.883 212.141 124 211.906 124H211.25C211.062 124 210.961 123.883 210.945 123.648L210.898 123.023H210.883C210.596 123.367 210.273 123.638 209.914 123.836C209.555 124.034 209.076 124.133 208.477 124.133C207.435 124.133 206.643 123.708 206.102 122.859C205.56 122.005 205.289 121.018 205.289 119.898ZM206.742 119.898C206.742 120.857 206.906 121.633 207.234 122.227C207.568 122.82 208.13 123.117 208.922 123.117C209.484 123.117 209.951 122.927 210.32 122.547C210.695 122.161 210.883 121.578 210.883 120.797V119C210.883 118.219 210.695 117.638 210.32 117.258C209.951 116.872 209.484 116.68 208.922 116.68C208.13 116.68 207.568 116.977 207.234 117.57C206.906 118.164 206.742 118.94 206.742 119.898ZM214.164 123.234C214.003 123.083 213.969 122.943 214.062 122.812L214.414 122.32C214.529 122.164 214.698 122.172 214.922 122.344C215.229 122.578 215.57 122.766 215.945 122.906C216.326 123.047 216.758 123.117 217.242 123.117C217.529 123.117 217.784 123.083 218.008 123.016C218.232 122.943 218.427 122.81 218.594 122.617C218.766 122.424 218.852 122.167 218.852 121.844C218.852 121.656 218.81 121.479 218.727 121.312C218.648 121.146 218.523 121.013 218.352 120.914C218.185 120.81 218.021 120.729 217.859 120.672C217.594 120.573 217.328 120.492 217.062 120.43C216.802 120.362 216.458 120.26 216.031 120.125C215.745 120.036 215.474 119.911 215.219 119.75C214.964 119.583 214.74 119.359 214.547 119.078C214.359 118.797 214.266 118.409 214.266 117.914C214.266 117.409 214.419 116.974 214.727 116.609C215.034 116.245 215.419 115.997 215.883 115.867C216.346 115.732 216.797 115.664 217.234 115.664C217.88 115.664 218.398 115.74 218.789 115.891C219.185 116.036 219.526 116.211 219.812 116.414C219.979 116.534 220.003 116.672 219.883 116.828L219.531 117.297C219.422 117.448 219.253 117.443 219.023 117.281C218.831 117.146 218.557 117.018 218.203 116.898C217.849 116.779 217.539 116.719 217.273 116.719C216.945 116.719 216.664 116.755 216.43 116.828C216.195 116.901 216.005 117.026 215.859 117.203C215.714 117.38 215.641 117.589 215.641 117.828C215.641 118.01 215.669 118.174 215.727 118.32C215.784 118.461 215.891 118.591 216.047 118.711C216.203 118.831 216.422 118.927 216.703 119C217.141 119.115 217.539 119.219 217.898 119.312C218.263 119.406 218.591 119.521 218.883 119.656C219.263 119.833 219.555 120.029 219.758 120.242C219.966 120.456 220.109 120.688 220.188 120.938C220.266 121.182 220.305 121.456 220.305 121.758C220.305 122.315 220.138 122.786 219.805 123.172C219.477 123.557 219.109 123.815 218.703 123.945C218.297 124.07 217.807 124.133 217.234 124.133C216.458 124.133 215.792 124.023 215.234 123.805C214.682 123.581 214.326 123.391 214.164 123.234ZM227.539 124C227.305 124 227.188 123.883 227.188 123.648V116.148C227.188 115.914 227.305 115.797 227.539 115.797H228.195C228.43 115.797 228.547 115.914 228.547 116.148V117.086H228.578C228.828 116.617 229.122 116.263 229.461 116.023C229.799 115.784 230.221 115.664 230.727 115.664C231.06 115.664 231.294 115.693 231.43 115.75C231.549 115.797 231.594 115.875 231.562 115.984L231.383 116.625C231.357 116.719 231.289 116.755 231.18 116.734C230.997 116.698 230.826 116.68 230.664 116.68C230.055 116.68 229.552 116.956 229.156 117.508C228.76 118.055 228.562 118.802 228.562 119.75V123.648C228.562 123.883 228.445 124 228.211 124H227.539ZM232.383 119.898C232.383 118.607 232.706 117.578 233.352 116.812C233.997 116.047 234.922 115.664 236.125 115.664C237.125 115.664 237.953 116.016 238.609 116.719C239.271 117.417 239.602 118.534 239.602 120.07C239.602 120.305 239.495 120.422 239.281 120.422H233.836C233.924 121.427 234.195 122.128 234.648 122.523C235.102 122.914 235.615 123.109 236.188 123.109C236.792 123.109 237.255 123.008 237.578 122.805C237.901 122.602 238.138 122.401 238.289 122.203C238.456 121.984 238.617 121.943 238.773 122.078L239.234 122.477C239.354 122.581 239.354 122.724 239.234 122.906C239.135 123.057 238.852 123.299 238.383 123.633C237.919 123.966 237.188 124.133 236.188 124.133C234.885 124.133 233.924 123.75 233.305 122.984C232.69 122.219 232.383 121.19 232.383 119.898ZM233.805 119.406H238.219C238.198 118.677 238.01 118.039 237.656 117.492C237.302 116.94 236.781 116.664 236.094 116.664C235.49 116.664 234.977 116.867 234.555 117.273C234.133 117.674 233.883 118.385 233.805 119.406ZM240.961 119.898C240.961 118.779 241.232 117.794 241.773 116.945C242.315 116.091 243.107 115.664 244.148 115.664C244.747 115.664 245.227 115.763 245.586 115.961C245.945 116.159 246.268 116.43 246.555 116.773H246.57L246.617 116.148C246.633 115.914 246.734 115.797 246.922 115.797H247.578C247.812 115.797 247.93 115.914 247.93 116.148V124.062C247.93 125.062 247.698 125.844 247.234 126.406C246.776 126.974 245.867 127.258 244.508 127.258C243.596 127.258 242.914 127.154 242.461 126.945C242.008 126.742 241.685 126.526 241.492 126.297C241.352 126.125 241.344 125.979 241.469 125.859L241.898 125.438C242.018 125.323 242.185 125.359 242.398 125.547C242.674 125.797 242.94 125.974 243.195 126.078C243.451 126.188 243.891 126.242 244.516 126.242C245.224 126.242 245.74 126.091 246.062 125.789C246.391 125.487 246.555 124.862 246.555 123.914V123.445C246.555 123.284 246.56 123.125 246.57 122.969H246.555C246.284 123.328 245.964 123.612 245.594 123.82C245.229 124.029 244.747 124.133 244.148 124.133C243.107 124.133 242.315 123.708 241.773 122.859C241.232 122.005 240.961 121.018 240.961 119.898ZM242.414 119.898C242.414 120.857 242.578 121.633 242.906 122.227C243.24 122.82 243.802 123.117 244.594 123.117C245.156 123.117 245.622 122.927 245.992 122.547C246.367 122.161 246.555 121.578 246.555 120.797V119C246.555 118.219 246.367 117.638 245.992 117.258C245.622 116.872 245.156 116.68 244.594 116.68C243.802 116.68 243.24 116.977 242.906 117.57C242.578 118.164 242.414 118.94 242.414 119.898ZM249.711 121.812C249.711 120.885 250.143 120.206 251.008 119.773C251.878 119.341 253.174 119.089 254.898 119.016V118.484C254.898 117.995 254.786 117.573 254.562 117.219C254.344 116.859 253.906 116.68 253.25 116.68C252.833 116.68 252.5 116.721 252.25 116.805C252 116.883 251.771 116.99 251.562 117.125C251.359 117.255 251.164 117.424 250.977 117.633C250.836 117.789 250.703 117.797 250.578 117.656L250.172 117.188C250.057 117.057 250.096 116.901 250.289 116.719C250.565 116.458 250.833 116.263 251.094 116.133C251.354 116.003 251.677 115.893 252.062 115.805C252.453 115.711 252.849 115.664 253.25 115.664C254.339 115.664 255.115 115.945 255.578 116.508C256.042 117.065 256.273 117.831 256.273 118.805V123.648C256.273 123.883 256.156 124 255.922 124H255.219C255.016 124 254.914 123.883 254.914 123.648V123.266H254.898C254.487 123.589 254.083 123.815 253.688 123.945C253.297 124.07 252.859 124.133 252.375 124.133C251.521 124.133 250.862 123.93 250.398 123.523C249.94 123.112 249.711 122.542 249.711 121.812ZM251.133 121.844C251.133 122.167 251.201 122.427 251.336 122.625C251.471 122.818 251.659 122.943 251.898 123C252.138 123.052 252.388 123.078 252.648 123.078C253.049 123.078 253.43 123.039 253.789 122.961C254.148 122.883 254.518 122.677 254.898 122.344V120.039C253.846 120.117 253.096 120.214 252.648 120.328C252.201 120.438 251.836 120.63 251.555 120.906C251.273 121.177 251.133 121.49 251.133 121.844ZM258.852 124C258.617 124 258.5 123.883 258.5 123.648V113.898C258.5 113.794 258.526 113.695 258.578 113.602L259.125 112.609C259.224 112.427 259.305 112.336 259.367 112.336H259.641C259.797 112.336 259.875 112.427 259.875 112.609V123.648C259.875 123.883 259.758 124 259.523 124H258.852ZM266.977 119.898C266.977 118.607 267.299 117.578 267.945 116.812C268.591 116.047 269.516 115.664 270.719 115.664C271.719 115.664 272.547 116.016 273.203 116.719C273.865 117.417 274.195 118.534 274.195 120.07C274.195 120.305 274.089 120.422 273.875 120.422H268.43C268.518 121.427 268.789 122.128 269.242 122.523C269.695 122.914 270.208 123.109 270.781 123.109C271.385 123.109 271.849 123.008 272.172 122.805C272.495 122.602 272.732 122.401 272.883 122.203C273.049 121.984 273.211 121.943 273.367 122.078L273.828 122.477C273.948 122.581 273.948 122.724 273.828 122.906C273.729 123.057 273.445 123.299 272.977 123.633C272.513 123.966 271.781 124.133 270.781 124.133C269.479 124.133 268.518 123.75 267.898 122.984C267.284 122.219 266.977 121.19 266.977 119.898ZM268.398 119.406H272.812C272.792 118.677 272.604 118.039 272.25 117.492C271.896 116.94 271.375 116.664 270.688 116.664C270.083 116.664 269.57 116.867 269.148 117.273C268.727 117.674 268.477 118.385 268.398 119.406ZM276.352 124C276.117 124 276 123.883 276 123.648V113.898C276 113.794 276.026 113.695 276.078 113.602L276.625 112.609C276.724 112.427 276.805 112.336 276.867 112.336H277.141C277.297 112.336 277.375 112.427 277.375 112.609V123.648C277.375 123.883 277.258 124 277.023 124H276.352ZM279.148 119.898C279.148 118.607 279.471 117.578 280.117 116.812C280.763 116.047 281.688 115.664 282.891 115.664C283.891 115.664 284.719 116.016 285.375 116.719C286.036 117.417 286.367 118.534 286.367 120.07C286.367 120.305 286.26 120.422 286.047 120.422H280.602C280.69 121.427 280.961 122.128 281.414 122.523C281.867 122.914 282.38 123.109 282.953 123.109C283.557 123.109 284.021 123.008 284.344 122.805C284.667 122.602 284.904 122.401 285.055 122.203C285.221 121.984 285.383 121.943 285.539 122.078L286 122.477C286.12 122.581 286.12 122.724 286 122.906C285.901 123.057 285.617 123.299 285.148 123.633C284.685 123.966 283.953 124.133 282.953 124.133C281.651 124.133 280.69 123.75 280.07 122.984C279.456 122.219 279.148 121.19 279.148 119.898ZM280.57 119.406H284.984C284.964 118.677 284.776 118.039 284.422 117.492C284.068 116.94 283.547 116.664 282.859 116.664C282.255 116.664 281.742 116.867 281.32 117.273C280.898 117.674 280.648 118.385 280.57 119.406ZM287.727 119.898C287.727 118.779 287.997 117.794 288.539 116.945C289.081 116.091 289.872 115.664 290.914 115.664C291.513 115.664 291.992 115.763 292.352 115.961C292.711 116.159 293.034 116.43 293.32 116.773H293.336L293.383 116.148C293.398 115.914 293.5 115.797 293.688 115.797H294.344C294.578 115.797 294.695 115.914 294.695 116.148V124.062C294.695 125.062 294.464 125.844 294 126.406C293.542 126.974 292.633 127.258 291.273 127.258C290.362 127.258 289.68 127.154 289.227 126.945C288.773 126.742 288.451 126.526 288.258 126.297C288.117 126.125 288.109 125.979 288.234 125.859L288.664 125.438C288.784 125.323 288.951 125.359 289.164 125.547C289.44 125.797 289.706 125.974 289.961 126.078C290.216 126.188 290.656 126.242 291.281 126.242C291.99 126.242 292.505 126.091 292.828 125.789C293.156 125.487 293.32 124.862 293.32 123.914V123.445C293.32 123.284 293.326 123.125 293.336 122.969H293.32C293.049 123.328 292.729 123.612 292.359 123.82C291.995 124.029 291.513 124.133 290.914 124.133C289.872 124.133 289.081 123.708 288.539 122.859C287.997 122.005 287.727 121.018 287.727 119.898ZM289.18 119.898C289.18 120.857 289.344 121.633 289.672 122.227C290.005 122.82 290.568 123.117 291.359 123.117C291.922 123.117 292.388 122.927 292.758 122.547C293.133 122.161 293.32 121.578 293.32 120.797V119C293.32 118.219 293.133 117.638 292.758 117.258C292.388 116.872 291.922 116.68 291.359 116.68C290.568 116.68 290.005 116.977 289.672 117.57C289.344 118.164 289.18 118.94 289.18 119.898ZM296.477 121.812C296.477 120.885 296.909 120.206 297.773 119.773C298.643 119.341 299.94 119.089 301.664 119.016V118.484C301.664 117.995 301.552 117.573 301.328 117.219C301.109 116.859 300.672 116.68 300.016 116.68C299.599 116.68 299.266 116.721 299.016 116.805C298.766 116.883 298.536 116.99 298.328 117.125C298.125 117.255 297.93 117.424 297.742 117.633C297.602 117.789 297.469 117.797 297.344 117.656L296.938 117.188C296.823 117.057 296.862 116.901 297.055 116.719C297.331 116.458 297.599 116.263 297.859 116.133C298.12 116.003 298.443 115.893 298.828 115.805C299.219 115.711 299.615 115.664 300.016 115.664C301.104 115.664 301.88 115.945 302.344 116.508C302.807 117.065 303.039 117.831 303.039 118.805V123.648C303.039 123.883 302.922 124 302.688 124H301.984C301.781 124 301.68 123.883 301.68 123.648V123.266H301.664C301.253 123.589 300.849 123.815 300.453 123.945C300.062 124.07 299.625 124.133 299.141 124.133C298.286 124.133 297.628 123.93 297.164 123.523C296.706 123.112 296.477 122.542 296.477 121.812ZM297.898 121.844C297.898 122.167 297.966 122.427 298.102 122.625C298.237 122.818 298.424 122.943 298.664 123C298.904 123.052 299.154 123.078 299.414 123.078C299.815 123.078 300.195 123.039 300.555 122.961C300.914 122.883 301.284 122.677 301.664 122.344V120.039C300.612 120.117 299.862 120.214 299.414 120.328C298.966 120.438 298.602 120.63 298.32 120.906C298.039 121.177 297.898 121.49 297.898 121.844ZM305.617 124C305.383 124 305.266 123.883 305.266 123.648V116.148C305.266 115.914 305.383 115.797 305.617 115.797H306.273C306.508 115.797 306.625 115.914 306.625 116.148V116.773H306.656C306.995 116.398 307.359 116.12 307.75 115.938C308.141 115.755 308.628 115.664 309.211 115.664C310.159 115.664 310.839 115.932 311.25 116.469C311.667 117 311.875 117.729 311.875 118.656V123.648C311.875 123.883 311.758 124 311.523 124H310.852C310.617 124 310.5 123.883 310.5 123.648V119.031C310.5 118.01 310.331 117.365 309.992 117.094C309.654 116.818 309.224 116.68 308.703 116.68C308.026 116.68 307.513 116.883 307.164 117.289C306.815 117.69 306.641 118.38 306.641 119.359V123.648C306.641 123.883 306.523 124 306.289 124H305.617ZM313.633 119.898C313.633 118.674 313.935 117.664 314.539 116.867C315.148 116.065 316.078 115.664 317.328 115.664C318.172 115.664 318.815 115.815 319.258 116.117C319.706 116.414 320.029 116.719 320.227 117.031C320.336 117.203 320.312 117.341 320.156 117.445L319.664 117.766C319.508 117.875 319.352 117.805 319.195 117.555C319.044 117.315 318.831 117.109 318.555 116.938C318.284 116.766 317.875 116.68 317.328 116.68C316.615 116.68 316.062 116.943 315.672 117.469C315.281 117.995 315.086 118.805 315.086 119.898C315.086 120.992 315.281 121.802 315.672 122.328C316.062 122.854 316.615 123.117 317.328 123.117C317.906 123.117 318.349 123.008 318.656 122.789C318.964 122.565 319.188 122.323 319.328 122.062C319.464 121.818 319.617 121.747 319.789 121.852L320.312 122.164C320.469 122.258 320.492 122.398 320.383 122.586C320.253 122.81 319.956 123.125 319.492 123.531C319.034 123.932 318.312 124.133 317.328 124.133C316.078 124.133 315.148 123.734 314.539 122.938C313.935 122.135 313.633 121.122 313.633 119.898ZM321.648 119.898C321.648 118.607 321.971 117.578 322.617 116.812C323.263 116.047 324.188 115.664 325.391 115.664C326.391 115.664 327.219 116.016 327.875 116.719C328.536 117.417 328.867 118.534 328.867 120.07C328.867 120.305 328.76 120.422 328.547 120.422H323.102C323.19 121.427 323.461 122.128 323.914 122.523C324.367 122.914 324.88 123.109 325.453 123.109C326.057 123.109 326.521 123.008 326.844 122.805C327.167 122.602 327.404 122.401 327.555 122.203C327.721 121.984 327.883 121.943 328.039 122.078L328.5 122.477C328.62 122.581 328.62 122.724 328.5 122.906C328.401 123.057 328.117 123.299 327.648 123.633C327.185 123.966 326.453 124.133 325.453 124.133C324.151 124.133 323.19 123.75 322.57 122.984C321.956 122.219 321.648 121.19 321.648 119.898ZM323.07 119.406H327.484C327.464 118.677 327.276 118.039 326.922 117.492C326.568 116.94 326.047 116.664 325.359 116.664C324.755 116.664 324.242 116.867 323.82 117.273C323.398 117.674 323.148 118.385 323.07 119.406Z" fill="white"/>
<path d="M168.646 149.96H171.686C173.686 151.32 174.686 153.053 174.686 155.16C174.686 156.44 174.233 157.867 173.326 159.44C173.06 159.92 172.593 160.667 171.926 161.68L167.806 168H161.606L169.726 155.16L169.606 154.8H160.366V140H173.486V144.8H165.686V150.48C166.486 150.133 167.473 149.96 168.646 149.96ZM175.909 168V162.08H181.669V164.44C181.669 166.44 181.442 168.053 180.989 169.28C180.535 170.507 179.629 172.067 178.269 173.96L175.949 172.84C177.229 170.867 178.002 169.253 178.269 168H175.909ZM196.934 168H189.294C187.507 166.213 186.214 164.107 185.414 161.68C184.641 159.253 184.254 156.827 184.254 154.4C184.254 148.187 185.934 143.387 189.294 140H196.934C198.694 141.787 199.974 143.893 200.774 146.32C201.574 148.72 201.974 151.12 201.974 153.52C201.974 159.813 200.294 164.64 196.934 168ZM194.854 144.8H191.414C190.241 147.2 189.654 150.253 189.654 153.96C189.654 157.667 190.227 160.8 191.374 163.36H194.894C196.041 160.427 196.614 157.2 196.614 153.68C196.614 150.16 196.027 147.2 194.854 144.8ZM216.66 168H209.02C207.234 166.213 205.94 164.107 205.14 161.68C204.367 159.253 203.98 156.827 203.98 154.4C203.98 148.187 205.66 143.387 209.02 140H216.66C218.42 141.787 219.7 143.893 220.5 146.32C221.3 148.72 221.7 151.12 221.7 153.52C221.7 159.813 220.02 164.64 216.66 168ZM214.58 144.8H211.14C209.967 147.2 209.38 150.253 209.38 153.96C209.38 157.667 209.954 160.8 211.1 163.36H214.62C215.767 160.427 216.34 157.2 216.34 153.68C216.34 150.16 215.754 147.2 214.58 144.8ZM236.387 168H228.747C226.96 166.213 225.667 164.107 224.867 161.68C224.094 159.253 223.707 156.827 223.707 154.4C223.707 148.187 225.387 143.387 228.747 140H236.387C238.147 141.787 239.427 143.893 240.227 146.32C241.027 148.72 241.427 151.12 241.427 153.52C241.427 159.813 239.747 164.64 236.387 168ZM234.307 144.8H230.867C229.694 147.2 229.107 150.253 229.107 153.96C229.107 157.667 229.68 160.8 230.827 163.36H234.347C235.494 160.427 236.067 157.2 236.067 153.68C236.067 150.16 235.48 147.2 234.307 144.8Z" fill="#D3AF37"/>
<rect x="26" y="26" width="348" height="168" stroke="#D3AF37" stroke-width="2"/>
<rect x="1" y="1" width="398" height="218" stroke="#D3AF37" stroke-width="2"/>
<path d="M30 29L31.1226 32.4549H34.7553L31.8164 34.5902L32.9389 38.0451L30 35.9098L27.0611 38.0451L28.1836 34.5902L25.2447 32.4549H28.8774L30 29Z" fill="#D9D9D9"/>
<path d="M44 29L45.1226 32.4549H48.7553L45.8164 34.5902L46.9389 38.0451L44 35.9098L41.0611 38.0451L42.1836 34.5902L39.2447 32.4549H42.8774L44 29Z" fill="#D9D9D9"/>
<path d="M58 29L59.1226 32.4549H62.7553L59.8164 34.5902L60.9389 38.0451L58 35.9098L55.0611 38.0451L56.1836 34.5902L53.2447 32.4549H56.8774L58 29Z" fill="#D9D9D9"/>
<path d="M72 29L73.1226 32.4549H76.7553L73.8164 34.5902L74.9389 38.0451L72 35.9098L69.0611 38.0451L70.1836 34.5902L67.2447 32.4549H70.8774L72 29Z" fill="#D9D9D9"/>
<path d="M86 29L87.1226 32.4549H90.7553L87.8164 34.5902L88.9389 38.0451L86 35.9098L83.0611 38.0451L84.1836 34.5902L81.2447 32.4549H84.8774L86 29Z" fill="#D9D9D9"/>
<path d="M100 29L101.123 32.4549H104.755L101.816 34.5902L102.939 38.0451L100 35.9098L97.0611 38.0451L98.1836 34.5902L95.2447 32.4549H98.8774L100 29Z" fill="#D9D9D9"/>
<path d="M114 29L115.123 32.4549H118.755L115.816 34.5902L116.939 38.0451L114 35.9098L111.061 38.0451L112.184 34.5902L109.245 32.4549H112.877L114 29Z" fill="#D9D9D9"/>
<path d="M128 29L129.123 32.4549H132.755L129.816 34.5902L130.939 38.0451L128 35.9098L125.061 38.0451L126.184 34.5902L123.245 32.4549H126.877L128 29Z" fill="#D9D9D9"/>
<path d="M142 29L143.123 32.4549H146.755L143.816 34.5902L144.939 38.0451L142 35.9098L139.061 38.0451L140.184 34.5902L137.245 32.4549H140.877L142 29Z" fill="#D9D9D9"/>
<path d="M156 29L157.123 32.4549H160.755L157.816 34.5902L158.939 38.0451L156 35.9098L153.061 38.0451L154.184 34.5902L151.245 32.4549H154.877L156 29Z" fill="#D9D9D9"/>
<path d="M170 29L171.123 32.4549H174.755L171.816 34.5902L172.939 38.0451L170 35.9098L167.061 38.0451L168.184 34.5902L165.245 32.4549H168.877L170 29Z" fill="#D9D9D9"/>
<path d="M184 29L185.123 32.4549H188.755L185.816 34.5902L186.939 38.0451L184 35.9098L181.061 38.0451L182.184 34.5902L179.245 32.4549H182.877L184 29Z" fill="#D9D9D9"/>
<path d="M198 29L199.123 32.4549H202.755L199.816 34.5902L200.939 38.0451L198 35.9098L195.061 38.0451L196.184 34.5902L193.245 32.4549H196.877L198 29Z" fill="#D9D9D9"/>
<path d="M212 29L213.123 32.4549H216.755L213.816 34.5902L214.939 38.0451L212 35.9098L209.061 38.0451L210.184 34.5902L207.245 32.4549H210.877L212 29Z" fill="#D9D9D9"/>
<path d="M226 29L227.123 32.4549H230.755L227.816 34.5902L228.939 38.0451L226 35.9098L223.061 38.0451L224.184 34.5902L221.245 32.4549H224.877L226 29Z" fill="#D9D9D9"/>
<path d="M240 29L241.123 32.4549H244.755L241.816 34.5902L242.939 38.0451L240 35.9098L237.061 38.0451L238.184 34.5902L235.245 32.4549H238.877L240 29Z" fill="#D9D9D9"/>
<path d="M254 29L255.123 32.4549H258.755L255.816 34.5902L256.939 38.0451L254 35.9098L251.061 38.0451L252.184 34.5902L249.245 32.4549H252.877L254 29Z" fill="#D9D9D9"/>
<path d="M268 29L269.123 32.4549H272.755L269.816 34.5902L270.939 38.0451L268 35.9098L265.061 38.0451L266.184 34.5902L263.245 32.4549H266.877L268 29Z" fill="#D9D9D9"/>
<path d="M282 29L283.123 32.4549H286.755L283.816 34.5902L284.939 38.0451L282 35.9098L279.061 38.0451L280.184 34.5902L277.245 32.4549H280.877L282 29Z" fill="#D9D9D9"/>
<path d="M296 29L297.123 32.4549H300.755L297.816 34.5902L298.939 38.0451L296 35.9098L293.061 38.0451L294.184 34.5902L291.245 32.4549H294.877L296 29Z" fill="#D9D9D9"/>
<path d="M310 29L311.123 32.4549H314.755L311.816 34.5902L312.939 38.0451L310 35.9098L307.061 38.0451L308.184 34.5902L305.245 32.4549H308.877L310 29Z" fill="#D9D9D9"/>
<path d="M324 29L325.123 32.4549H328.755L325.816 34.5902L326.939 38.0451L324 35.9098L321.061 38.0451L322.184 34.5902L319.245 32.4549H322.877L324 29Z" fill="#D9D9D9"/>
<path d="M338 29L339.123 32.4549H342.755L339.816 34.5902L340.939 38.0451L338 35.9098L335.061 38.0451L336.184 34.5902L333.245 32.4549H336.877L338 29Z" fill="#D9D9D9"/>
<path d="M352 29L353.123 32.4549H356.755L353.816 34.5902L354.939 38.0451L352 35.9098L349.061 38.0451L350.184 34.5902L347.245 32.4549H350.877L352 29Z" fill="#D9D9D9"/>
<path d="M366 29L367.123 32.4549H370.755L367.816 34.5902L368.939 38.0451L366 35.9098L363.061 38.0451L364.184 34.5902L361.245 32.4549H364.877L366 29Z" fill="#D9D9D9"/>
<path d="M30 181L31.1226 184.455H34.7553L31.8164 186.59L32.9389 190.045L30 187.91L27.0611 190.045L28.1836 186.59L25.2447 184.455H28.8774L30 181Z" fill="#D9D9D9"/>
<path d="M44 181L45.1226 184.455H48.7553L45.8164 186.59L46.9389 190.045L44 187.91L41.0611 190.045L42.1836 186.59L39.2447 184.455H42.8774L44 181Z" fill="#D9D9D9"/>
<path d="M58 181L59.1226 184.455H62.7553L59.8164 186.59L60.9389 190.045L58 187.91L55.0611 190.045L56.1836 186.59L53.2447 184.455H56.8774L58 181Z" fill="#D9D9D9"/>
<path d="M72 181L73.1226 184.455H76.7553L73.8164 186.59L74.9389 190.045L72 187.91L69.0611 190.045L70.1836 186.59L67.2447 184.455H70.8774L72 181Z" fill="#D9D9D9"/>
<path d="M86 181L87.1226 184.455H90.7553L87.8164 186.59L88.9389 190.045L86 187.91L83.0611 190.045L84.1836 186.59L81.2447 184.455H84.8774L86 181Z" fill="#D9D9D9"/>
<path d="M100 181L101.123 184.455H104.755L101.816 186.59L102.939 190.045L100 187.91L97.0611 190.045L98.1836 186.59L95.2447 184.455H98.8774L100 181Z" fill="#D9D9D9"/>
<path d="M114 181L115.123 184.455H118.755L115.816 186.59L116.939 190.045L114 187.91L111.061 190.045L112.184 186.59L109.245 184.455H112.877L114 181Z" fill="#D9D9D9"/>
<path d="M128 181L129.123 184.455H132.755L129.816 186.59L130.939 190.045L128 187.91L125.061 190.045L126.184 186.59L123.245 184.455H126.877L128 181Z" fill="#D9D9D9"/>
<path d="M142 181L143.123 184.455H146.755L143.816 186.59L144.939 190.045L142 187.91L139.061 190.045L140.184 186.59L137.245 184.455H140.877L142 181Z" fill="#D9D9D9"/>
<path d="M156 181L157.123 184.455H160.755L157.816 186.59L158.939 190.045L156 187.91L153.061 190.045L154.184 186.59L151.245 184.455H154.877L156 181Z" fill="#D9D9D9"/>
<path d="M170 181L171.123 184.455H174.755L171.816 186.59L172.939 190.045L170 187.91L167.061 190.045L168.184 186.59L165.245 184.455H168.877L170 181Z" fill="#D9D9D9"/>
<path d="M184 181L185.123 184.455H188.755L185.816 186.59L186.939 190.045L184 187.91L181.061 190.045L182.184 186.59L179.245 184.455H182.877L184 181Z" fill="#D9D9D9"/>
<path d="M198 181L199.123 184.455H202.755L199.816 186.59L200.939 190.045L198 187.91L195.061 190.045L196.184 186.59L193.245 184.455H196.877L198 181Z" fill="#D9D9D9"/>
<path d="M212 181L213.123 184.455H216.755L213.816 186.59L214.939 190.045L212 187.91L209.061 190.045L210.184 186.59L207.245 184.455H210.877L212 181Z" fill="#D9D9D9"/>
<path d="M226 181L227.123 184.455H230.755L227.816 186.59L228.939 190.045L226 187.91L223.061 190.045L224.184 186.59L221.245 184.455H224.877L226 181Z" fill="#D9D9D9"/>
<path d="M240 181L241.123 184.455H244.755L241.816 186.59L242.939 190.045L240 187.91L237.061 190.045L238.184 186.59L235.245 184.455H238.877L240 181Z" fill="#D9D9D9"/>
<path d="M254 181L255.123 184.455H258.755L255.816 186.59L256.939 190.045L254 187.91L251.061 190.045L252.184 186.59L249.245 184.455H252.877L254 181Z" fill="#D9D9D9"/>
<path d="M268 181L269.123 184.455H272.755L269.816 186.59L270.939 190.045L268 187.91L265.061 190.045L266.184 186.59L263.245 184.455H266.877L268 181Z" fill="#D9D9D9"/>
<path d="M282 181L283.123 184.455H286.755L283.816 186.59L284.939 190.045L282 187.91L279.061 190.045L280.184 186.59L277.245 184.455H280.877L282 181Z" fill="#D9D9D9"/>
<path d="M296 181L297.123 184.455H300.755L297.816 186.59L298.939 190.045L296 187.91L293.061 190.045L294.184 186.59L291.245 184.455H294.877L296 181Z" fill="#D9D9D9"/>
<path d="M310 181L311.123 184.455H314.755L311.816 186.59L312.939 190.045L310 187.91L307.061 190.045L308.184 186.59L305.245 184.455H308.877L310 181Z" fill="#D9D9D9"/>
<path d="M324 181L325.123 184.455H328.755L325.816 186.59L326.939 190.045L324 187.91L321.061 190.045L322.184 186.59L319.245 184.455H322.877L324 181Z" fill="#D9D9D9"/>
<path d="M338 181L339.123 184.455H342.755L339.816 186.59L340.939 190.045L338 187.91L335.061 190.045L336.184 186.59L333.245 184.455H336.877L338 181Z" fill="#D9D9D9"/>
<path d="M352 181L353.123 184.455H356.755L353.816 186.59L354.939 190.045L352 187.91L349.061 190.045L350.184 186.59L347.245 184.455H350.877L352 181Z" fill="#D9D9D9"/>
<path d="M366 181L367.123 184.455H370.755L367.816 186.59L368.939 190.045L366 187.91L363.061 190.045L364.184 186.59L361.245 184.455H364.877L366 181Z" fill="#D9D9D9"/>
</g>
<defs>
<linearGradient id="paint0_linear_9_2" x1="-1.19365e-05" y1="50.7132" x2="508.283" y2="357.555" gradientUnits="userSpaceOnUse">
<stop offset="0.129255" stop-color="#6A0DAD"/>
<stop offset="1" stop-color="#1E90FF"/>
</linearGradient>
<clipPath id="clip0_9_2">
<rect width="400" height="220" rx="10" fill="white"/>
</clipPath>
</defs>
</svg>
