<svg width="400" height="220" viewBox="0 0 400 220" fill="none" xmlns="http://www.w3.org/2000/svg">
<g clip-path="url(#clip0_12_102)">
<rect width="400" height="220" rx="10" fill="#333333"/>
<path d="M188.137 63.3047C187.993 63.3307 187.87 63.3698 187.766 63.4219C187.674 63.4609 187.59 63.5065 187.512 63.5586C187.447 63.6107 187.414 63.6693 187.414 63.7344C187.414 63.7865 187.316 63.8581 187.121 63.9492C186.926 64.0404 186.704 64.138 186.457 64.2422C186.21 64.3464 185.962 64.4505 185.715 64.5547C185.48 64.6458 185.318 64.7109 185.227 64.75C185.044 64.8542 184.862 64.9323 184.68 64.9844C184.497 65.0365 184.335 65.1016 184.191 65.1797C183.944 65.3229 183.755 65.4596 183.625 65.5898C183.495 65.707 183.365 65.7656 183.234 65.7656C182.779 65.7656 182.375 65.7396 182.023 65.6875C181.672 65.6354 181.346 65.6094 181.047 65.6094C180.734 65.6094 180.5 65.7461 180.344 66.0195C180.201 66.293 180.09 66.6315 180.012 67.0352C179.947 67.4388 179.895 67.8685 179.855 68.3242C179.829 68.7799 179.771 69.1901 179.68 69.5547C179.602 69.8281 179.536 70.1732 179.484 70.5898C179.445 70.9935 179.4 71.4167 179.348 71.8594C179.309 72.3021 179.27 72.7448 179.23 73.1875C179.191 73.6302 179.146 74.0273 179.094 74.3789C179.042 74.6784 178.977 74.9323 178.898 75.1406C178.82 75.3359 178.781 75.5638 178.781 75.8242C178.781 75.9544 178.781 76.0846 178.781 76.2148C178.794 76.332 178.801 76.4557 178.801 76.5859C178.801 77.0156 178.762 77.4583 178.684 77.9141C178.605 78.3568 178.547 78.7799 178.508 79.1836C178.456 79.6393 178.43 80.0625 178.43 80.4531C178.43 80.8438 178.41 81.1953 178.371 81.5078C178.345 81.612 178.293 81.7357 178.215 81.8789C178.15 82.0221 178.098 82.1914 178.059 82.3867C178.059 82.3997 178.052 82.5234 178.039 82.7578C178.026 82.9922 178.007 83.2526 177.98 83.5391C177.967 83.8255 177.954 84.0924 177.941 84.3398C177.928 84.5742 177.922 84.7044 177.922 84.7305C178.013 84.8346 178.143 84.8867 178.312 84.8867C178.573 84.8867 178.859 84.8411 179.172 84.75C179.484 84.6589 179.829 84.6133 180.207 84.6133C180.441 84.6133 180.604 84.6979 180.695 84.8672C180.669 85.0495 180.604 85.1732 180.5 85.2383C180.396 85.3034 180.266 85.349 180.109 85.375C179.953 85.388 179.784 85.3945 179.602 85.3945C179.419 85.3945 179.25 85.4141 179.094 85.4531C178.964 85.4792 178.82 85.5247 178.664 85.5898C178.521 85.6419 178.371 85.694 178.215 85.7461C177.993 85.8112 177.766 85.8503 177.531 85.8633C177.31 85.8633 177.147 85.9219 177.043 86.0391C176.939 86.1562 176.815 86.2865 176.672 86.4297C176.529 86.5729 176.327 86.6445 176.066 86.6445C175.845 86.6445 175.611 86.6185 175.363 86.5664C175.129 86.5143 174.862 86.4883 174.562 86.4883C174.289 86.4883 174.029 86.5143 173.781 86.5664C173.534 86.6185 173.293 86.6706 173.059 86.7227C172.837 86.7878 172.629 86.8398 172.434 86.8789C172.251 86.931 172.089 86.957 171.945 86.957C171.789 86.957 171.659 86.9115 171.555 86.8203C171.451 86.7422 171.398 86.6315 171.398 86.4883C171.398 86.4232 171.424 86.3385 171.477 86.2344C171.542 86.1302 171.626 86.0326 171.73 85.9414C171.835 85.8372 171.952 85.7526 172.082 85.6875C172.225 85.6224 172.382 85.5898 172.551 85.5898C172.616 85.5898 172.72 85.6094 172.863 85.6484C173.007 85.6745 173.169 85.6875 173.352 85.6875C173.508 85.6875 173.645 85.681 173.762 85.668C173.892 85.6549 174.009 85.6159 174.113 85.5508C174.217 85.4857 174.315 85.388 174.406 85.2578C174.51 85.1276 174.615 84.9518 174.719 84.7305C174.784 84.5872 174.829 84.4375 174.855 84.2812C174.895 84.125 174.914 83.9492 174.914 83.7539C174.927 83.5586 174.94 83.3372 174.953 83.0898C174.966 82.8424 174.986 82.5625 175.012 82.25C175.012 82.1328 175.064 81.957 175.168 81.7227C175.272 81.4883 175.324 81.2214 175.324 80.9219C175.324 80.7786 175.318 80.6419 175.305 80.5117C175.292 80.3815 175.285 80.2643 175.285 80.1602C175.285 79.9388 175.318 79.724 175.383 79.5156C175.448 79.3073 175.52 79.0534 175.598 78.7539V78.6562C175.598 78.6172 175.591 78.5781 175.578 78.5391C175.578 78.487 175.578 78.4414 175.578 78.4023C175.695 78.2852 175.78 78.0768 175.832 77.7773C175.884 77.4779 175.923 77.1393 175.949 76.7617C175.988 76.3711 176.021 75.9674 176.047 75.5508C176.073 75.1211 176.118 74.7305 176.184 74.3789C176.184 74.3659 176.21 74.2292 176.262 73.9688C176.327 73.6953 176.398 73.3828 176.477 73.0312C176.555 72.6797 176.62 72.3281 176.672 71.9766C176.737 71.612 176.77 71.332 176.77 71.1367C176.77 71.0195 176.763 70.9023 176.75 70.7852C176.75 70.668 176.75 70.5573 176.75 70.4531C176.75 70.2318 176.776 69.9193 176.828 69.5156C176.893 69.112 176.958 68.6888 177.023 68.2461C177.089 67.7904 177.147 67.3542 177.199 66.9375C177.264 66.5208 177.297 66.1888 177.297 65.9414C177.297 65.7982 177.264 65.7005 177.199 65.6484C177.134 65.5833 176.952 65.5508 176.652 65.5508C176.027 65.5508 175.415 65.5898 174.816 65.668C174.217 65.7461 173.671 65.8438 173.176 65.9609C172.694 66.0651 172.29 66.1693 171.965 66.2734C171.639 66.3776 171.438 66.4557 171.359 66.5078C171.307 66.5469 171.229 66.638 171.125 66.7812C171.021 66.9115 170.904 67.0547 170.773 67.2109C170.643 67.3672 170.507 67.5104 170.363 67.6406C170.22 67.7578 170.077 67.8164 169.934 67.8164C169.842 67.8164 169.745 67.7839 169.641 67.7188C169.549 67.6406 169.504 67.556 169.504 67.4648C169.504 67.3867 169.569 67.263 169.699 67.0938C169.829 66.9245 169.986 66.7422 170.168 66.5469C170.35 66.3516 170.539 66.1628 170.734 65.9805C170.93 65.7852 171.092 65.6224 171.223 65.4922C171.366 65.362 171.535 65.1927 171.73 64.9844C171.939 64.776 172.141 64.5742 172.336 64.3789C172.544 64.1836 172.746 64.0143 172.941 63.8711C173.137 63.7148 173.293 63.6172 173.41 63.5781C173.527 63.5521 173.697 63.526 173.918 63.5C174.139 63.4609 174.289 63.4414 174.367 63.4414C174.576 63.4414 174.803 63.4674 175.051 63.5195C175.311 63.5586 175.539 63.5781 175.734 63.5781C175.943 63.5781 176.145 63.5586 176.34 63.5195C176.535 63.4674 176.724 63.4414 176.906 63.4414C177.102 63.4414 177.31 63.4674 177.531 63.5195C177.753 63.5716 177.935 63.5977 178.078 63.5977C178.326 63.5977 178.547 63.513 178.742 63.3438C178.951 63.1745 179.139 62.9857 179.309 62.7773C179.491 62.569 179.654 62.3802 179.797 62.2109C179.94 62.0417 180.07 61.957 180.188 61.957C180.37 61.957 180.493 61.9961 180.559 62.0742C180.624 62.1523 180.656 62.2305 180.656 62.3086C180.656 62.3997 180.63 62.4974 180.578 62.6016C180.539 62.6927 180.493 62.7839 180.441 62.875C180.389 62.9661 180.337 63.0573 180.285 63.1484C180.246 63.2266 180.227 63.2982 180.227 63.3633C180.227 63.4414 180.266 63.513 180.344 63.5781C180.435 63.6302 180.546 63.6758 180.676 63.7148C180.819 63.7409 180.962 63.7604 181.105 63.7734C181.262 63.7865 181.411 63.793 181.555 63.793C181.776 63.793 181.991 63.7865 182.199 63.7734C182.408 63.7474 182.596 63.7344 182.766 63.7344C182.831 63.7344 182.902 63.7604 182.98 63.8125C183.072 63.8516 183.13 63.8711 183.156 63.8711C183.208 63.8711 183.299 63.8516 183.43 63.8125C183.56 63.7734 183.71 63.7539 183.879 63.7539H184.426C184.777 63.7539 185.142 63.6823 185.52 63.5391C185.897 63.3828 186.281 63.2005 186.672 62.9922C186.789 62.9531 186.893 62.8945 186.984 62.8164C187.076 62.7383 187.167 62.6667 187.258 62.6016C187.349 62.5234 187.434 62.4583 187.512 62.4062C187.603 62.3542 187.701 62.3281 187.805 62.3281C188.078 62.3281 188.215 62.4518 188.215 62.6992C188.215 62.7643 188.195 62.8229 188.156 62.875C188.13 62.9271 188.117 62.9857 188.117 63.0508C188.117 63.0768 188.117 63.1159 188.117 63.168C188.13 63.207 188.137 63.2396 188.137 63.2656V63.3047ZM202.59 80.5703C202.694 80.6354 202.746 80.7266 202.746 80.8438C202.746 80.9349 202.714 81.0326 202.648 81.1367C202.596 81.2279 202.531 81.319 202.453 81.4102C202.375 81.5013 202.303 81.5794 202.238 81.6445C202.173 81.6966 202.141 81.7292 202.141 81.7422C202.049 81.8333 201.978 81.918 201.926 81.9961C201.887 82.0612 201.815 82.1654 201.711 82.3086C201.62 82.4518 201.535 82.569 201.457 82.6602C201.379 82.7513 201.294 82.8424 201.203 82.9336C201.125 83.0247 201.04 83.1224 200.949 83.2266C200.858 83.3307 200.767 83.4609 200.676 83.6172L200.09 84.3594C200.051 84.4245 199.992 84.4961 199.914 84.5742C199.849 84.6393 199.81 84.7109 199.797 84.7891C199.797 84.8542 199.758 84.9128 199.68 84.9648C199.602 85.0039 199.517 85.0495 199.426 85.1016C199.335 85.1406 199.25 85.1862 199.172 85.2383C199.094 85.2904 199.055 85.349 199.055 85.4141C199.055 85.4401 199.061 85.4792 199.074 85.5312C199.087 85.5703 199.094 85.6029 199.094 85.6289C199.094 85.668 199.068 85.6875 199.016 85.6875C198.99 85.6875 198.957 85.6875 198.918 85.6875C198.879 85.6745 198.846 85.668 198.82 85.668C198.768 85.668 198.729 85.7135 198.703 85.8047C198.69 85.8958 198.671 85.9479 198.645 85.9609C198.566 86.013 198.423 86.0716 198.215 86.1367C198.007 86.2018 197.792 86.2669 197.57 86.332C197.362 86.3971 197.167 86.4492 196.984 86.4883C196.815 86.5404 196.717 86.5664 196.691 86.5664C196.652 86.5664 196.62 86.5599 196.594 86.5469C196.594 86.5339 196.542 86.4883 196.438 86.4102C196.333 86.332 196.223 86.2344 196.105 86.1172C195.988 86.013 195.878 85.8958 195.773 85.7656C195.669 85.6354 195.617 85.5052 195.617 85.375C195.617 85.2708 195.624 85.1536 195.637 85.0234C195.663 84.8932 195.689 84.7174 195.715 84.4961C195.741 84.4961 195.767 84.4896 195.793 84.4766C195.845 84.4505 195.871 84.4115 195.871 84.3594C195.871 84.2943 195.845 84.2227 195.793 84.1445C195.741 84.0664 195.715 83.9688 195.715 83.8516C195.715 83.6562 195.76 83.487 195.852 83.3438C195.943 83.2005 196.001 83.0573 196.027 82.9141C196.066 82.4844 196.079 82.0286 196.066 81.5469C196.066 81.0651 196.099 80.5898 196.164 80.1211C196.19 79.8997 196.242 79.6784 196.32 79.457C196.398 79.2227 196.444 79.0078 196.457 78.8125C196.457 78.7474 196.451 78.6758 196.438 78.5977C196.438 78.5195 196.438 78.4479 196.438 78.3828C196.438 78.2135 196.464 78.1029 196.516 78.0508C196.568 77.9857 196.594 77.901 196.594 77.7969C196.594 77.6667 196.568 77.5365 196.516 77.4062C196.477 77.276 196.457 77.1458 196.457 77.0156C196.457 76.6901 196.49 76.3776 196.555 76.0781C196.62 75.7786 196.691 75.4792 196.77 75.1797C196.848 74.8672 196.919 74.5547 196.984 74.2422C197.049 73.9167 197.082 73.5781 197.082 73.2266C197.082 73.1224 197.082 73.0117 197.082 72.8945C197.082 72.7773 197.069 72.6602 197.043 72.543C196.691 72.569 196.385 72.7122 196.125 72.9727C195.878 73.2331 195.643 73.4805 195.422 73.7148C195.253 73.8971 195.083 74.0794 194.914 74.2617C194.758 74.431 194.589 74.6328 194.406 74.8672C194.276 75.0365 194.159 75.2513 194.055 75.5117C193.951 75.7721 193.827 76.0521 193.684 76.3516C193.684 76.3516 193.658 76.3776 193.605 76.4297C193.553 76.4818 193.495 76.5404 193.43 76.6055C193.365 76.6706 193.299 76.7487 193.234 76.8398C193.182 76.918 193.137 76.9896 193.098 77.0547C192.993 77.263 192.902 77.5234 192.824 77.8359C192.746 78.1484 192.59 78.526 192.355 78.9688C192.303 79.0729 192.258 79.151 192.219 79.2031C192.193 79.2422 192.167 79.3203 192.141 79.4375C192.115 79.5417 192.082 79.7109 192.043 79.9453C192.017 80.1797 191.978 80.5312 191.926 81C191.9 81.1562 191.854 81.2995 191.789 81.4297C191.724 81.5469 191.678 81.6966 191.652 81.8789C191.613 82.1393 191.594 82.4258 191.594 82.7383C191.594 83.0378 191.561 83.3307 191.496 83.6172C191.47 83.6823 191.418 83.7409 191.34 83.793C191.275 83.8451 191.229 83.8906 191.203 83.9297C191.112 84.0729 191.06 84.2227 191.047 84.3789C191.047 84.5352 191.001 84.6719 190.91 84.7891C190.884 84.8281 190.832 84.8607 190.754 84.8867C190.676 84.8997 190.63 84.9193 190.617 84.9453C190.513 85.1406 190.435 85.3229 190.383 85.4922C190.331 85.6484 190.279 85.7852 190.227 85.9023C190.188 86.0195 190.129 86.1107 190.051 86.1758C189.986 86.2409 189.875 86.2734 189.719 86.2734C189.602 86.2734 189.465 86.2539 189.309 86.2148C189.165 86.1758 189.022 86.1237 188.879 86.0586C188.749 85.9935 188.638 85.9219 188.547 85.8438C188.456 85.7526 188.41 85.6615 188.41 85.5703C188.41 85.4531 188.462 85.3164 188.566 85.1602C188.671 85.0039 188.723 84.7435 188.723 84.3789C188.723 84.1445 188.703 83.9557 188.664 83.8125C188.638 83.6562 188.625 83.4935 188.625 83.3242C188.625 83.194 188.645 83.0703 188.684 82.9531C188.736 82.8229 188.781 82.7057 188.82 82.6016C188.872 82.4844 188.918 82.3737 188.957 82.2695C189.009 82.1523 189.035 82.0417 189.035 81.9375C189.035 81.8333 189.029 81.7357 189.016 81.6445C189.003 81.5534 188.996 81.4557 188.996 81.3516C188.996 81.1432 189.035 80.9414 189.113 80.7461C189.191 80.5508 189.257 80.3424 189.309 80.1211C189.348 79.9518 189.374 79.763 189.387 79.5547C189.413 79.3464 189.439 79.151 189.465 78.9688C189.608 78.0833 189.771 77.1914 189.953 76.293C190.148 75.3815 190.324 74.4245 190.48 73.4219C190.48 73.3958 190.5 73.3503 190.539 73.2852C190.591 73.2201 190.617 73.1484 190.617 73.0703C190.617 73.0052 190.611 72.9271 190.598 72.8359C190.598 72.7448 190.598 72.6471 190.598 72.543C190.598 72.3216 190.65 72.1198 190.754 71.9375C190.858 71.7422 190.91 71.5208 190.91 71.2734C190.91 71.0911 190.891 70.9284 190.852 70.7852C190.812 70.6289 190.793 70.4661 190.793 70.2969C190.793 70.1667 190.812 70.056 190.852 69.9648C190.904 69.8737 190.956 69.7956 191.008 69.7305C191.06 69.6654 191.105 69.6068 191.145 69.5547C191.197 69.4896 191.223 69.4245 191.223 69.3594C191.223 69.2552 191.19 69.1771 191.125 69.125C191.073 69.0729 191.047 69.0078 191.047 68.9297C191.099 68.9297 191.138 68.8906 191.164 68.8125L191.203 68.6953V68.5195C191.203 68.3893 191.236 68.2721 191.301 68.168C191.379 68.0508 191.444 67.9076 191.496 67.7383C191.561 67.5299 191.594 67.3346 191.594 67.1523C191.594 66.9701 191.613 66.7292 191.652 66.4297C191.678 66.2604 191.73 66.0911 191.809 65.9219C191.9 65.7396 191.945 65.4987 191.945 65.1992C191.945 65.056 191.932 64.9258 191.906 64.8086C191.893 64.6784 191.887 64.5482 191.887 64.418C191.887 64.3008 191.9 64.2031 191.926 64.125C191.965 64.0469 192.004 63.9818 192.043 63.9297C192.095 63.8646 192.134 63.806 192.16 63.7539C192.199 63.7018 192.219 63.6367 192.219 63.5586C192.219 63.4544 192.193 63.3568 192.141 63.2656C192.102 63.1745 192.082 63.0768 192.082 62.9727C192.082 62.8294 192.108 62.6536 192.16 62.4453C192.212 62.237 192.271 62.0286 192.336 61.8203C192.414 61.612 192.479 61.4297 192.531 61.2734C192.583 61.1042 192.609 60.9935 192.609 60.9414C192.609 60.8242 192.557 60.7461 192.453 60.707C192.349 60.6549 192.264 60.6289 192.199 60.6289C192.056 60.6289 191.926 60.681 191.809 60.7852C191.691 60.8763 191.574 60.9935 191.457 61.1367C191.353 61.2669 191.255 61.4036 191.164 61.5469C191.073 61.6901 190.988 61.8073 190.91 61.8984C190.845 61.9635 190.767 62.0156 190.676 62.0547C190.585 62.0807 190.52 62.1263 190.48 62.1914C190.428 62.2565 190.37 62.3411 190.305 62.4453C190.253 62.5365 190.188 62.6341 190.109 62.7383C190.044 62.8294 189.973 62.9076 189.895 62.9727C189.829 63.0378 189.758 63.0703 189.68 63.0703C189.602 63.0703 189.497 63.0052 189.367 62.875C189.25 62.7448 189.191 62.6081 189.191 62.4648C189.191 62.3997 189.211 62.3477 189.25 62.3086C189.302 62.2695 189.354 62.2305 189.406 62.1914C189.471 62.1523 189.536 62.1003 189.602 62.0352C189.667 61.957 189.712 61.8594 189.738 61.7422C189.777 61.5729 189.868 61.4167 190.012 61.2734C190.155 61.1302 190.331 60.974 190.539 60.8047C190.76 60.6354 191.014 60.4336 191.301 60.1992C191.587 59.9518 191.893 59.6458 192.219 59.2812C192.323 59.1641 192.447 59.0664 192.59 58.9883C192.733 58.9102 192.857 58.8125 192.961 58.6953C193.013 58.6432 193.039 58.5716 193.039 58.4805C193.039 58.3893 193.059 58.3112 193.098 58.2461C193.137 58.207 193.215 58.1484 193.332 58.0703C193.449 57.9792 193.579 57.8945 193.723 57.8164C193.866 57.7253 194.003 57.6536 194.133 57.6016C194.263 57.5365 194.354 57.5039 194.406 57.5039C194.849 57.5039 195.122 57.5885 195.227 57.7578C195.344 57.9141 195.402 58.1159 195.402 58.3633C195.402 58.5846 195.37 58.8385 195.305 59.125C195.253 59.3984 195.188 59.6914 195.109 60.0039C195.044 60.3034 194.979 60.6094 194.914 60.9219C194.862 61.2344 194.836 61.5273 194.836 61.8008C194.836 61.931 194.842 62.0482 194.855 62.1523C194.868 62.2435 194.875 62.3411 194.875 62.4453C194.875 62.6927 194.81 62.9076 194.68 63.0898C194.549 63.2591 194.458 63.4479 194.406 63.6562C194.341 63.9297 194.296 64.1901 194.27 64.4375C194.243 64.6849 194.217 64.9388 194.191 65.1992C194.178 65.4466 194.159 65.707 194.133 65.9805C194.107 66.2539 194.055 66.5469 193.977 66.8594C193.938 67.0286 193.872 67.2174 193.781 67.4258C193.69 67.6211 193.645 67.8555 193.645 68.1289C193.645 68.2201 193.651 68.3112 193.664 68.4023C193.69 68.4935 193.703 68.5977 193.703 68.7148C193.703 68.9102 193.684 69.1445 193.645 69.418C193.618 69.6914 193.579 69.9779 193.527 70.2773C193.488 70.5638 193.443 70.8568 193.391 71.1562C193.339 71.4427 193.286 71.7161 193.234 71.9766C193.221 72.0156 193.195 72.1133 193.156 72.2695C193.117 72.4128 193.072 72.582 193.02 72.7773C192.98 72.9727 192.941 73.181 192.902 73.4023C192.876 73.6107 192.863 73.7995 192.863 73.9688C192.863 74.151 192.883 74.2943 192.922 74.3984C192.974 74.5026 193.046 74.5547 193.137 74.5547C193.228 74.5547 193.326 74.4961 193.43 74.3789C193.534 74.2617 193.638 74.1315 193.742 73.9883C193.846 73.8451 193.944 73.7148 194.035 73.5977C194.139 73.4805 194.23 73.4219 194.309 73.4219C194.335 73.4219 194.367 73.4284 194.406 73.4414C194.445 73.4414 194.478 73.4414 194.504 73.4414C194.543 73.4414 194.562 73.4154 194.562 73.3633C194.562 73.3372 194.556 73.3047 194.543 73.2656C194.53 73.2266 194.523 73.194 194.523 73.168C194.523 73.1419 194.569 73.0964 194.66 73.0312C194.751 72.9531 194.816 72.888 194.855 72.8359C194.947 72.6797 195.044 72.4974 195.148 72.2891C195.253 72.0807 195.396 71.9766 195.578 71.9766C195.604 71.9766 195.728 71.8659 195.949 71.6445C196.171 71.4102 196.438 71.1562 196.75 70.8828C197.076 70.6094 197.421 70.362 197.785 70.1406C198.163 69.9062 198.521 69.7891 198.859 69.7891C199.315 69.7891 199.647 69.8672 199.855 70.0234C200.077 70.1667 200.188 70.4336 200.188 70.8242C200.188 71.1237 200.168 71.4102 200.129 71.6836C200.09 71.957 200.044 72.1979 199.992 72.4062C199.953 72.6016 199.908 72.7643 199.855 72.8945C199.816 73.0247 199.797 73.1029 199.797 73.1289C199.771 73.7279 199.686 74.3659 199.543 75.043C199.4 75.7201 199.296 76.3906 199.23 77.0547C199.178 77.5234 199.126 77.9857 199.074 78.4414C199.035 78.8971 198.983 79.3659 198.918 79.8477C198.853 80.2643 198.762 80.7005 198.645 81.1562C198.54 81.612 198.488 82.0417 198.488 82.4453C198.488 82.6667 198.501 82.888 198.527 83.1094C198.553 83.3177 198.566 83.5326 198.566 83.7539C198.566 83.9883 198.54 84.1901 198.488 84.3594C198.54 84.3984 198.605 84.418 198.684 84.418C198.775 84.418 198.859 84.3789 198.938 84.3008C199.016 84.2227 199.087 84.138 199.152 84.0469C199.23 83.9427 199.309 83.8516 199.387 83.7734C199.465 83.6823 199.556 83.6302 199.66 83.6172C199.66 83.6172 199.706 83.5716 199.797 83.4805C199.901 83.3893 200.012 83.2852 200.129 83.168C200.246 83.0508 200.357 82.9401 200.461 82.8359C200.578 82.7188 200.65 82.6406 200.676 82.6016C200.728 82.5495 200.747 82.4844 200.734 82.4062C200.734 82.3151 200.767 82.237 200.832 82.1719C200.858 82.1328 200.904 82.1068 200.969 82.0938C201.034 82.0807 201.079 82.0612 201.105 82.0352C201.145 81.9701 201.171 81.8984 201.184 81.8203C201.197 81.7292 201.223 81.651 201.262 81.5859C201.288 81.5469 201.333 81.5208 201.398 81.5078C201.477 81.4948 201.529 81.4688 201.555 81.4297C201.568 81.4167 201.587 81.3581 201.613 81.2539C201.652 81.1497 201.698 81.0456 201.75 80.9414C201.815 80.8242 201.887 80.7201 201.965 80.6289C202.056 80.5378 202.167 80.4922 202.297 80.4922C202.388 80.4922 202.486 80.5182 202.59 80.5703ZM210.578 81.1562C210.63 81.2734 210.656 81.3971 210.656 81.5273C210.656 81.6576 210.624 81.7747 210.559 81.8789C210.507 81.9701 210.435 82.0612 210.344 82.1523C210.266 82.2305 210.174 82.3086 210.07 82.3867C209.979 82.4518 209.901 82.5234 209.836 82.6016C209.81 82.6536 209.79 82.7318 209.777 82.8359C209.777 82.9271 209.751 82.9987 209.699 83.0508C209.543 83.2201 209.348 83.3633 209.113 83.4805C208.892 83.5977 208.697 83.7474 208.527 83.9297C208.423 84.0469 208.345 84.1641 208.293 84.2812C208.241 84.3854 208.124 84.5091 207.941 84.6523C207.798 84.7565 207.661 84.8997 207.531 85.082C207.401 85.2643 207.258 85.4466 207.102 85.6289C206.945 85.7982 206.763 85.9479 206.555 86.0781C206.346 86.2214 206.099 86.293 205.812 86.293C205.747 86.293 205.689 86.2865 205.637 86.2734C205.585 86.2734 205.526 86.2669 205.461 86.2539C205.461 86.2539 205.415 86.2279 205.324 86.1758C205.233 86.1237 205.129 86.0195 205.012 85.8633C204.908 85.707 204.81 85.4857 204.719 85.1992C204.628 84.9128 204.582 84.5352 204.582 84.0664C204.582 83.9492 204.602 83.8255 204.641 83.6953C204.693 83.5521 204.745 83.4154 204.797 83.2852C204.862 83.1549 204.914 83.0247 204.953 82.8945C205.005 82.7513 205.031 82.6211 205.031 82.5039C205.031 82.3867 205.005 82.276 204.953 82.1719C204.901 82.0677 204.875 81.957 204.875 81.8398C204.875 81.7227 204.927 81.6445 205.031 81.6055C205.135 81.5534 205.188 81.4622 205.188 81.332C205.188 81.2669 205.181 81.2083 205.168 81.1562C205.168 81.1042 205.168 81.0456 205.168 80.9805C205.168 80.8242 205.194 80.7201 205.246 80.668C205.298 80.6029 205.324 80.5182 205.324 80.4141C205.324 80.3229 205.305 80.2578 205.266 80.2188C205.24 80.1667 205.227 80.1016 205.227 80.0234C205.227 79.9323 205.259 79.8477 205.324 79.7695C205.389 79.6784 205.435 79.5547 205.461 79.3984C205.552 79.099 205.624 78.7474 205.676 78.3438C205.728 77.9271 205.786 77.4844 205.852 77.0156C205.93 76.5339 206.014 76.026 206.105 75.4922C206.197 74.9453 206.327 74.3984 206.496 73.8516C206.548 73.6693 206.6 73.4089 206.652 73.0703C206.717 72.7188 206.757 72.3542 206.77 71.9766C206.704 71.9375 206.659 71.918 206.633 71.918C206.529 71.918 206.451 72.0026 206.398 72.1719C206.359 72.3411 206.294 72.4648 206.203 72.543C206.138 72.5951 206.06 72.6211 205.969 72.6211C205.891 72.6211 205.819 72.6406 205.754 72.6797C205.676 72.7448 205.611 72.8229 205.559 72.9141C205.52 72.9922 205.474 73.0703 205.422 73.1484C205.383 73.2266 205.324 73.3047 205.246 73.3828C205.168 73.4609 205.051 73.5195 204.895 73.5586C204.868 73.5716 204.855 73.6042 204.855 73.6562C204.855 73.6953 204.829 73.7148 204.777 73.7148H204.738C204.738 73.6758 204.706 73.6432 204.641 73.6172C204.589 73.5781 204.523 73.5391 204.445 73.5C204.367 73.4609 204.296 73.4154 204.23 73.3633C204.178 73.3112 204.152 73.2461 204.152 73.168C204.152 73.0508 204.178 72.9596 204.23 72.8945C204.283 72.8294 204.354 72.7773 204.445 72.7383C204.536 72.6992 204.628 72.6602 204.719 72.6211C204.823 72.569 204.927 72.4974 205.031 72.4062C205.161 72.276 205.305 72.1263 205.461 71.957C205.63 71.7878 205.799 71.6185 205.969 71.4492C206.138 71.2669 206.314 71.0977 206.496 70.9414C206.691 70.7721 206.887 70.6224 207.082 70.4922C207.121 70.4661 207.128 70.4401 207.102 70.4141C207.089 70.388 207.128 70.3685 207.219 70.3555C207.258 70.3555 207.31 70.3359 207.375 70.2969C207.453 70.2448 207.525 70.1927 207.59 70.1406C207.668 70.0755 207.733 70.0234 207.785 69.9844C207.837 69.9323 207.87 69.9062 207.883 69.9062C207.909 69.9062 207.935 69.9128 207.961 69.9258C208 69.9258 208.033 69.9258 208.059 69.9258C208.163 69.9258 208.28 69.8997 208.41 69.8477C208.553 69.7826 208.807 69.75 209.172 69.75C209.315 69.75 209.439 69.7956 209.543 69.8867C209.66 69.9648 209.719 70.1341 209.719 70.3945C209.719 70.4727 209.686 70.5964 209.621 70.7656C209.556 70.9349 209.484 71.1367 209.406 71.3711C209.328 71.6055 209.257 71.8659 209.191 72.1523C209.126 72.4388 209.094 72.7383 209.094 73.0508C209.094 73.181 209.1 73.3177 209.113 73.4609C209.126 73.5911 209.133 73.7214 209.133 73.8516C209.133 74.0859 209.087 74.2878 208.996 74.457C208.918 74.6133 208.859 74.8021 208.82 75.0234C208.768 75.2969 208.742 75.5833 208.742 75.8828C208.742 76.1823 208.723 76.4818 208.684 76.7812C208.579 77.4062 208.456 78.0117 208.312 78.5977C208.169 79.1836 208.046 79.7891 207.941 80.4141C207.902 80.6224 207.837 80.8893 207.746 81.2148C207.668 81.5404 207.629 81.8854 207.629 82.25C207.629 82.5885 207.688 82.901 207.805 83.1875C208 83.1745 208.163 83.1159 208.293 83.0117C208.423 82.9076 208.54 82.7904 208.645 82.6602C208.749 82.5299 208.846 82.3932 208.938 82.25C209.042 82.1068 209.152 81.9831 209.27 81.8789C209.348 81.8138 209.458 81.7682 209.602 81.7422C209.758 81.7031 209.888 81.651 209.992 81.5859C210.096 81.5208 210.168 81.4297 210.207 81.3125C210.246 81.1953 210.331 81.1367 210.461 81.1367C210.487 81.1367 210.507 81.1432 210.52 81.1562C210.533 81.1562 210.552 81.1562 210.578 81.1562ZM211.301 61.4688C211.34 61.5469 211.359 61.6315 211.359 61.7227C211.359 61.8789 211.307 62.0482 211.203 62.2305C211.099 62.4128 210.982 62.5885 210.852 62.7578C210.734 62.9271 210.617 63.0833 210.5 63.2266C210.383 63.3568 210.311 63.4479 210.285 63.5C210.207 63.6693 210.142 63.8971 210.09 64.1836C210.051 64.4701 209.966 64.7305 209.836 64.9648C209.784 65.069 209.738 65.1471 209.699 65.1992C209.66 65.2513 209.615 65.3685 209.562 65.5508C209.51 65.668 209.445 65.8047 209.367 65.9609C209.289 66.1172 209.204 66.2669 209.113 66.4102C209.022 66.5404 208.931 66.6576 208.84 66.7617C208.749 66.8529 208.664 66.8984 208.586 66.8984C208.247 66.8984 208.013 66.7357 207.883 66.4102C207.766 66.0716 207.707 65.6745 207.707 65.2188C207.707 65.0365 207.714 64.8477 207.727 64.6523C207.753 64.457 207.779 64.2682 207.805 64.0859C207.831 63.8906 207.896 63.7474 208 63.6562C208.104 63.5651 208.189 63.4219 208.254 63.2266C208.319 63.0573 208.365 62.8945 208.391 62.7383C208.417 62.569 208.443 62.4128 208.469 62.2695C208.508 62.1263 208.547 62.0026 208.586 61.8984C208.638 61.7812 208.716 61.6836 208.82 61.6055C208.898 61.5534 208.99 61.5078 209.094 61.4688C209.211 61.4297 209.328 61.4036 209.445 61.3906C209.576 61.3646 209.699 61.3451 209.816 61.332C209.947 61.319 210.051 61.3125 210.129 61.3125C210.129 61.3255 210.188 61.306 210.305 61.2539C210.422 61.1888 210.552 61.1562 210.695 61.1562C210.721 61.1562 210.806 61.1823 210.949 61.2344C211.105 61.2734 211.223 61.3516 211.301 61.4688ZM223.098 72.1719C223.072 72.6667 223 73.1159 222.883 73.5195C222.779 73.9232 222.642 74.2943 222.473 74.6328C222.316 74.9714 222.141 75.2839 221.945 75.5703C221.75 75.8568 221.548 76.1367 221.34 76.4102C221.21 76.5794 221.105 76.7292 221.027 76.8594C220.949 76.9766 220.871 77.0807 220.793 77.1719C220.715 77.263 220.63 77.3411 220.539 77.4062C220.448 77.4714 220.324 77.5234 220.168 77.5625C220.064 77.5885 219.94 77.6211 219.797 77.6602C219.667 77.6862 219.549 77.7513 219.445 77.8555C219.419 77.8815 219.393 77.9336 219.367 78.0117C219.341 78.0768 219.315 78.1224 219.289 78.1484C219.185 78.2266 219.061 78.2786 218.918 78.3047C218.788 78.3177 218.671 78.3633 218.566 78.4414C218.462 78.5326 218.391 78.6107 218.352 78.6758C218.312 78.7409 218.241 78.806 218.137 78.8711C218.033 78.9362 217.909 78.9883 217.766 79.0273C217.635 79.0534 217.512 79.099 217.395 79.1641C217.303 79.2292 217.232 79.3073 217.18 79.3984C217.141 79.4766 217.069 79.5482 216.965 79.6133C216.757 79.7565 216.581 79.8672 216.438 79.9453C216.294 80.0104 216.177 80.1081 216.086 80.2383C216.008 80.3685 215.949 80.5573 215.91 80.8047C215.871 81.0521 215.852 81.4297 215.852 81.9375C215.852 82.237 215.858 82.5234 215.871 82.7969C215.897 83.0703 215.923 83.2721 215.949 83.4023C215.962 83.4414 216.001 83.5326 216.066 83.6758C216.145 83.806 216.236 83.9492 216.34 84.1055C216.457 84.2617 216.587 84.4049 216.73 84.5352C216.874 84.6523 217.023 84.7109 217.18 84.7109C217.414 84.7109 217.622 84.6263 217.805 84.457C217.987 84.2747 218.189 84.1185 218.41 83.9883C218.579 83.8841 218.801 83.7474 219.074 83.5781C219.348 83.3958 219.569 83.194 219.738 82.9727C219.79 82.8945 219.855 82.7904 219.934 82.6602C220.012 82.5169 220.096 82.3802 220.188 82.25C220.292 82.1068 220.402 81.9896 220.52 81.8984C220.65 81.7943 220.793 81.7422 220.949 81.7422C221.014 81.7422 221.099 81.7617 221.203 81.8008C221.19 82.0221 221.118 82.224 220.988 82.4062C220.871 82.5885 220.734 82.7578 220.578 82.9141C220.435 83.0573 220.305 83.1875 220.188 83.3047C220.07 83.4219 220.012 83.5195 220.012 83.5977C220.012 83.6237 220.012 83.6628 220.012 83.7148C220.025 83.7539 220.031 83.7865 220.031 83.8125C220.031 83.8776 219.953 83.9297 219.797 83.9688C219.654 83.9948 219.536 84.0469 219.445 84.125C219.38 84.1901 219.328 84.2682 219.289 84.3594C219.263 84.4375 219.217 84.5026 219.152 84.5547C219.009 84.6719 218.859 84.776 218.703 84.8672C218.547 84.9583 218.404 85.056 218.273 85.1602C218.13 85.2904 217.98 85.4401 217.824 85.6094C217.681 85.7786 217.538 85.9349 217.395 86.0781C217.251 86.2344 217.108 86.3646 216.965 86.4688C216.835 86.5729 216.711 86.625 216.594 86.625C216.529 86.625 216.457 86.612 216.379 86.5859C216.314 86.5729 216.249 86.5664 216.184 86.5664C216.118 86.5664 216.066 86.5924 216.027 86.6445C215.988 86.6966 215.936 86.7227 215.871 86.7227C215.754 86.7227 215.617 86.6641 215.461 86.5469C215.305 86.4427 215.174 86.3646 215.07 86.3125C214.888 86.2474 214.673 86.2018 214.426 86.1758C214.178 86.1628 214.003 86.1172 213.898 86.0391C213.807 85.9609 213.736 85.8177 213.684 85.6094C213.645 85.401 213.573 85.1992 213.469 85.0039C213.365 84.8216 213.247 84.6719 213.117 84.5547C212.987 84.4375 212.909 84.3464 212.883 84.2812C212.857 84.2031 212.837 84.099 212.824 83.9688C212.824 83.8255 212.824 83.6823 212.824 83.5391C212.824 83.3828 212.818 83.2331 212.805 83.0898C212.792 82.9336 212.766 82.7969 212.727 82.6797C212.714 82.6406 212.688 82.6081 212.648 82.582C212.609 82.543 212.59 82.4714 212.59 82.3672C212.59 82.3802 212.609 82.3542 212.648 82.2891C212.701 82.2109 212.727 82.1458 212.727 82.0938C212.792 81.0651 212.883 80.0885 213 79.1641C213.13 78.2266 213.293 77.3737 213.488 76.6055C213.684 75.8242 213.918 75.1471 214.191 74.5742C214.478 73.9883 214.816 73.526 215.207 73.1875C215.272 73.1354 215.344 73.1159 215.422 73.1289C215.513 73.1289 215.591 73.1029 215.656 73.0508C215.682 73.0247 215.702 72.9792 215.715 72.9141C215.741 72.8359 215.767 72.7839 215.793 72.7578C215.858 72.7057 215.93 72.6797 216.008 72.6797C216.099 72.6797 216.171 72.6536 216.223 72.6016C216.262 72.5755 216.314 72.5234 216.379 72.4453C216.444 72.3672 216.509 72.2826 216.574 72.1914C216.639 72.1003 216.704 72.0156 216.77 71.9375C216.835 71.8464 216.9 71.7812 216.965 71.7422C217.121 71.638 217.31 71.5664 217.531 71.5273C217.753 71.4883 217.954 71.4102 218.137 71.293C218.189 71.2669 218.247 71.2148 218.312 71.1367C218.378 71.0586 218.443 70.9805 218.508 70.9023C218.586 70.8112 218.658 70.7331 218.723 70.668C218.788 70.6029 218.853 70.5703 218.918 70.5703C218.944 70.5703 218.977 70.5768 219.016 70.5898C219.055 70.5898 219.087 70.5898 219.113 70.5898C219.139 70.5898 219.237 70.5117 219.406 70.3555C219.589 70.1992 219.751 70.0755 219.895 69.9844C219.934 69.9583 219.953 69.9128 219.953 69.8477C219.966 69.7695 219.992 69.7174 220.031 69.6914C220.096 69.6393 220.201 69.6003 220.344 69.5742C220.487 69.5352 220.624 69.4766 220.754 69.3984C220.858 69.3333 220.936 69.2682 220.988 69.2031C221.04 69.138 221.158 69.1055 221.34 69.1055C221.809 69.1445 222.167 69.2292 222.414 69.3594C222.661 69.4896 222.831 69.6784 222.922 69.9258C223.026 70.1602 223.078 70.4661 223.078 70.8438C223.091 71.2083 223.098 71.651 223.098 72.1719ZM220.324 72.1719C220.311 72.1458 220.259 72.1003 220.168 72.0352C220.09 71.957 220.044 71.9049 220.031 71.8789C219.992 71.8138 219.973 71.7487 219.973 71.6836C219.973 71.6055 219.966 71.5339 219.953 71.4688C219.94 71.4036 219.914 71.3516 219.875 71.3125C219.849 71.2734 219.79 71.2539 219.699 71.2539C219.621 71.2539 219.504 71.2995 219.348 71.3906C219.204 71.4688 219.048 71.5664 218.879 71.6836C218.723 71.8008 218.573 71.918 218.43 72.0352C218.286 72.1523 218.189 72.2435 218.137 72.3086C218.072 72.3867 217.98 72.5299 217.863 72.7383C217.759 72.9336 217.648 73.1354 217.531 73.3438C217.427 73.5521 217.329 73.7344 217.238 73.8906C217.147 74.0469 217.095 74.125 217.082 74.125C217.082 74.151 217.082 74.1836 217.082 74.2227C217.095 74.2617 217.102 74.2943 217.102 74.3203C217.102 74.3984 217.049 74.4701 216.945 74.5352C216.841 74.5872 216.789 74.6979 216.789 74.8672C216.789 74.9323 216.796 75.0104 216.809 75.1016C216.822 75.1797 216.828 75.2513 216.828 75.3164C216.828 75.4206 216.783 75.5247 216.691 75.6289C216.613 75.7331 216.561 75.8438 216.535 75.9609C216.418 76.3776 216.301 76.8268 216.184 77.3086C216.066 77.7773 216.008 78.2396 216.008 78.6953C216.008 78.8385 216.021 78.9622 216.047 79.0664C216.086 79.1576 216.19 79.2031 216.359 79.2031C216.477 79.2031 216.561 79.1836 216.613 79.1445C216.678 79.0924 216.73 79.0339 216.77 78.9688C216.809 78.8906 216.841 78.819 216.867 78.7539C216.893 78.6888 216.926 78.6367 216.965 78.5977C217.134 78.4414 217.329 78.2786 217.551 78.1094C217.772 77.9401 217.993 77.7643 218.215 77.582C218.449 77.3867 218.671 77.1914 218.879 76.9961C219.1 76.8008 219.289 76.6055 219.445 76.4102C219.484 76.3451 219.523 76.2409 219.562 76.0977C219.602 75.9414 219.66 75.7982 219.738 75.668C219.934 75.3294 220.083 74.8932 220.188 74.3594C220.305 73.8255 220.363 73.2396 220.363 72.6016C220.363 72.5365 220.357 72.4648 220.344 72.3867C220.344 72.3086 220.337 72.237 220.324 72.1719ZM238.547 58.5391C238.586 58.6172 238.605 58.6823 238.605 58.7344C238.605 58.8255 238.573 58.9036 238.508 58.9688C238.443 59.0339 238.365 59.099 238.273 59.1641C238.195 59.2161 238.124 59.2747 238.059 59.3398C237.993 59.3919 237.961 59.4505 237.961 59.5156C237.961 59.5677 237.967 59.6198 237.98 59.6719C237.993 59.7109 238 59.75 238 59.7891C238 59.8281 237.993 59.8542 237.98 59.8672C237.759 60.0885 237.609 60.2839 237.531 60.4531C237.453 60.6094 237.368 60.7461 237.277 60.8633C237.199 60.9674 237.069 61.0521 236.887 61.1172C236.704 61.1693 236.398 61.1953 235.969 61.1953C235.878 61.1953 235.793 61.1888 235.715 61.1758C235.637 61.1497 235.552 61.1367 235.461 61.1367C235.201 61.1367 234.908 61.2409 234.582 61.4492C234.257 61.6445 233.879 61.9896 233.449 62.4844C233.267 62.6927 233.13 62.862 233.039 62.9922C232.948 63.1224 232.87 63.2591 232.805 63.4023C232.753 63.5326 232.701 63.6953 232.648 63.8906C232.596 64.0859 232.525 64.3464 232.434 64.6719C232.421 64.7109 232.388 64.75 232.336 64.7891C232.297 64.8151 232.277 64.8737 232.277 64.9648C232.264 65.2122 232.219 65.5247 232.141 65.9023C232.062 66.2669 231.978 66.625 231.887 66.9766C231.796 67.3281 231.711 67.6471 231.633 67.9336C231.568 68.207 231.535 68.3828 231.535 68.4609C231.535 68.5651 231.535 68.6628 231.535 68.7539C231.548 68.832 231.555 68.9036 231.555 68.9688C231.49 69.1771 231.431 69.3789 231.379 69.5742C231.34 69.7435 231.301 69.9193 231.262 70.1016C231.236 70.2708 231.223 70.4076 231.223 70.5117C231.223 70.707 231.32 70.8307 231.516 70.8828C231.724 70.9349 231.939 70.9609 232.16 70.9609C232.512 70.9609 232.818 70.9609 233.078 70.9609C233.352 70.9609 233.599 70.9609 233.82 70.9609C234.055 70.9479 234.276 70.9349 234.484 70.9219C234.693 70.8958 234.927 70.8568 235.188 70.8047C235.227 70.7917 235.272 70.7656 235.324 70.7266C235.376 70.6745 235.454 70.6484 235.559 70.6484H235.852C236.086 70.6484 236.229 70.6159 236.281 70.5508C236.333 70.4727 236.366 70.3945 236.379 70.3164C236.405 70.2383 236.444 70.1667 236.496 70.1016C236.548 70.0234 236.704 69.9844 236.965 69.9844C237.03 69.9844 237.095 69.9844 237.16 69.9844C237.238 69.9714 237.31 69.9518 237.375 69.9258C237.427 70.043 237.453 70.1667 237.453 70.2969C237.453 70.4401 237.408 70.5573 237.316 70.6484C237.238 70.7396 237.115 70.8372 236.945 70.9414C236.906 70.9674 236.835 70.9935 236.73 71.0195C236.626 71.0326 236.548 71.0586 236.496 71.0977C236.353 71.2148 236.216 71.332 236.086 71.4492C235.969 71.5664 235.845 71.6771 235.715 71.7812C235.598 71.8724 235.461 71.957 235.305 72.0352C235.148 72.1133 234.966 72.1849 234.758 72.25C234.654 72.276 234.556 72.2956 234.465 72.3086C234.374 72.3216 234.263 72.3346 234.133 72.3477C234.016 72.3607 233.879 72.3867 233.723 72.4258C233.566 72.4518 233.378 72.4909 233.156 72.543C233.117 72.556 233.046 72.5625 232.941 72.5625C232.863 72.5625 232.766 72.5625 232.648 72.5625C232.531 72.5495 232.382 72.543 232.199 72.543C231.783 72.543 231.477 72.5755 231.281 72.6406C231.086 72.7057 230.949 72.8229 230.871 72.9922C230.793 73.1615 230.741 73.4023 230.715 73.7148C230.689 74.0143 230.63 74.3984 230.539 74.8672C230.435 75.4401 230.331 75.9414 230.227 76.3711C230.122 76.8008 230.07 77.1068 230.07 77.2891C230.07 77.4323 230.07 77.5755 230.07 77.7188C230.083 77.849 230.09 77.9857 230.09 78.1289C230.09 78.5846 230.064 79.0208 230.012 79.4375C229.96 79.8411 229.895 80.2383 229.816 80.6289C229.738 81.0065 229.654 81.3841 229.562 81.7617C229.484 82.1393 229.419 82.5234 229.367 82.9141C229.328 83.1745 229.302 83.4349 229.289 83.6953C229.276 83.9557 229.257 84.2227 229.23 84.4961C229.204 84.6784 229.152 84.8542 229.074 85.0234C228.996 85.1797 228.944 85.349 228.918 85.5312C228.866 85.8307 228.846 86.0977 228.859 86.332C228.872 86.5664 228.846 86.8333 228.781 87.1328C228.755 87.237 228.729 87.3086 228.703 87.3477C228.677 87.3997 228.651 87.4714 228.625 87.5625C228.573 87.862 228.521 88.1289 228.469 88.3633C228.43 88.6107 228.378 88.8385 228.312 89.0469C228.26 89.2682 228.202 89.4831 228.137 89.6914C228.072 89.8997 227.993 90.1146 227.902 90.3359C227.876 90.401 227.818 90.4922 227.727 90.6094C227.648 90.7396 227.609 90.8177 227.609 90.8438C227.609 90.8958 227.609 90.9479 227.609 91C227.622 91.0651 227.629 91.1302 227.629 91.1953C227.629 91.3385 227.531 91.4818 227.336 91.625C227.141 91.7812 226.939 91.9831 226.73 92.2305C226.665 92.3216 226.613 92.4193 226.574 92.5234C226.548 92.6406 226.503 92.7383 226.438 92.8164C226.385 92.8815 226.314 92.9271 226.223 92.9531C226.132 92.9922 226.06 93.0443 226.008 93.1094C225.956 93.1745 225.917 93.2591 225.891 93.3633C225.865 93.4805 225.806 93.5911 225.715 93.6953C225.624 93.7995 225.526 93.9167 225.422 94.0469C225.318 94.1901 225.207 94.3268 225.09 94.457C224.986 94.5872 224.888 94.6914 224.797 94.7695C224.706 94.8607 224.634 94.9062 224.582 94.9062C224.517 94.9062 224.452 94.8672 224.387 94.7891C224.335 94.7109 224.283 94.6263 224.23 94.5352C224.191 94.444 224.159 94.3529 224.133 94.2617C224.107 94.1836 224.094 94.1315 224.094 94.1055C224.094 94.0013 224.146 93.8841 224.25 93.7539C224.354 93.6367 224.406 93.4479 224.406 93.1875C224.406 93.1484 224.4 93.1029 224.387 93.0508C224.387 93.0117 224.387 92.9727 224.387 92.9336C224.387 92.8294 224.413 92.7643 224.465 92.7383C224.517 92.7122 224.543 92.6927 224.543 92.6797C224.621 92.4062 224.706 92.1589 224.797 91.9375C224.901 91.7161 224.966 91.4753 224.992 91.2148C224.992 91.1888 224.986 91.1562 224.973 91.1172C224.973 91.0781 224.973 91.0456 224.973 91.0195C224.973 90.9544 225.018 90.8633 225.109 90.7461C225.201 90.6419 225.259 90.5573 225.285 90.4922C225.35 90.2188 225.37 89.9583 225.344 89.7109C225.331 89.4766 225.357 89.2487 225.422 89.0273C225.448 88.8971 225.493 88.7604 225.559 88.6172C225.637 88.474 225.689 88.3177 225.715 88.1484C225.806 87.6276 225.865 87.0612 225.891 86.4492C225.93 85.8372 226.021 85.2839 226.164 84.7891C226.19 84.6979 226.216 84.6263 226.242 84.5742C226.281 84.5221 226.301 84.4831 226.301 84.457C226.301 84.3659 226.275 84.2682 226.223 84.1641C226.184 84.0469 226.164 83.9362 226.164 83.832V83.793C226.216 83.793 226.262 83.7214 226.301 83.5781C226.353 83.4219 226.392 83.2266 226.418 82.9922C226.457 82.7448 226.49 82.4779 226.516 82.1914C226.542 81.8919 226.568 81.599 226.594 81.3125C226.62 81.013 226.639 80.7331 226.652 80.4727C226.678 80.2122 226.704 80.0039 226.73 79.8477C226.77 79.5612 226.822 79.3203 226.887 79.125C226.965 78.9297 227.017 78.6823 227.043 78.3828C227.043 78.2135 227.095 77.9531 227.199 77.6016C227.316 77.237 227.44 76.8268 227.57 76.3711C227.701 75.9023 227.818 75.3945 227.922 74.8477C228.026 74.3008 228.078 73.7474 228.078 73.1875C228.078 73.0052 228.007 72.8945 227.863 72.8555C227.733 72.8034 227.557 72.7773 227.336 72.7773C226.919 72.7773 226.561 72.8229 226.262 72.9141C225.975 72.9922 225.721 73.0833 225.5 73.1875C225.279 73.2917 225.077 73.3893 224.895 73.4805C224.712 73.5586 224.53 73.5977 224.348 73.5977C224.296 73.5977 224.217 73.5846 224.113 73.5586C224.126 73.3763 224.172 73.2135 224.25 73.0703C224.328 72.9271 224.419 72.7969 224.523 72.6797C224.641 72.5495 224.764 72.4323 224.895 72.3281C225.038 72.2109 225.168 72.0938 225.285 71.9766C225.493 71.7812 225.715 71.5404 225.949 71.2539C226.197 70.9674 226.457 70.7656 226.73 70.6484C226.848 70.5964 226.978 70.5703 227.121 70.5703C227.277 70.5573 227.427 70.5508 227.57 70.5508C227.727 70.5378 227.87 70.5247 228 70.5117C228.13 70.4857 228.247 70.4336 228.352 70.3555C228.508 70.2253 228.618 70.0299 228.684 69.7695C228.749 69.4961 228.794 69.2096 228.82 68.9102C228.846 68.5977 228.872 68.2852 228.898 67.9727C228.924 67.6602 228.983 67.3867 229.074 67.1523C229.1 67.0872 229.126 67.0417 229.152 67.0156C229.178 66.9766 229.204 66.944 229.23 66.918C229.257 66.8919 229.283 66.8529 229.309 66.8008C229.335 66.7487 229.354 66.6706 229.367 66.5664C229.393 66.319 229.458 66.0977 229.562 65.9023C229.667 65.707 229.79 65.4922 229.934 65.2578C229.973 65.2188 230.005 65.2057 230.031 65.2188C230.07 65.2318 230.09 65.1927 230.09 65.1016C230.09 65.0104 230.148 64.9323 230.266 64.8672C230.383 64.7891 230.474 64.6784 230.539 64.5352C230.643 64.3398 230.728 64.1315 230.793 63.9102C230.858 63.6888 230.962 63.5065 231.105 63.3633C231.132 63.3372 231.177 63.3112 231.242 63.2852C231.307 63.2591 231.372 63.2396 231.438 63.2266C231.503 63.2005 231.561 63.1745 231.613 63.1484C231.665 63.1094 231.691 63.0638 231.691 63.0117C231.691 62.9857 231.685 62.9531 231.672 62.9141C231.672 62.875 231.672 62.8424 231.672 62.8164C231.672 62.7904 231.704 62.7383 231.77 62.6602C231.835 62.582 231.9 62.4974 231.965 62.4062C232.043 62.3151 232.115 62.237 232.18 62.1719C232.245 62.0938 232.277 62.0547 232.277 62.0547C232.277 62.0286 232.342 61.957 232.473 61.8398C232.603 61.7096 232.753 61.5729 232.922 61.4297C233.091 61.2734 233.254 61.1302 233.41 61C233.579 60.8698 233.69 60.7786 233.742 60.7266C233.781 60.6875 233.859 60.6484 233.977 60.6094C234.094 60.5573 234.204 60.4987 234.309 60.4336C234.387 60.3945 234.439 60.349 234.465 60.2969C234.504 60.2448 234.556 60.1992 234.621 60.1602C234.673 60.1081 234.738 60.082 234.816 60.082C234.908 60.082 234.986 60.056 235.051 60.0039C235.311 59.7956 235.513 59.5807 235.656 59.3594C235.812 59.125 236.001 58.9557 236.223 58.8516C236.288 58.8125 236.398 58.7865 236.555 58.7734C236.711 58.7604 236.841 58.7344 236.945 58.6953C237.089 58.6562 237.206 58.5977 237.297 58.5195C237.388 58.4414 237.518 58.4023 237.688 58.4023C237.727 58.4023 237.759 58.4284 237.785 58.4805C237.824 58.5195 237.876 58.5391 237.941 58.5391C237.954 58.5391 237.98 58.5195 238.02 58.4805C238.072 58.4284 238.169 58.4023 238.312 58.4023C238.417 58.4023 238.495 58.4479 238.547 58.5391Z" fill="#AAAAAA"/>
<path d="M60.2969 122.156C60.0208 121.906 59.9479 121.688 60.0781 121.5L60.4844 120.914C60.625 120.711 60.8516 120.727 61.1641 120.961C61.5755 121.268 62.0026 121.521 62.4453 121.719C62.8932 121.917 63.4349 122.016 64.0703 122.016C64.5391 122.016 64.9349 121.945 65.2578 121.805C65.5807 121.664 65.8385 121.464 66.0312 121.203C66.2292 120.938 66.3281 120.617 66.3281 120.242C66.3281 119.971 66.2865 119.721 66.2031 119.492C66.125 119.258 65.9974 119.062 65.8203 118.906C65.6432 118.75 65.4583 118.628 65.2656 118.539C64.9479 118.393 64.4714 118.224 63.8359 118.031C63.2057 117.839 62.6536 117.63 62.1797 117.406C61.7109 117.182 61.3359 116.911 61.0547 116.594C60.7786 116.276 60.5938 115.951 60.5 115.617C60.4115 115.279 60.3672 114.893 60.3672 114.461C60.3672 113.799 60.5599 113.229 60.9453 112.75C61.3307 112.271 61.8021 111.953 62.3594 111.797C62.9219 111.641 63.4922 111.562 64.0703 111.562C64.7318 111.562 65.3073 111.648 65.7969 111.82C66.2865 111.992 66.724 112.216 67.1094 112.492C67.3802 112.685 67.4427 112.888 67.2969 113.102L66.8984 113.672C66.7786 113.844 66.5443 113.807 66.1953 113.562C65.9297 113.375 65.6042 113.201 65.2188 113.039C64.8385 112.872 64.4609 112.789 64.0859 112.789C63.6068 112.789 63.2083 112.846 62.8906 112.961C62.5729 113.07 62.3229 113.258 62.1406 113.523C61.9583 113.789 61.8672 114.096 61.8672 114.445C61.8672 114.664 61.888 114.867 61.9297 115.055C61.9714 115.237 62.0781 115.424 62.25 115.617C62.4219 115.81 62.6302 115.958 62.875 116.062C63.2031 116.203 63.7109 116.37 64.3984 116.562C65.0911 116.75 65.6953 116.982 66.2109 117.258C66.6901 117.513 67.0339 117.781 67.2422 118.062C67.4557 118.339 67.6198 118.641 67.7344 118.969C67.8542 119.292 67.9141 119.656 67.9141 120.062C67.9141 120.802 67.724 121.419 67.3438 121.914C66.9635 122.409 66.513 122.753 65.9922 122.945C65.4714 123.138 64.8177 123.234 64.0312 123.234C63.0885 123.234 62.3073 123.125 61.6875 122.906C61.0677 122.688 60.6042 122.438 60.2969 122.156ZM70.0234 123C69.7891 123 69.6719 122.883 69.6719 122.648V115.148C69.6719 114.914 69.7891 114.797 70.0234 114.797H70.6797C70.9141 114.797 71.0312 114.914 71.0312 115.148V115.773H71.0625C71.401 115.398 71.7656 115.12 72.1562 114.938C72.5469 114.755 73.0339 114.664 73.6172 114.664C74.5651 114.664 75.2448 114.932 75.6562 115.469C76.0729 116 76.2812 116.729 76.2812 117.656V122.648C76.2812 122.883 76.1641 123 75.9297 123H75.2578C75.0234 123 74.9062 122.883 74.9062 122.648V118.031C74.9062 117.01 74.737 116.365 74.3984 116.094C74.0599 115.818 73.6302 115.68 73.1094 115.68C72.4323 115.68 71.9193 115.883 71.5703 116.289C71.2214 116.69 71.0469 117.38 71.0469 118.359V122.648C71.0469 122.883 70.9297 123 70.6953 123H70.0234ZM78.0391 120.812C78.0391 119.885 78.4714 119.206 79.3359 118.773C80.2057 118.341 81.5026 118.089 83.2266 118.016V117.484C83.2266 116.995 83.1146 116.573 82.8906 116.219C82.6719 115.859 82.2344 115.68 81.5781 115.68C81.1615 115.68 80.8281 115.721 80.5781 115.805C80.3281 115.883 80.099 115.99 79.8906 116.125C79.6875 116.255 79.4922 116.424 79.3047 116.633C79.1641 116.789 79.0312 116.797 78.9062 116.656L78.5 116.188C78.3854 116.057 78.4245 115.901 78.6172 115.719C78.8932 115.458 79.1615 115.263 79.4219 115.133C79.6823 115.003 80.0052 114.893 80.3906 114.805C80.7812 114.711 81.1771 114.664 81.5781 114.664C82.6667 114.664 83.4427 114.945 83.9062 115.508C84.3698 116.065 84.6016 116.831 84.6016 117.805V122.648C84.6016 122.883 84.4844 123 84.25 123H83.5469C83.3438 123 83.2422 122.883 83.2422 122.648V122.266H83.2266C82.8151 122.589 82.4115 122.815 82.0156 122.945C81.625 123.07 81.1875 123.133 80.7031 123.133C79.849 123.133 79.1901 122.93 78.7266 122.523C78.2682 122.112 78.0391 121.542 78.0391 120.812ZM79.4609 120.844C79.4609 121.167 79.5286 121.427 79.6641 121.625C79.7995 121.818 79.987 121.943 80.2266 122C80.4661 122.052 80.7161 122.078 80.9766 122.078C81.3776 122.078 81.7578 122.039 82.1172 121.961C82.4766 121.883 82.8464 121.677 83.2266 121.344V119.039C82.1745 119.117 81.4245 119.214 80.9766 119.328C80.5286 119.438 80.1641 119.63 79.8828 119.906C79.6016 120.177 79.4609 120.49 79.4609 120.844ZM86.4297 115.828C86.1953 115.828 86.0781 115.737 86.0781 115.555V115.07C86.0781 114.888 86.1953 114.797 86.4297 114.797H87.3516V114.094C87.3516 113.99 87.3776 113.891 87.4297 113.797L87.9766 112.805C88.0755 112.622 88.1562 112.531 88.2188 112.531H88.4922C88.6484 112.531 88.7266 112.622 88.7266 112.805V114.797H90.3906C90.625 114.797 90.7422 114.888 90.7422 115.07V115.555C90.7422 115.737 90.625 115.828 90.3906 115.828H88.7266V120.805C88.7266 121.352 88.8073 121.708 88.9688 121.875C89.1354 122.036 89.3333 122.117 89.5625 122.117C89.7396 122.117 89.9505 122.065 90.1953 121.961C90.4453 121.857 90.6172 121.768 90.7109 121.695C90.8047 121.622 90.8776 121.646 90.9297 121.766L91.1875 122.367C91.2292 122.471 91.1979 122.555 91.0938 122.617C90.8906 122.737 90.5938 122.854 90.2031 122.969C89.8125 123.078 89.4219 123.133 89.0312 123.133C88.4896 123.133 88.0729 122.938 87.7812 122.547C87.4948 122.156 87.3516 121.604 87.3516 120.891V115.828H86.4297ZM92.3047 118.898C92.3047 117.674 92.6068 116.664 93.2109 115.867C93.8203 115.065 94.75 114.664 96 114.664C96.8438 114.664 97.487 114.815 97.9297 115.117C98.3776 115.414 98.7005 115.719 98.8984 116.031C99.0078 116.203 98.9844 116.341 98.8281 116.445L98.3359 116.766C98.1797 116.875 98.0234 116.805 97.8672 116.555C97.7161 116.315 97.5026 116.109 97.2266 115.938C96.9557 115.766 96.5469 115.68 96 115.68C95.2865 115.68 94.7344 115.943 94.3438 116.469C93.9531 116.995 93.7578 117.805 93.7578 118.898C93.7578 119.992 93.9531 120.802 94.3438 121.328C94.7344 121.854 95.2865 122.117 96 122.117C96.5781 122.117 97.0208 122.008 97.3281 121.789C97.6354 121.565 97.8594 121.323 98 121.062C98.1354 120.818 98.2891 120.747 98.4609 120.852L98.9844 121.164C99.1406 121.258 99.1641 121.398 99.0547 121.586C98.9245 121.81 98.6276 122.125 98.1641 122.531C97.7057 122.932 96.9844 123.133 96 123.133C94.75 123.133 93.8203 122.734 93.2109 121.938C92.6068 121.135 92.3047 120.122 92.3047 118.898ZM101.117 123C100.883 123 100.766 122.883 100.766 122.648V111.82C100.766 111.586 100.883 111.469 101.117 111.469H101.789C102.023 111.469 102.141 111.586 102.141 111.82V115.305C102.141 115.461 102.135 115.617 102.125 115.773H102.156C102.495 115.398 102.859 115.12 103.25 114.938C103.641 114.755 104.128 114.664 104.711 114.664C105.659 114.664 106.339 114.932 106.75 115.469C107.167 116 107.375 116.729 107.375 117.656V122.648C107.375 122.883 107.258 123 107.023 123H106.352C106.117 123 106 122.883 106 122.648V118.031C106 117.01 105.831 116.365 105.492 116.094C105.154 115.818 104.724 115.68 104.203 115.68C103.526 115.68 103.013 115.883 102.664 116.289C102.315 116.69 102.141 117.38 102.141 118.359V122.648C102.141 122.883 102.023 123 101.789 123H101.117ZM110.375 123C110.141 123 110.023 122.883 110.023 122.648V121.695C110.023 121.461 110.141 121.344 110.375 121.344H111.281C111.516 121.344 111.633 121.461 111.633 121.695V122.648C111.633 123.195 111.573 123.672 111.453 124.078C111.339 124.49 111.109 124.849 110.766 125.156C110.651 125.255 110.555 125.268 110.477 125.195L110.125 124.867C110.047 124.794 110.065 124.706 110.18 124.602C110.357 124.445 110.5 124.219 110.609 123.922C110.724 123.63 110.781 123.323 110.781 123H110.375ZM119.148 118.898C119.148 117.779 119.419 116.794 119.961 115.945C120.503 115.091 121.294 114.664 122.336 114.664C122.935 114.664 123.414 114.763 123.773 114.961C124.133 115.159 124.456 115.43 124.742 115.773H124.758C124.747 115.617 124.742 115.458 124.742 115.297V111.82C124.742 111.586 124.859 111.469 125.094 111.469H125.766C126 111.469 126.117 111.586 126.117 111.82V122.648C126.117 122.883 126 123 125.766 123H125.109C124.922 123 124.82 122.883 124.805 122.648L124.758 122.023H124.742C124.456 122.367 124.133 122.638 123.773 122.836C123.414 123.034 122.935 123.133 122.336 123.133C121.294 123.133 120.503 122.708 119.961 121.859C119.419 121.005 119.148 120.018 119.148 118.898ZM120.602 118.898C120.602 119.857 120.766 120.633 121.094 121.227C121.427 121.82 121.99 122.117 122.781 122.117C123.344 122.117 123.81 121.927 124.18 121.547C124.555 121.161 124.742 120.578 124.742 119.797V118C124.742 117.219 124.555 116.638 124.18 116.258C123.81 115.872 123.344 115.68 122.781 115.68C121.99 115.68 121.427 115.977 121.094 116.57C120.766 117.164 120.602 117.94 120.602 118.898ZM127.898 120.812C127.898 119.885 128.331 119.206 129.195 118.773C130.065 118.341 131.362 118.089 133.086 118.016V117.484C133.086 116.995 132.974 116.573 132.75 116.219C132.531 115.859 132.094 115.68 131.438 115.68C131.021 115.68 130.688 115.721 130.438 115.805C130.188 115.883 129.958 115.99 129.75 116.125C129.547 116.255 129.352 116.424 129.164 116.633C129.023 116.789 128.891 116.797 128.766 116.656L128.359 116.188C128.245 116.057 128.284 115.901 128.477 115.719C128.753 115.458 129.021 115.263 129.281 115.133C129.542 115.003 129.865 114.893 130.25 114.805C130.641 114.711 131.036 114.664 131.438 114.664C132.526 114.664 133.302 114.945 133.766 115.508C134.229 116.065 134.461 116.831 134.461 117.805V122.648C134.461 122.883 134.344 123 134.109 123H133.406C133.203 123 133.102 122.883 133.102 122.648V122.266H133.086C132.674 122.589 132.271 122.815 131.875 122.945C131.484 123.07 131.047 123.133 130.562 123.133C129.708 123.133 129.049 122.93 128.586 122.523C128.128 122.112 127.898 121.542 127.898 120.812ZM129.32 120.844C129.32 121.167 129.388 121.427 129.523 121.625C129.659 121.818 129.846 121.943 130.086 122C130.326 122.052 130.576 122.078 130.836 122.078C131.237 122.078 131.617 122.039 131.977 121.961C132.336 121.883 132.706 121.677 133.086 121.344V119.039C132.034 119.117 131.284 119.214 130.836 119.328C130.388 119.438 130.023 119.63 129.742 119.906C129.461 120.177 129.32 120.49 129.32 120.844ZM136.367 122.234C136.206 122.083 136.172 121.943 136.266 121.812L136.617 121.32C136.732 121.164 136.901 121.172 137.125 121.344C137.432 121.578 137.773 121.766 138.148 121.906C138.529 122.047 138.961 122.117 139.445 122.117C139.732 122.117 139.987 122.083 140.211 122.016C140.435 121.943 140.63 121.81 140.797 121.617C140.969 121.424 141.055 121.167 141.055 120.844C141.055 120.656 141.013 120.479 140.93 120.312C140.852 120.146 140.727 120.013 140.555 119.914C140.388 119.81 140.224 119.729 140.062 119.672C139.797 119.573 139.531 119.492 139.266 119.43C139.005 119.362 138.661 119.26 138.234 119.125C137.948 119.036 137.677 118.911 137.422 118.75C137.167 118.583 136.943 118.359 136.75 118.078C136.562 117.797 136.469 117.409 136.469 116.914C136.469 116.409 136.622 115.974 136.93 115.609C137.237 115.245 137.622 114.997 138.086 114.867C138.549 114.732 139 114.664 139.438 114.664C140.083 114.664 140.602 114.74 140.992 114.891C141.388 115.036 141.729 115.211 142.016 115.414C142.182 115.534 142.206 115.672 142.086 115.828L141.734 116.297C141.625 116.448 141.456 116.443 141.227 116.281C141.034 116.146 140.76 116.018 140.406 115.898C140.052 115.779 139.742 115.719 139.477 115.719C139.148 115.719 138.867 115.755 138.633 115.828C138.398 115.901 138.208 116.026 138.062 116.203C137.917 116.38 137.844 116.589 137.844 116.828C137.844 117.01 137.872 117.174 137.93 117.32C137.987 117.461 138.094 117.591 138.25 117.711C138.406 117.831 138.625 117.927 138.906 118C139.344 118.115 139.742 118.219 140.102 118.312C140.466 118.406 140.794 118.521 141.086 118.656C141.466 118.833 141.758 119.029 141.961 119.242C142.169 119.456 142.312 119.688 142.391 119.938C142.469 120.182 142.508 120.456 142.508 120.758C142.508 121.315 142.341 121.786 142.008 122.172C141.68 122.557 141.312 122.815 140.906 122.945C140.5 123.07 140.01 123.133 139.438 123.133C138.661 123.133 137.995 123.023 137.438 122.805C136.885 122.581 136.529 122.391 136.367 122.234ZM144.414 123C144.18 123 144.062 122.883 144.062 122.648V111.82C144.062 111.586 144.18 111.469 144.414 111.469H145.086C145.32 111.469 145.438 111.586 145.438 111.82V115.305C145.438 115.461 145.432 115.617 145.422 115.773H145.453C145.792 115.398 146.156 115.12 146.547 114.938C146.938 114.755 147.424 114.664 148.008 114.664C148.956 114.664 149.635 114.932 150.047 115.469C150.464 116 150.672 116.729 150.672 117.656V122.648C150.672 122.883 150.555 123 150.32 123H149.648C149.414 123 149.297 122.883 149.297 122.648V118.031C149.297 117.01 149.128 116.365 148.789 116.094C148.451 115.818 148.021 115.68 147.5 115.68C146.823 115.68 146.31 115.883 145.961 116.289C145.612 116.69 145.438 117.38 145.438 118.359V122.648C145.438 122.883 145.32 123 145.086 123H144.414ZM153.672 123C153.438 123 153.32 122.883 153.32 122.648V121.695C153.32 121.461 153.438 121.344 153.672 121.344H154.578C154.812 121.344 154.93 121.461 154.93 121.695V122.648C154.93 123.195 154.87 123.672 154.75 124.078C154.635 124.49 154.406 124.849 154.062 125.156C153.948 125.255 153.852 125.268 153.773 125.195L153.422 124.867C153.344 124.794 153.362 124.706 153.477 124.602C153.654 124.445 153.797 124.219 153.906 123.922C154.021 123.63 154.078 123.323 154.078 123H153.672ZM162.445 120.812C162.445 119.885 162.878 119.206 163.742 118.773C164.612 118.341 165.909 118.089 167.633 118.016V117.484C167.633 116.995 167.521 116.573 167.297 116.219C167.078 115.859 166.641 115.68 165.984 115.68C165.568 115.68 165.234 115.721 164.984 115.805C164.734 115.883 164.505 115.99 164.297 116.125C164.094 116.255 163.898 116.424 163.711 116.633C163.57 116.789 163.438 116.797 163.312 116.656L162.906 116.188C162.792 116.057 162.831 115.901 163.023 115.719C163.299 115.458 163.568 115.263 163.828 115.133C164.089 115.003 164.411 114.893 164.797 114.805C165.188 114.711 165.583 114.664 165.984 114.664C167.073 114.664 167.849 114.945 168.312 115.508C168.776 116.065 169.008 116.831 169.008 117.805V122.648C169.008 122.883 168.891 123 168.656 123H167.953C167.75 123 167.648 122.883 167.648 122.648V122.266H167.633C167.221 122.589 166.818 122.815 166.422 122.945C166.031 123.07 165.594 123.133 165.109 123.133C164.255 123.133 163.596 122.93 163.133 122.523C162.674 122.112 162.445 121.542 162.445 120.812ZM163.867 120.844C163.867 121.167 163.935 121.427 164.07 121.625C164.206 121.818 164.393 121.943 164.633 122C164.872 122.052 165.122 122.078 165.383 122.078C165.784 122.078 166.164 122.039 166.523 121.961C166.883 121.883 167.253 121.677 167.633 121.344V119.039C166.581 119.117 165.831 119.214 165.383 119.328C164.935 119.438 164.57 119.63 164.289 119.906C164.008 120.177 163.867 120.49 163.867 120.844ZM171.586 123C171.352 123 171.234 122.883 171.234 122.648V115.148C171.234 114.914 171.352 114.797 171.586 114.797H172.242C172.477 114.797 172.594 114.914 172.594 115.148V115.773H172.625C172.964 115.398 173.328 115.12 173.719 114.938C174.109 114.755 174.596 114.664 175.18 114.664C176.128 114.664 176.807 114.932 177.219 115.469C177.635 116 177.844 116.729 177.844 117.656V122.648C177.844 122.883 177.727 123 177.492 123H176.82C176.586 123 176.469 122.883 176.469 122.648V118.031C176.469 117.01 176.299 116.365 175.961 116.094C175.622 115.818 175.193 115.68 174.672 115.68C173.995 115.68 173.482 115.883 173.133 116.289C172.784 116.69 172.609 117.38 172.609 118.359V122.648C172.609 122.883 172.492 123 172.258 123H171.586ZM179.602 118.898C179.602 117.779 179.872 116.794 180.414 115.945C180.956 115.091 181.747 114.664 182.789 114.664C183.388 114.664 183.867 114.763 184.227 114.961C184.586 115.159 184.909 115.43 185.195 115.773H185.211C185.201 115.617 185.195 115.458 185.195 115.297V111.82C185.195 111.586 185.312 111.469 185.547 111.469H186.219C186.453 111.469 186.57 111.586 186.57 111.82V122.648C186.57 122.883 186.453 123 186.219 123H185.562C185.375 123 185.273 122.883 185.258 122.648L185.211 122.023H185.195C184.909 122.367 184.586 122.638 184.227 122.836C183.867 123.034 183.388 123.133 182.789 123.133C181.747 123.133 180.956 122.708 180.414 121.859C179.872 121.005 179.602 120.018 179.602 118.898ZM181.055 118.898C181.055 119.857 181.219 120.633 181.547 121.227C181.88 121.82 182.443 122.117 183.234 122.117C183.797 122.117 184.263 121.927 184.633 121.547C185.008 121.161 185.195 120.578 185.195 119.797V118C185.195 117.219 185.008 116.638 184.633 116.258C184.263 115.872 183.797 115.68 183.234 115.68C182.443 115.68 181.88 115.977 181.547 116.57C181.219 117.164 181.055 117.94 181.055 118.898ZM193.5 115.18C193.411 114.924 193.482 114.797 193.711 114.797H194.562C194.729 114.797 194.846 114.898 194.914 115.102L196.57 120.258C196.706 120.68 196.797 120.971 196.844 121.133C196.896 121.289 196.943 121.484 196.984 121.719H197.016C197.057 121.484 197.102 121.289 197.148 121.133C197.201 120.971 197.294 120.68 197.43 120.258L199.086 115.102C199.154 114.898 199.271 114.797 199.438 114.797H200.289C200.518 114.797 200.589 114.924 200.5 115.18L197.938 122.523C197.828 122.841 197.688 123 197.516 123H196.484C196.312 123 196.172 122.841 196.062 122.523L193.5 115.18ZM201.383 120.812C201.383 119.885 201.815 119.206 202.68 118.773C203.549 118.341 204.846 118.089 206.57 118.016V117.484C206.57 116.995 206.458 116.573 206.234 116.219C206.016 115.859 205.578 115.68 204.922 115.68C204.505 115.68 204.172 115.721 203.922 115.805C203.672 115.883 203.443 115.99 203.234 116.125C203.031 116.255 202.836 116.424 202.648 116.633C202.508 116.789 202.375 116.797 202.25 116.656L201.844 116.188C201.729 116.057 201.768 115.901 201.961 115.719C202.237 115.458 202.505 115.263 202.766 115.133C203.026 115.003 203.349 114.893 203.734 114.805C204.125 114.711 204.521 114.664 204.922 114.664C206.01 114.664 206.786 114.945 207.25 115.508C207.714 116.065 207.945 116.831 207.945 117.805V122.648C207.945 122.883 207.828 123 207.594 123H206.891C206.688 123 206.586 122.883 206.586 122.648V122.266H206.57C206.159 122.589 205.755 122.815 205.359 122.945C204.969 123.07 204.531 123.133 204.047 123.133C203.193 123.133 202.534 122.93 202.07 122.523C201.612 122.112 201.383 121.542 201.383 120.812ZM202.805 120.844C202.805 121.167 202.872 121.427 203.008 121.625C203.143 121.818 203.331 121.943 203.57 122C203.81 122.052 204.06 122.078 204.32 122.078C204.721 122.078 205.102 122.039 205.461 121.961C205.82 121.883 206.19 121.677 206.57 121.344V119.039C205.518 119.117 204.768 119.214 204.32 119.328C203.872 119.438 203.508 119.63 203.227 119.906C202.945 120.177 202.805 120.49 202.805 120.844ZM210.523 123C210.289 123 210.172 122.883 210.172 122.648V115.148C210.172 114.914 210.289 114.797 210.523 114.797H211.18C211.414 114.797 211.531 114.914 211.531 115.148V115.773H211.562C211.901 115.398 212.266 115.12 212.656 114.938C213.047 114.755 213.534 114.664 214.117 114.664C215.065 114.664 215.745 114.932 216.156 115.469C216.573 116 216.781 116.729 216.781 117.656V122.648C216.781 122.883 216.664 123 216.43 123H215.758C215.523 123 215.406 122.883 215.406 122.648V118.031C215.406 117.01 215.237 116.365 214.898 116.094C214.56 115.818 214.13 115.68 213.609 115.68C212.932 115.68 212.419 115.883 212.07 116.289C211.721 116.69 211.547 117.38 211.547 118.359V122.648C211.547 122.883 211.43 123 211.195 123H210.523ZM219.336 123C219.102 123 218.984 122.883 218.984 122.648V115.148C218.984 114.914 219.102 114.797 219.336 114.797H220.008C220.242 114.797 220.359 114.914 220.359 115.148V122.648C220.359 122.883 220.242 123 220.008 123H219.336ZM219.336 113.312C219.102 113.312 218.984 113.195 218.984 112.961V112.289C218.984 112.055 219.102 111.938 219.336 111.938H220.008C220.242 111.938 220.359 112.055 220.359 112.289V112.961C220.359 113.195 220.242 113.312 220.008 113.312H219.336ZM222.258 122.234C222.096 122.083 222.062 121.943 222.156 121.812L222.508 121.32C222.622 121.164 222.792 121.172 223.016 121.344C223.323 121.578 223.664 121.766 224.039 121.906C224.419 122.047 224.852 122.117 225.336 122.117C225.622 122.117 225.878 122.083 226.102 122.016C226.326 121.943 226.521 121.81 226.688 121.617C226.859 121.424 226.945 121.167 226.945 120.844C226.945 120.656 226.904 120.479 226.82 120.312C226.742 120.146 226.617 120.013 226.445 119.914C226.279 119.81 226.115 119.729 225.953 119.672C225.688 119.573 225.422 119.492 225.156 119.43C224.896 119.362 224.552 119.26 224.125 119.125C223.839 119.036 223.568 118.911 223.312 118.75C223.057 118.583 222.833 118.359 222.641 118.078C222.453 117.797 222.359 117.409 222.359 116.914C222.359 116.409 222.513 115.974 222.82 115.609C223.128 115.245 223.513 114.997 223.977 114.867C224.44 114.732 224.891 114.664 225.328 114.664C225.974 114.664 226.492 114.74 226.883 114.891C227.279 115.036 227.62 115.211 227.906 115.414C228.073 115.534 228.096 115.672 227.977 115.828L227.625 116.297C227.516 116.448 227.346 116.443 227.117 116.281C226.924 116.146 226.651 116.018 226.297 115.898C225.943 115.779 225.633 115.719 225.367 115.719C225.039 115.719 224.758 115.755 224.523 115.828C224.289 115.901 224.099 116.026 223.953 116.203C223.807 116.38 223.734 116.589 223.734 116.828C223.734 117.01 223.763 117.174 223.82 117.32C223.878 117.461 223.984 117.591 224.141 117.711C224.297 117.831 224.516 117.927 224.797 118C225.234 118.115 225.633 118.219 225.992 118.312C226.357 118.406 226.685 118.521 226.977 118.656C227.357 118.833 227.648 119.029 227.852 119.242C228.06 119.456 228.203 119.688 228.281 119.938C228.359 120.182 228.398 120.456 228.398 120.758C228.398 121.315 228.232 121.786 227.898 122.172C227.57 122.557 227.203 122.815 226.797 122.945C226.391 123.07 225.901 123.133 225.328 123.133C224.552 123.133 223.885 123.023 223.328 122.805C222.776 122.581 222.419 122.391 222.258 122.234ZM230.305 123C230.07 123 229.953 122.883 229.953 122.648V111.82C229.953 111.586 230.07 111.469 230.305 111.469H230.977C231.211 111.469 231.328 111.586 231.328 111.82V115.305C231.328 115.461 231.323 115.617 231.312 115.773H231.344C231.682 115.398 232.047 115.12 232.438 114.938C232.828 114.755 233.315 114.664 233.898 114.664C234.846 114.664 235.526 114.932 235.938 115.469C236.354 116 236.562 116.729 236.562 117.656V122.648C236.562 122.883 236.445 123 236.211 123H235.539C235.305 123 235.188 122.883 235.188 122.648V118.031C235.188 117.01 235.018 116.365 234.68 116.094C234.341 115.818 233.911 115.68 233.391 115.68C232.714 115.68 232.201 115.883 231.852 116.289C231.503 116.69 231.328 117.38 231.328 118.359V122.648C231.328 122.883 231.211 123 230.977 123H230.305ZM238.289 119.188C238.055 119.188 237.938 119.096 237.938 118.914V118.445C237.938 118.263 238.055 118.172 238.289 118.172H253.023C253.258 118.172 253.375 118.263 253.375 118.445V118.914C253.375 119.096 253.258 119.188 253.023 119.188H238.289ZM254.32 118.898C254.32 117.674 254.622 116.664 255.227 115.867C255.836 115.065 256.766 114.664 258.016 114.664C258.859 114.664 259.503 114.815 259.945 115.117C260.393 115.414 260.716 115.719 260.914 116.031C261.023 116.203 261 116.341 260.844 116.445L260.352 116.766C260.195 116.875 260.039 116.805 259.883 116.555C259.732 116.315 259.518 116.109 259.242 115.938C258.971 115.766 258.562 115.68 258.016 115.68C257.302 115.68 256.75 115.943 256.359 116.469C255.969 116.995 255.773 117.805 255.773 118.898C255.773 119.992 255.969 120.802 256.359 121.328C256.75 121.854 257.302 122.117 258.016 122.117C258.594 122.117 259.036 122.008 259.344 121.789C259.651 121.565 259.875 121.323 260.016 121.062C260.151 120.818 260.305 120.747 260.477 120.852L261 121.164C261.156 121.258 261.18 121.398 261.07 121.586C260.94 121.81 260.643 122.125 260.18 122.531C259.721 122.932 259 123.133 258.016 123.133C256.766 123.133 255.836 122.734 255.227 121.938C254.622 121.135 254.32 120.122 254.32 118.898ZM263.133 123C262.898 123 262.781 122.883 262.781 122.648V112.898C262.781 112.794 262.807 112.695 262.859 112.602L263.406 111.609C263.505 111.427 263.586 111.336 263.648 111.336H263.922C264.078 111.336 264.156 111.427 264.156 111.609V122.648C264.156 122.883 264.039 123 263.805 123H263.133ZM265.93 120.812C265.93 119.885 266.362 119.206 267.227 118.773C268.096 118.341 269.393 118.089 271.117 118.016V117.484C271.117 116.995 271.005 116.573 270.781 116.219C270.562 115.859 270.125 115.68 269.469 115.68C269.052 115.68 268.719 115.721 268.469 115.805C268.219 115.883 267.99 115.99 267.781 116.125C267.578 116.255 267.383 116.424 267.195 116.633C267.055 116.789 266.922 116.797 266.797 116.656L266.391 116.188C266.276 116.057 266.315 115.901 266.508 115.719C266.784 115.458 267.052 115.263 267.312 115.133C267.573 115.003 267.896 114.893 268.281 114.805C268.672 114.711 269.068 114.664 269.469 114.664C270.557 114.664 271.333 114.945 271.797 115.508C272.26 116.065 272.492 116.831 272.492 117.805V122.648C272.492 122.883 272.375 123 272.141 123H271.438C271.234 123 271.133 122.883 271.133 122.648V122.266H271.117C270.706 122.589 270.302 122.815 269.906 122.945C269.516 123.07 269.078 123.133 268.594 123.133C267.74 123.133 267.081 122.93 266.617 122.523C266.159 122.112 265.93 121.542 265.93 120.812ZM267.352 120.844C267.352 121.167 267.419 121.427 267.555 121.625C267.69 121.818 267.878 121.943 268.117 122C268.357 122.052 268.607 122.078 268.867 122.078C269.268 122.078 269.648 122.039 270.008 121.961C270.367 121.883 270.737 121.677 271.117 121.344V119.039C270.065 119.117 269.315 119.214 268.867 119.328C268.419 119.438 268.055 119.63 267.773 119.906C267.492 120.177 267.352 120.49 267.352 120.844ZM274.398 122.234C274.237 122.083 274.203 121.943 274.297 121.812L274.648 121.32C274.763 121.164 274.932 121.172 275.156 121.344C275.464 121.578 275.805 121.766 276.18 121.906C276.56 122.047 276.992 122.117 277.477 122.117C277.763 122.117 278.018 122.083 278.242 122.016C278.466 121.943 278.661 121.81 278.828 121.617C279 121.424 279.086 121.167 279.086 120.844C279.086 120.656 279.044 120.479 278.961 120.312C278.883 120.146 278.758 120.013 278.586 119.914C278.419 119.81 278.255 119.729 278.094 119.672C277.828 119.573 277.562 119.492 277.297 119.43C277.036 119.362 276.693 119.26 276.266 119.125C275.979 119.036 275.708 118.911 275.453 118.75C275.198 118.583 274.974 118.359 274.781 118.078C274.594 117.797 274.5 117.409 274.5 116.914C274.5 116.409 274.654 115.974 274.961 115.609C275.268 115.245 275.654 114.997 276.117 114.867C276.581 114.732 277.031 114.664 277.469 114.664C278.115 114.664 278.633 114.74 279.023 114.891C279.419 115.036 279.76 115.211 280.047 115.414C280.214 115.534 280.237 115.672 280.117 115.828L279.766 116.297C279.656 116.448 279.487 116.443 279.258 116.281C279.065 116.146 278.792 116.018 278.438 115.898C278.083 115.779 277.773 115.719 277.508 115.719C277.18 115.719 276.898 115.755 276.664 115.828C276.43 115.901 276.24 116.026 276.094 116.203C275.948 116.38 275.875 116.589 275.875 116.828C275.875 117.01 275.904 117.174 275.961 117.32C276.018 117.461 276.125 117.591 276.281 117.711C276.438 117.831 276.656 117.927 276.938 118C277.375 118.115 277.773 118.219 278.133 118.312C278.497 118.406 278.826 118.521 279.117 118.656C279.497 118.833 279.789 119.029 279.992 119.242C280.201 119.456 280.344 119.688 280.422 119.938C280.5 120.182 280.539 120.456 280.539 120.758C280.539 121.315 280.372 121.786 280.039 122.172C279.711 122.557 279.344 122.815 278.938 122.945C278.531 123.07 278.042 123.133 277.469 123.133C276.693 123.133 276.026 123.023 275.469 122.805C274.917 122.581 274.56 122.391 274.398 122.234ZM281.773 122.234C281.612 122.083 281.578 121.943 281.672 121.812L282.023 121.32C282.138 121.164 282.307 121.172 282.531 121.344C282.839 121.578 283.18 121.766 283.555 121.906C283.935 122.047 284.367 122.117 284.852 122.117C285.138 122.117 285.393 122.083 285.617 122.016C285.841 121.943 286.036 121.81 286.203 121.617C286.375 121.424 286.461 121.167 286.461 120.844C286.461 120.656 286.419 120.479 286.336 120.312C286.258 120.146 286.133 120.013 285.961 119.914C285.794 119.81 285.63 119.729 285.469 119.672C285.203 119.573 284.938 119.492 284.672 119.43C284.411 119.362 284.068 119.26 283.641 119.125C283.354 119.036 283.083 118.911 282.828 118.75C282.573 118.583 282.349 118.359 282.156 118.078C281.969 117.797 281.875 117.409 281.875 116.914C281.875 116.409 282.029 115.974 282.336 115.609C282.643 115.245 283.029 114.997 283.492 114.867C283.956 114.732 284.406 114.664 284.844 114.664C285.49 114.664 286.008 114.74 286.398 114.891C286.794 115.036 287.135 115.211 287.422 115.414C287.589 115.534 287.612 115.672 287.492 115.828L287.141 116.297C287.031 116.448 286.862 116.443 286.633 116.281C286.44 116.146 286.167 116.018 285.812 115.898C285.458 115.779 285.148 115.719 284.883 115.719C284.555 115.719 284.273 115.755 284.039 115.828C283.805 115.901 283.615 116.026 283.469 116.203C283.323 116.38 283.25 116.589 283.25 116.828C283.25 117.01 283.279 117.174 283.336 117.32C283.393 117.461 283.5 117.591 283.656 117.711C283.812 117.831 284.031 117.927 284.312 118C284.75 118.115 285.148 118.219 285.508 118.312C285.872 118.406 286.201 118.521 286.492 118.656C286.872 118.833 287.164 119.029 287.367 119.242C287.576 119.456 287.719 119.688 287.797 119.938C287.875 120.182 287.914 120.456 287.914 120.758C287.914 121.315 287.747 121.786 287.414 122.172C287.086 122.557 286.719 122.815 286.312 122.945C285.906 123.07 285.417 123.133 284.844 123.133C284.068 123.133 283.401 123.023 282.844 122.805C282.292 122.581 281.935 122.391 281.773 122.234ZM289.82 123C289.586 123 289.469 122.883 289.469 122.648V115.148C289.469 114.914 289.586 114.797 289.82 114.797H290.492C290.727 114.797 290.844 114.914 290.844 115.148V122.648C290.844 122.883 290.727 123 290.492 123H289.82ZM289.82 113.312C289.586 113.312 289.469 113.195 289.469 112.961V112.289C289.469 112.055 289.586 111.938 289.82 111.938H290.492C290.727 111.938 290.844 112.055 290.844 112.289V112.961C290.844 113.195 290.727 113.312 290.492 113.312H289.82ZM292.617 118.898C292.617 117.674 292.919 116.664 293.523 115.867C294.133 115.065 295.062 114.664 296.312 114.664C297.156 114.664 297.799 114.815 298.242 115.117C298.69 115.414 299.013 115.719 299.211 116.031C299.32 116.203 299.297 116.341 299.141 116.445L298.648 116.766C298.492 116.875 298.336 116.805 298.18 116.555C298.029 116.315 297.815 116.109 297.539 115.938C297.268 115.766 296.859 115.68 296.312 115.68C295.599 115.68 295.047 115.943 294.656 116.469C294.266 116.995 294.07 117.805 294.07 118.898C294.07 119.992 294.266 120.802 294.656 121.328C295.047 121.854 295.599 122.117 296.312 122.117C296.891 122.117 297.333 122.008 297.641 121.789C297.948 121.565 298.172 121.323 298.312 121.062C298.448 120.818 298.602 120.747 298.773 120.852L299.297 121.164C299.453 121.258 299.477 121.398 299.367 121.586C299.237 121.81 298.94 122.125 298.477 122.531C298.018 122.932 297.297 123.133 296.312 123.133C295.062 123.133 294.133 122.734 293.523 121.938C292.919 121.135 292.617 120.122 292.617 118.898ZM306.008 115.828C305.773 115.828 305.656 115.737 305.656 115.555V115.07C305.656 114.888 305.773 114.797 306.008 114.797H306.93V114.094C306.93 113.99 306.956 113.891 307.008 113.797L307.555 112.805C307.654 112.622 307.734 112.531 307.797 112.531H308.07C308.227 112.531 308.305 112.622 308.305 112.805V114.797H309.969C310.203 114.797 310.32 114.888 310.32 115.07V115.555C310.32 115.737 310.203 115.828 309.969 115.828H308.305V120.805C308.305 121.352 308.385 121.708 308.547 121.875C308.714 122.036 308.911 122.117 309.141 122.117C309.318 122.117 309.529 122.065 309.773 121.961C310.023 121.857 310.195 121.768 310.289 121.695C310.383 121.622 310.456 121.646 310.508 121.766L310.766 122.367C310.807 122.471 310.776 122.555 310.672 122.617C310.469 122.737 310.172 122.854 309.781 122.969C309.391 123.078 309 123.133 308.609 123.133C308.068 123.133 307.651 122.938 307.359 122.547C307.073 122.156 306.93 121.604 306.93 120.891V115.828H306.008ZM312.68 123C312.445 123 312.328 122.883 312.328 122.648V111.82C312.328 111.586 312.445 111.469 312.68 111.469H313.352C313.586 111.469 313.703 111.586 313.703 111.82V115.305C313.703 115.461 313.698 115.617 313.688 115.773H313.719C314.057 115.398 314.422 115.12 314.812 114.938C315.203 114.755 315.69 114.664 316.273 114.664C317.221 114.664 317.901 114.932 318.312 115.469C318.729 116 318.938 116.729 318.938 117.656V122.648C318.938 122.883 318.82 123 318.586 123H317.914C317.68 123 317.562 122.883 317.562 122.648V118.031C317.562 117.01 317.393 116.365 317.055 116.094C316.716 115.818 316.286 115.68 315.766 115.68C315.089 115.68 314.576 115.883 314.227 116.289C313.878 116.69 313.703 117.38 313.703 118.359V122.648C313.703 122.883 313.586 123 313.352 123H312.68ZM321.492 123C321.258 123 321.141 122.883 321.141 122.648V115.148C321.141 114.914 321.258 114.797 321.492 114.797H322.164C322.398 114.797 322.516 114.914 322.516 115.148V122.648C322.516 122.883 322.398 123 322.164 123H321.492ZM321.492 113.312C321.258 113.312 321.141 113.195 321.141 112.961V112.289C321.141 112.055 321.258 111.938 321.492 111.938H322.164C322.398 111.938 322.516 112.055 322.516 112.289V112.961C322.516 113.195 322.398 113.312 322.164 113.312H321.492ZM324.289 118.898C324.289 117.607 324.612 116.578 325.258 115.812C325.904 115.047 326.828 114.664 328.031 114.664C329.031 114.664 329.859 115.016 330.516 115.719C331.177 116.417 331.508 117.534 331.508 119.07C331.508 119.305 331.401 119.422 331.188 119.422H325.742C325.831 120.427 326.102 121.128 326.555 121.523C327.008 121.914 327.521 122.109 328.094 122.109C328.698 122.109 329.161 122.008 329.484 121.805C329.807 121.602 330.044 121.401 330.195 121.203C330.362 120.984 330.523 120.943 330.68 121.078L331.141 121.477C331.26 121.581 331.26 121.724 331.141 121.906C331.042 122.057 330.758 122.299 330.289 122.633C329.826 122.966 329.094 123.133 328.094 123.133C326.792 123.133 325.831 122.75 325.211 121.984C324.596 121.219 324.289 120.19 324.289 118.898ZM325.711 118.406H330.125C330.104 117.677 329.917 117.039 329.562 116.492C329.208 115.94 328.688 115.664 328 115.664C327.396 115.664 326.883 115.867 326.461 116.273C326.039 116.674 325.789 117.385 325.711 118.406ZM332.906 115.828C332.672 115.828 332.555 115.737 332.555 115.555V115.07C332.555 114.888 332.672 114.797 332.906 114.797H333.742V113.633C333.742 112.763 333.977 112.164 334.445 111.836C334.914 111.503 335.451 111.336 336.055 111.336C336.414 111.336 336.703 111.354 336.922 111.391C337.146 111.427 337.409 111.508 337.711 111.633C337.826 111.68 337.859 111.763 337.812 111.883L337.57 112.5C337.529 112.604 337.438 112.625 337.297 112.562C337.182 112.51 337.042 112.464 336.875 112.422C336.708 112.375 336.529 112.352 336.336 112.352C335.904 112.352 335.591 112.456 335.398 112.664C335.211 112.872 335.117 113.271 335.117 113.859V114.797H336.547C336.781 114.797 336.898 114.888 336.898 115.07V115.555C336.898 115.737 336.781 115.828 336.547 115.828H335.117V122.648C335.117 122.883 335 123 334.766 123H334.094C333.859 123 333.742 122.883 333.742 122.648V115.828H332.906ZM338.844 112.227C338.844 111.94 338.974 111.797 339.234 111.797H340.047C340.307 111.797 340.438 111.94 340.438 112.227L340.273 119.602C340.273 119.836 340.156 119.953 339.922 119.953H339.359C339.125 119.953 339.008 119.836 339.008 119.602L338.844 112.227ZM339.203 123C338.969 123 338.852 122.883 338.852 122.648V121.695C338.852 121.461 338.969 121.344 339.203 121.344H340.078C340.312 121.344 340.43 121.461 340.43 121.695V122.648C340.43 122.883 340.312 123 340.078 123H339.203Z" fill="white"/>
<path d="M204.317 168H196.677C194.89 166.213 193.597 164.107 192.797 161.68C192.023 159.253 191.637 156.827 191.637 154.4C191.637 148.187 193.317 143.387 196.677 140H204.317C206.077 141.787 207.357 143.893 208.157 146.32C208.957 148.72 209.357 151.12 209.357 153.52C209.357 159.813 207.677 164.64 204.317 168ZM202.237 144.8H198.797C197.623 147.2 197.037 150.253 197.037 153.96C197.037 157.667 197.61 160.8 198.757 163.36H202.277C203.423 160.427 203.997 157.2 203.997 153.68C203.997 150.16 203.41 147.2 202.237 144.8Z" fill="#AAAAAA"/>
<rect x="26" y="26" width="348" height="168" stroke="#2C2C2C" stroke-width="2"/>
<rect x="14" y="13" width="372" height="194" stroke="#2C2C2C" stroke-width="2"/>
<rect x="20" y="20" width="360" height="180" stroke="#D9D9D9" stroke-width="2"/>
<rect x="32" y="33" width="336" height="154" stroke="#D9D9D9" stroke-width="2"/>
<rect x="1" y="1" width="398" height="218" stroke="#2C2C2C" stroke-width="2"/>
</g>
<defs>
<clipPath id="clip0_12_102">
<rect width="400" height="220" rx="10" fill="white"/>
</clipPath>
</defs>
</svg>
